<?xml version="1.0" standalone="no"?>
<!DOCTYPE svg PUBLIC "-//W3C//DTD SVG 1.1//EN" "http://www.w3.org/Graphics/SVG/1.1/DTD/svg11.dtd" >
<svg xmlns="http://www.w3.org/2000/svg" xmlns:xlink="http://www.w3.org/1999/xlink" version="1.1">
<metadata>
Created by FontForge 20170731 at Sun Jan 25 23:17:11 2015
 By Aleksey,,,
Copyright A^(c) 2014 by Timo Gaessner. All rights reserved.
</metadata>
<defs>
<font id="Font" horiz-adv-x="650" >
  <font-face 
    font-family="Font"
    font-weight="400"
    font-stretch="normal"
    units-per-em="1000"
    panose-1="2 11 5 0 0 0 0 0 0 0"
    ascent="800"
    descent="-200"
    x-height="560"
    cap-height="700"
    bbox="-184 -263 2226 1096"
    underline-thickness="80"
    underline-position="-200"
    unicode-range="U+0020-FB02"
  />
<missing-glyph horiz-adv-x="686" 
d="M342 715q61 0 114.5 -24t93.5 -64.5t63 -93t23 -110.5v-423h-28l-65 65l-68 -65l-63 65l-71 -65l-69 65l-63 -65l-67 65l-66 -65h-26v423q0 58 23 110.5t62.5 93t93 64.5t113.5 24zM213 396l-63 64l-14 -14l63 -64l-63 -63l14 -14l63 63l64 -63l14 14l-64 63l64 64
l-14 14zM473 396l-63 64l-14 -14l63 -64l-63 -63l14 -14l63 63l64 -63l14 14l-64 63l64 64l-14 14z" />
    <glyph glyph-name="fi" unicode="fi" horiz-adv-x="609" 
d="M520 0h-100v560h100v-560zM241 796q34 0 61.5 -12t41.5 -24l-20 -94h-5q-11 12 -28 21t-34 9q-18 0 -29 -11.5t-11 -34.5v-90h121v-90h-121v-470h-100v470h-107v90h107v111q0 33 10 56.5t27.5 38.5t40 22.5t46.5 7.5zM470 761q33 0 51 -19t18 -49q0 -31 -18 -50t-51 -19
q-34 0 -52 19t-18 50q0 30 18 49t52 19z" />
    <glyph glyph-name="fl" unicode="fl" horiz-adv-x="589" 
d="M519 0h-100v742h100v-742zM241 796q34 0 61.5 -12t41.5 -24l-20 -94h-5q-11 12 -28 21t-34 9q-18 0 -29 -11.5t-11 -34.5v-90h121v-90h-121v-470h-100v470h-107v90h107v111q0 33 10 56.5t27.5 38.5t40 22.5t46.5 7.5z" />
    <glyph glyph-name="f_f_i" unicode="ffi" horiz-adv-x="934" 
d="M244 796q47 0 79.5 -16.5t46.5 -28.5l-24 -97h-5q-11 12 -31.5 27t-48.5 15q-20 0 -32 -11t-12 -34v-91h110v-90h-110v-470h-100v470h-107v90h107v99q0 37 10.5 63t28.5 42.5t41 24t47 7.5zM586 796q34 0 61.5 -12t41.5 -24l-20 -94h-5q-11 12 -28 21t-34 9
q-18 0 -29 -11.5t-11 -34.5v-90h121v-90h-121v-470h-100v470h-97v90h97v111q0 33 10 56.5t27.5 38.5t40 22.5t46.5 7.5zM865 0h-100v560h100v-560zM815 761q33 0 51 -19t18 -49q0 -31 -18 -50t-51 -19q-34 0 -52 19t-18 50q0 30 18 49t52 19z" />
    <glyph glyph-name="f_f_l" unicode="ffl" horiz-adv-x="934" 
d="M244 796q47 0 79.5 -16.5t46.5 -28.5l-24 -97h-5q-11 12 -31.5 27t-48.5 15q-20 0 -32 -11t-12 -34v-91h110v-90h-110v-470h-100v470h-107v90h107v99q0 37 10.5 63t28.5 42.5t41 24t47 7.5zM586 796q34 0 61.5 -12t41.5 -24l-20 -94h-5q-11 12 -28 21t-34 9
q-18 0 -29 -11.5t-11 -34.5v-90h121v-90h-121v-470h-100v470h-97v90h97v111q0 33 10 56.5t27.5 38.5t40 22.5t46.5 7.5zM864 0h-100v742h100v-742z" />
    <glyph glyph-name=".notdef" horiz-adv-x="686" 
d="M342 715q61 0 114.5 -24t93.5 -64.5t63 -93t23 -110.5v-423h-28l-65 65l-68 -65l-63 65l-71 -65l-69 65l-63 -65l-67 65l-66 -65h-26v423q0 58 23 110.5t62.5 93t93 64.5t113.5 24zM213 396l-63 64l-14 -14l63 -64l-63 -63l14 -14l63 63l64 -63l14 14l-64 63l64 64
l-14 14zM473 396l-63 64l-14 -14l63 -64l-63 -63l14 -14l63 63l64 -63l14 14l-64 63l64 64l-14 14z" />
    <glyph glyph-name=".null" horiz-adv-x="0" 
 />
    <glyph glyph-name="nonmarkingreturn" horiz-adv-x="250" 
 />
    <glyph glyph-name="space" unicode=" " horiz-adv-x="250" 
 />
    <glyph glyph-name="exclam" unicode="!" horiz-adv-x="317" 
d="M220 488l-20 -280h-83l-20 280v212h123v-212zM159 151q38 0 58 -22t20 -57t-20 -56.5t-58 -21.5t-58.5 21.5t-20.5 56.5t20.5 57t58.5 22z" />
    <glyph glyph-name="quotedbl" unicode="&#x22;" horiz-adv-x="358" 
d="M124 476h-54l-20 224h94zM288 476h-54l-20 224h94z" />
    <glyph glyph-name="numbersign" unicode="#" horiz-adv-x="652" 
d="M482 543h120v-82h-130l-19 -144h119v-82h-130l-21 -167h-84l21 167h-107l-21 -167h-84l21 167h-117v82h128l18 144h-116v82h127l20 157h84l-20 -157h107l21 157h84zM280 461l-18 -144h107l19 144h-108z" />
    <glyph glyph-name="dollar" unicode="$" horiz-adv-x="654" 
d="M367 707q36 -7 65.5 -20.5t53 -30t41.5 -35.5t30 -37l-55 -91h-5q-21 38 -53 69.5t-77 47.5v-207q51 -19 93 -37t71.5 -41.5t46 -56t16.5 -78.5q0 -51 -18 -87.5t-49 -61t-72.5 -37.5t-87.5 -15v-109h-90v111q-43 7 -79 22.5t-65 34t-50 38.5t-33 37l48 102h5
q13 -20 30.5 -40.5t39.5 -39t48 -33t56 -23.5v241q-54 17 -93 35t-64.5 40.5t-37.5 51.5t-12 68q0 38 14.5 71t41.5 57.5t65.5 39.5t85.5 18v101h90v-105zM367 83q68 5 98 32.5t30 68.5q0 20 -7 36.5t-22 30t-39.5 26t-59.5 25.5v-219zM277 619q-54 -5 -80 -31.5t-26 -61.5
q0 -18 5.5 -31t18.5 -23.5t33 -20t49 -19.5v187z" />
    <glyph glyph-name="percent" unicode="%" horiz-adv-x="935" 
d="M217 706q42 0 73.5 -17.5t52.5 -47.5t31.5 -70.5t10.5 -86.5q0 -35 -7.5 -72t-26 -68t-51 -50.5t-83.5 -19.5q-50 0 -82.5 19.5t-51.5 50.5t-26 68t-7 72q0 46 10.5 86.5t31.5 70.5t52.5 47.5t72.5 17.5zM217 630q-21 0 -36.5 -11.5t-26 -31t-15.5 -46t-5 -55.5
q0 -24 3.5 -48t13 -43t25.5 -31t41 -12t41.5 12t26 31t13 43t3.5 48q0 29 -5.5 55.5t-16 46t-26 31t-36.5 11.5zM713 700l-419 -747l-73 44l419 747zM717 427q42 0 73.5 -17.5t52.5 -47.5t31.5 -70.5t10.5 -86.5q0 -35 -7.5 -72t-26 -68t-51 -50.5t-83.5 -19.5
q-50 0 -82.5 19.5t-51.5 50.5t-26 68t-7 72q0 46 10.5 86.5t31.5 70.5t52.5 47.5t72.5 17.5zM717 351q-21 0 -36.5 -11.5t-26 -31t-15.5 -46t-5 -55.5q0 -24 3.5 -48t13 -43t25.5 -31t41 -12t41.5 12t26 31t13 43t3.5 48q0 29 -5.5 55.5t-16 46t-26 31t-36.5 11.5z" />
    <glyph glyph-name="ampersand" unicode="&#x26;" horiz-adv-x="615" 
d="M282 712q38 0 70 -11.5t54.5 -32t35 -47.5t12.5 -57q0 -32 -11.5 -59.5t-30 -51.5t-41.5 -45.5t-45 -42.5l117 -144l52 76h5l60 -74l-55 -78l90 -109l-70 -63l-81 97q-14 -15 -32 -29.5t-40.5 -26.5t-50.5 -19t-62 -7q-37 0 -72.5 10.5t-63.5 32t-45.5 55t-17.5 78.5
q0 35 10.5 65t28.5 56t42 48.5t50 43.5q-34 38 -59 80.5t-25 96.5q0 32 13 61t36 50.5t55.5 34t70.5 12.5zM248 307q-16 -14 -31 -28.5t-27 -31t-19 -35t-7 -39.5q0 -24 9 -40.5t24 -27t34.5 -15t40.5 -4.5q38 0 65.5 16.5t46.5 40.5zM283 622q-32 0 -54 -21t-22 -53
t19.5 -59t42.5 -55q13 12 28.5 25.5t29 29t22 32.5t8.5 34q0 31 -21 49t-53 18z" />
    <glyph glyph-name="quotesingle" unicode="'" horiz-adv-x="194" 
d="M124 476h-54l-20 224h94z" />
    <glyph glyph-name="parenleft" unicode="(" horiz-adv-x="324" 
d="M294 758q-35 -59 -61 -131q-23 -62 -42 -146.5t-19 -184.5q0 -106 17.5 -189t38.5 -140q25 -67 56 -117h-99q-32 47 -58 113q-22 57 -39.5 139.5t-17.5 193.5q0 100 20.5 184.5t45.5 146.5q29 72 66 131h92z" />
    <glyph glyph-name="parenright" unicode=")" horiz-adv-x="324" 
d="M30.0176 758q34.998 -59 60.9971 -131q22.998 -62 41.9971 -146.5t18.999 -184.5q0 -106 -17.499 -189t-38.498 -140q-24.998 -67 -55.9961 -117h98.9941q31.998 47 57.9961 113q21.999 57 39.4971 139.5q17.499 82.5 17.499 193.5q0 100 -20.498 184.5
q-20.499 84.5 -45.498 146.5q-28.998 72 -65.9951 131h-91.9951z" />
    <glyph glyph-name="asterisk" unicode="*" horiz-adv-x="454" 
d="M251 566l110 77l43 -96l-144 -27l117 -100l-79 -68l-71 129l-71 -129l-79 68l117 100l-144 27l43 96l110 -77l-28 134h104z" />
    <glyph glyph-name="plus" unicode="+" horiz-adv-x="585" 
d="M340 401h195v-90h-195v-225h-95v225h-195v90h195v195h95v-195z" />
    <glyph glyph-name="comma" unicode="," horiz-adv-x="266" 
d="M131 153q38 0 61.5 -26t23.5 -69q0 -24 -7.5 -46.5t-18.5 -43.5t-25.5 -38.5t-27.5 -30.5h-51v5q13 18 25 46.5t12 49.5q-32 0 -52.5 21.5t-20.5 53.5q0 35 21.5 56.5t59.5 21.5z" />
    <glyph glyph-name="hyphen" unicode="-" horiz-adv-x="395" 
d="M345 270h-295v90h295v-90z" />
    <glyph glyph-name="period" unicode="." horiz-adv-x="261" 
d="M131 155q38 0 59 -22.5t21 -57.5t-21 -57.5t-59 -22.5q-39 0 -60 22.5t-21 57.5t21 57.5t60 22.5z" />
    <glyph glyph-name="slash" unicode="/" horiz-adv-x="500" 
d="M490 775l-402 -881l-78 36l402 881z" />
    <glyph glyph-name="zero" unicode="0" horiz-adv-x="646" 
d="M323 712q67 0 118 -29.5t85.5 -80t52 -118t17.5 -143.5q0 -38 -5 -79.5t-17.5 -80.5t-32.5 -74t-50.5 -61.5t-72 -42t-95.5 -15.5t-95.5 15.5t-72 42t-51 61.5t-32.5 74t-17 80t-5 80q0 76 17.5 143.5t52 118t85.5 80t118 29.5zM323 618q-45 0 -77.5 -23.5t-54 -62.5
t-31.5 -89t-10 -102q0 -44 8 -89.5t27.5 -83t53 -61t84.5 -23.5t84.5 23.5t53 61t27.5 83t8 89.5q0 52 -10 102t-31.5 89t-54 62.5t-77.5 23.5z" />
    <glyph glyph-name="one" unicode="1" horiz-adv-x="402" 
d="M302 0h-100v566h-3l-136 -151l-68 71l204 214h103v-700z" />
    <glyph glyph-name="two" unicode="2" horiz-adv-x="537" 
d="M277 712q53 0 95 -15.5t71.5 -44t45 -67.5t15.5 -85q0 -50 -22.5 -95t-62 -89.5t-92 -89.5t-112.5 -95l-42 -36h334v-95h-453v110l93 84q49 44 95.5 82.5t82.5 74.5t57.5 71t21.5 73q0 57 -31 92t-95 35q-38 0 -67.5 -15.5t-50.5 -40t-35 -56t-21 -63.5h-5l-69 74
q6 27 24 60t48 62.5t73.5 49t101.5 19.5z" />
    <glyph glyph-name="three" unicode="3" horiz-adv-x="589" 
d="M507 616l-223 -175l1 -2q7 2 16.5 2.5t18.5 0.5q40 0 79.5 -14t70.5 -42.5t50 -70.5t19 -98q0 -54 -19 -96.5t-52 -72t-79 -45.5t-100 -16t-98 16.5t-76.5 41.5t-53.5 54t-30 54l65 77h5q9 -25 24.5 -51.5t39 -48.5t54.5 -36t71 -14q34 0 62 10.5t47.5 29.5t30.5 44.5
t11 55.5q0 70 -40.5 108.5t-115.5 38.5q-33 0 -56 -5.5t-38 -13.5l-53 78l238 184h-285v90h416v-84z" />
    <glyph glyph-name="four" unicode="4" horiz-adv-x="616" 
d="M488 230h68v-90h-65v-140h-103v140h-348v84l292 476h156v-470zM386 619l-237 -389h239v389h-2z" />
    <glyph glyph-name="five" unicode="5" horiz-adv-x="597" 
d="M485 610h-313v-187l1 -1q27 17 64.5 27.5t80.5 10.5q46 0 90 -14.5t78 -43.5t55 -71.5t21 -98.5t-19 -101t-52.5 -77t-81 -49t-104.5 -17q-54 0 -98 16.5t-77 41.5t-54.5 55t-30.5 56l66 73h5q9 -25 24.5 -51.5t39 -48t54.5 -35.5t71 -14t70 12.5t50 33.5t29.5 48.5
t9.5 58.5q0 30 -10.5 55.5t-30.5 45t-49 30.5t-66 11q-45 0 -79 -15.5t-58 -33.5l-94 39v334h408v-90z" />
    <glyph glyph-name="six" unicode="6" horiz-adv-x="616" 
d="M336 712q36 0 68 -10t58 -25t45.5 -33.5t30.5 -36.5l-50 -82h-5q-23 39 -62.5 68t-87.5 29q-46 0 -79.5 -21.5t-55.5 -57t-32.5 -80t-10.5 -89.5l2 -1q24 32 71 56t111 24q46 0 88 -15.5t74 -45t51 -72t19 -97.5q0 -52 -17 -95.5t-48.5 -74.5t-76 -48t-99.5 -17
q-60 0 -111.5 21.5t-89 65t-58.5 108.5t-21 153q0 86 20.5 155.5t58 118.5t90.5 75.5t117 26.5zM330 368q-35 0 -62 -12t-46.5 -32t-29.5 -46.5t-10 -54.5q0 -27 9 -52t27.5 -45t46 -32t64.5 -12q68 0 105 40t37 102q0 31 -10 57.5t-28.5 46t-44.5 30t-58 10.5z" />
    <glyph glyph-name="seven" unicode="7" horiz-adv-x="520" 
d="M490 603l-323 -603h-114l328 600h-351v100h460v-97z" />
    <glyph glyph-name="eight" unicode="8" horiz-adv-x="580" 
d="M290 712q49 0 88.5 -16t67.5 -42.5t43.5 -61.5t15.5 -73q0 -54 -29 -97.5t-81 -62.5v-3q53 -17 89 -63t36 -114q0 -48 -19 -84t-50.5 -59.5t-73.5 -35.5t-87 -12t-87 12t-73.5 35.5t-50.5 59.5t-19 84q0 68 36 114t89 63v1q-52 19 -81 63.5t-29 98.5q0 38 15.5 73
t43.5 61.5t67.5 42.5t88.5 16zM290 310q-60 0 -92.5 -34t-32.5 -82t32.5 -77.5t92.5 -29.5t92.5 29.5t32.5 77.5t-32.5 82t-92.5 34zM290 623q-53 0 -84 -32t-31 -77q0 -21 7.5 -40.5t22 -34.5t36 -24t49.5 -9t49.5 9t36 24t22 34.5t7.5 40.5q0 45 -31 77t-84 32z" />
    <glyph glyph-name="nine" unicode="9" horiz-adv-x="599" 
d="M287 712q48 0 94.5 -18.5t84 -62t60.5 -114t23 -173.5q0 -92 -19 -159t-52 -111t-77.5 -65t-96.5 -21q-80 0 -134 27t-86 63l46 90h5q12 -15 28.5 -30.5t36.5 -27.5t43 -20t50 -8q30 0 57 11.5t48.5 38.5t34.5 71.5t14 109.5h-2q-23 -37 -66.5 -58.5t-100.5 -21.5
q-56 0 -99.5 19t-73 51.5t-45 75.5t-15.5 90q0 54 19 98.5t52 76.5t77 50t94 18zM284 622q-36 0 -62.5 -13t-43.5 -34.5t-25 -48.5t-8 -55q0 -31 9 -58t27 -47t44.5 -31.5t61.5 -11.5q38 0 64 13.5t41.5 34.5t22.5 47.5t7 52.5q0 28 -8 55.5t-24.5 48.5t-43 34t-62.5 13z
" />
    <glyph glyph-name="colon" unicode=":" horiz-adv-x="281" 
d="M141 155q38 0 59 -22.5t21 -57.5t-21 -57.5t-59 -22.5q-39 0 -60 22.5t-21 57.5t21 57.5t60 22.5zM141 511q38 0 59 -22.5t21 -57.5t-21 -57.5t-59 -22.5q-39 0 -60 22.5t-21 57.5t21 57.5t60 22.5z" />
    <glyph glyph-name="semicolon" unicode=";" horiz-adv-x="287" 
d="M143.377 148.938q37.2402 0 60.2695 -25.4805q23.0293 -25.4785 23.0293 -67.6182q0 -23.5195 -7.34961 -45.5693q-7.34961 -22.0488 -18.1299 -42.6289t-24.9893 -37.7295q-14.21 -17.1494 -26.9492 -29.8896h-49.9795v4.90039q12.7393 17.6396 24.499 45.5693
q11.7598 27.9287 11.7598 48.5088q-31.3594 0 -51.4482 21.0693q-20.0898 21.0693 -20.0898 52.4287q0 34.2998 21.0693 55.3691q21.0703 21.0703 58.3086 21.0703zM141 511q38 0 59 -22.5t21 -57.5t-21 -57.5t-59 -22.5q-39 0 -60 22.5t-21 57.5t21 57.5t60 22.5z" />
    <glyph glyph-name="less" unicode="&#x3c;" horiz-adv-x="606" 
d="M50 316v80l506 221v-95l-381 -166l381 -166v-95z" />
    <glyph glyph-name="equal" unicode="=" horiz-adv-x="606" 
d="M556 406h-506v94h506v-94zM556 212h-506v94h506v-94z" />
    <glyph glyph-name="greater" unicode="&#x3e;" horiz-adv-x="606" 
d="M556.003 316v80l-505.969 221v-95l380.977 -166l-380.977 -166v-95z" />
    <glyph glyph-name="question" unicode="?" horiz-adv-x="520" 
d="M276 712q40 0 73.5 -11t56.5 -31t36 -48.5t13 -62.5q0 -31 -8.5 -52.5t-26 -38.5t-43 -31t-58.5 -29q-39 -18 -61.5 -30t-34 -21.5t-14.5 -17t-3 -16.5q0 -34 46 -34q25 0 56 16.5t52 43.5h5l48 -80q-10 -13 -27 -26t-39 -23.5t-48 -17t-54 -6.5q-27 0 -52.5 7.5t-45 23
t-31.5 38.5t-12 55q0 26 7.5 46.5t24 38t43 33.5t64.5 34q31 15 52.5 25t34 19.5t18 19.5t5.5 24q0 26 -20 40t-54 14q-50 0 -88 -29t-61 -66h-5l-55 95q11 15 30 32t45 32t59 24.5t72 9.5zM264 152q38 0 58 -22t20 -57t-20 -56.5t-58 -21.5t-58.5 21.5t-20.5 56.5t20.5 57
t58.5 22z" />
    <glyph glyph-name="at" unicode="@" horiz-adv-x="762" 
d="M393 642q72 0 131 -26t101 -71t64.5 -106t22.5 -132q0 -59 -11.5 -99t-31 -64t-44.5 -34.5t-51 -10.5q-38 0 -64.5 17.5t-34.5 40.5h-2q-11 -23 -35 -40.5t-70 -17.5q-32 0 -58.5 13t-45.5 36.5t-30 56t-11 71.5t11 72.5t31 58t47.5 38.5t60.5 14q32 0 54.5 -13.5
t31.5 -30.5h2l7 36h57v-214q0 -37 9.5 -49.5t32.5 -12.5q33 0 48.5 36t15.5 93q0 54 -16.5 102t-47 83.5t-75 56.5t-99.5 21q-60 0 -108 -22.5t-82.5 -61.5t-53 -92.5t-18.5 -114.5q0 -60 17 -111t49 -88.5t79.5 -58.5t109.5 -21q32 0 59.5 7t47.5 15q24 10 43 23h5l23 -77
q-22 -13 -49 -24q-23 -9 -56 -16t-73 -7q-83 0 -145.5 27t-105 75t-64 113.5t-21.5 142.5q0 78 25 145t70.5 116t108.5 77t139 28zM376 384q-20 0 -34 -10t-22.5 -25t-12 -34t-3.5 -37t4 -36t12 -33t21.5 -24t31.5 -9q40 0 57.5 29.5t17.5 74.5q0 19 -4 37.5t-12.5 33.5
t-22 24t-33.5 9z" />
    <glyph glyph-name="A" unicode="A" horiz-adv-x="676" 
d="M661 0h-113l-65 192h-290l-65 -192h-113l245 700h156zM336 612l-114 -330h232l-114 330h-4z" />
    <glyph glyph-name="B" unicode="B" horiz-adv-x="630" 
d="M373 700q104 0 158 -47.5t54 -132.5q0 -60 -27.5 -99t-82.5 -62v-2q50 -19 80 -60.5t30 -109.5q0 -34 -11 -67.5t-38 -60t-72.5 -43t-115.5 -16.5h-268v700h293zM185 310v-215h168q68 0 98.5 29t30.5 80t-29.5 78.5t-92.5 27.5h-175zM185 605v-205h168q56 0 90.5 28
t34.5 79q0 43 -27 70.5t-88 27.5h-178z" />
    <glyph glyph-name="C" unicode="C" horiz-adv-x="661" 
d="M359 712q55 0 98.5 -16t76 -41.5t55 -56.5t34.5 -61l-76 -73h-5q-13 34 -30 62t-39 48t-50.5 31.5t-63.5 11.5q-49 0 -88 -22.5t-66 -59t-41 -84t-14 -98.5q0 -58 13.5 -107t40 -84.5t65.5 -55.5t90 -20q36 0 68 13.5t57 38t42.5 58.5t25.5 76h5l89 -70
q-14 -48 -40.5 -87t-63.5 -67.5t-83.5 -44t-99.5 -15.5q-76 0 -134.5 27t-98.5 75.5t-60.5 115.5t-20.5 147q0 70 22.5 135t63.5 115t99 79.5t129 29.5z" />
    <glyph glyph-name="D" unicode="D" horiz-adv-x="690" 
d="M321 700q161 0 242.5 -83t81.5 -264q0 -182 -84.5 -267.5t-248.5 -85.5h-222v700h231zM195 605v-510h129q115 0 165.5 68.5t50.5 189.5q0 60 -10.5 107t-35 79.5t-65.5 49t-102 16.5h-132z" />
    <glyph glyph-name="E" unicode="E" horiz-adv-x="563" 
d="M503 605h-318v-207h318v-90h-318v-213h318v-95h-423v700h423v-95z" />
    <glyph glyph-name="F" unicode="F" horiz-adv-x="572" 
d="M522 605h-337v-217h333v-93h-333v-295h-105v700h442v-95z" />
    <glyph glyph-name="G" unicode="G" horiz-adv-x="671" 
d="M359 712q55 0 98 -16t75.5 -41t55 -55t34.5 -58l-74 -76h-5q-13 32 -30 60t-39.5 49t-51 33t-63.5 12q-49 0 -88 -22.5t-66 -60t-41 -85.5t-14 -99q0 -58 13.5 -107t40 -84.5t65.5 -55.5t90 -20q63 0 108.5 24.5t63.5 56.5v81h-129v90h224v-338h-64l-28 70h-2
q-20 -30 -66 -56t-114 -26q-74 0 -131 27t-96 75.5t-59.5 115.5t-20.5 147q0 70 22.5 135t63.5 115t99 79.5t129 29.5z" />
    <glyph glyph-name="H" unicode="H" horiz-adv-x="667" 
d="M587 0h-105v311h-297v-311h-105v700h105v-299h297v299h105v-700z" />
    <glyph glyph-name="I" unicode="I" horiz-adv-x="265" 
d="M185 0h-105v700h105v-700z" />
    <glyph glyph-name="J" unicode="J" horiz-adv-x="484" 
d="M414 189q0 -45 -13.5 -82t-39.5 -63.5t-64.5 -41t-87.5 -14.5q-41 0 -73 11t-56.5 28t-42 37.5t-27.5 40.5l59 85h5q10 -18 23 -36.5t29.5 -32.5t36 -23t41.5 -9q48 0 76 28.5t28 93.5v489h106v-511z" />
    <glyph glyph-name="K" unicode="K" horiz-adv-x="618" 
d="M303 362l305 -362h-144l-277 332h-2v-332h-105v700h105v-322h2l266 322h139z" />
    <glyph glyph-name="L" unicode="L" horiz-adv-x="477" 
d="M185 94h272v-94h-377v700h105v-606z" />
    <glyph glyph-name="M" unicode="M" horiz-adv-x="873" 
d="M793 0h-100v606h-2l-202 -606h-105l-202 606h-2v-606h-100v700h172l183 -550h3l182 550h173v-700z" />
    <glyph glyph-name="N" unicode="N" horiz-adv-x="724" 
d="M644 0h-171l-286 603h-2v-603h-105v700h171l286 -603h2v603h105v-700z" />
    <glyph glyph-name="O" unicode="O" horiz-adv-x="718" 
d="M359 712q71 0 129 -29.5t99 -79.5t63.5 -115t22.5 -135q0 -80 -20.5 -147t-60.5 -115.5t-98.5 -75.5t-134.5 -27t-134.5 27t-98.5 75.5t-60.5 115.5t-20.5 147q0 70 22.5 135t63.5 115t99 79.5t129 29.5zM359 620q-51 0 -90 -22.5t-65.5 -60t-40 -85.5t-13.5 -99
q0 -58 13.5 -107t40 -84.5t65.5 -55.5t90 -20t90 19.5t65.5 55t40 84.5t13.5 108q0 51 -13.5 99.5t-40 85.5t-65.5 59.5t-90 22.5z" />
    <glyph glyph-name="P" unicode="P" horiz-adv-x="595" 
d="M333 700q109 0 170.5 -52.5t61.5 -161.5q0 -54 -19 -94.5t-52 -67.5t-78.5 -40.5t-98.5 -13.5h-132v-270h-105v700h253zM185 605v-240h122q77 0 115 31t38 90q0 29 -6.5 51.5t-22 37.5t-42 22.5t-66.5 7.5h-138z" />
    <glyph glyph-name="Q" unicode="Q" horiz-adv-x="745" 
d="M359 712q71 0 129 -29.5t99 -79.5t63.5 -115t22.5 -135q0 -65 -14.5 -121t-41.5 -101l103 -126v-5h-110l-50 61q-39 -35 -89.5 -54t-111.5 -19q-76 0 -134.5 27t-98.5 75.5t-60.5 115.5t-20.5 147q0 70 22.5 135t63.5 115t99 79.5t129 29.5zM359 620q-51 0 -90 -22.5
t-65.5 -60t-40 -85.5t-13.5 -99q0 -58 13.5 -107t40 -84.5t65.5 -55.5t90 -20q85 0 137 54l-161 197l69 57l142 -175q22 61 22 134q0 51 -13.5 99.5t-40 85.5t-65.5 59.5t-90 22.5z" />
    <glyph glyph-name="R" unicode="R" horiz-adv-x="636" 
d="M351 700q114 0 171 -52.5t57 -151.5q0 -48 -16.5 -83.5t-45.5 -60t-68 -38.5t-83 -17l215 -297h-133l-202 295h-61v-295h-105v700h271zM185 605v-220h136q73 0 113 27.5t40 83.5t-30 82.5t-109 26.5h-150z" />
    <glyph glyph-name="S" unicode="S" horiz-adv-x="608" 
d="M275 712q49 0 89.5 -11.5t73 -30t56.5 -41t39 -43.5l-54 -95h-5q-15 22 -35 44.5t-44 40.5t-53 29.5t-62 11.5q-31 0 -54 -8t-38 -21.5t-22.5 -30.5t-7.5 -34q0 -21 6 -37.5t24 -30t51.5 -26.5t88.5 -28q43 -12 85.5 -26t77 -37t56 -58.5t21.5 -89.5q0 -53 -19.5 -91.5
t-53.5 -63t-79 -36t-96 -11.5q-53 0 -99 12.5t-83 32.5t-64.5 44t-43.5 47l54 97h5q16 -23 39 -47t51.5 -43.5t62.5 -32t73 -12.5q83 0 117 27.5t34 70.5q0 33 -16 53.5t-42.5 34t-61 23t-71.5 19.5q-50 14 -90.5 31.5t-69.5 41.5t-45 57t-16 78q0 40 16 75t45 60.5t69.5 40
t90.5 14.5z" />
    <glyph glyph-name="T" unicode="T" horiz-adv-x="535" 
d="M515 605h-196v-605h-105v605h-194v95h495v-95z" />
    <glyph glyph-name="U" unicode="U" horiz-adv-x="683" 
d="M613 258q0 -60 -16.5 -109.5t-49.5 -85.5t-84 -55.5t-120 -19.5t-120.5 19.5t-85 55.5t-50.5 85.5t-17 109.5v442h105v-436q0 -90 42.5 -135.5t125.5 -45.5q165 0 165 181v436h105v-442z" />
    <glyph glyph-name="V" unicode="V" horiz-adv-x="632" 
d="M390 0h-148l-227 700h112l188 -594h2l188 594h112z" />
    <glyph glyph-name="W" unicode="W" horiz-adv-x="978" 
d="M774 0h-149l-135 586h-2l-135 -586h-149l-174 700h113l132 -585h2l136 585h152l136 -585h2l132 585h113z" />
    <glyph glyph-name="X" unicode="X" horiz-adv-x="588" 
d="M359 350l214 -350h-126l-153 265l-152 -265h-127l215 350l-208 350h121l151 -265l152 265h120z" />
    <glyph glyph-name="Y" unicode="Y" horiz-adv-x="561" 
d="M331 263v-263h-101v263l-220 437h118l152 -325l153 325h118z" />
    <glyph glyph-name="Z" unicode="Z" horiz-adv-x="530" 
d="M500 595l-356 -500h346v-95h-460v105l360 500h-351v95h461v-105z" />
    <glyph glyph-name="bracketleft" unicode="[" horiz-adv-x="268" 
d="M238 689h-74v-822h74v-89h-168v1000h168v-89z" />
    <glyph glyph-name="backslash" unicode="\" horiz-adv-x="500" 
d="M10.0303 775l401.976 -881l77.9951 36l-401.976 881z" />
    <glyph glyph-name="bracketright" unicode="]" horiz-adv-x="268" 
d="M30.0146 -132.958h73.9951v821.95h-73.9951v88.9941h167.989v-999.938h-167.989v88.9941z" />
    <glyph glyph-name="asciicircum" unicode="^" horiz-adv-x="558" 
d="M508 328h-97l-132 278l-132 -278h-97l183 372h93z" />
    <glyph glyph-name="underscore" unicode="_" horiz-adv-x="560" 
d="M510 -149h-460v90h460v-90z" />
    <glyph glyph-name="grave" unicode="`" horiz-adv-x="309" 
d="M259 625h-103l-106 117h144z" />
    <glyph glyph-name="a" unicode="a" horiz-adv-x="531" 
d="M268 572q98 0 150.5 -50t52.5 -131v-391h-82l-12 74h-3q-25 -39 -66 -62.5t-100 -23.5q-80 0 -121.5 41t-41.5 113q0 66 38.5 110t136.5 64q50 10 80 20t45.5 21t20.5 23t5 27q0 34 -25 54.5t-79 20.5t-93.5 -31.5t-66.5 -81.5h-4l-57 84q33 52 90.5 85.5t131.5 33.5z
M369 290q-5 -9 -13 -16t-21.5 -13t-35 -12.5t-52.5 -13.5q-63 -15 -84.5 -37t-21.5 -52q0 -33 23.5 -51t56.5 -18q26 0 53 8.5t48.5 23.5t35 36t13.5 47v98h-2z" />
    <glyph glyph-name="b" unicode="b" horiz-adv-x="624" 
d="M170 497h2q20 27 62.5 51t102.5 24q51 0 95.5 -22t78.5 -61.5t53.5 -93t19.5 -116.5t-16 -116.5t-46.5 -92t-76 -60.5t-103.5 -22q-62 0 -104 24t-67 62h-3l-12 -74h-86v742h100v-245zM327 482q-38 0 -67.5 -15.5t-49.5 -43t-30 -65.5t-10 -83q0 -43 11 -78.5t31.5 -61
t49.5 -39.5t66 -14q39 0 68 14.5t48.5 41t29.5 62.5t10 79q0 42 -10 79t-30 64.5t-49.5 43.5t-67.5 16z" />
    <glyph glyph-name="c" unicode="c" horiz-adv-x="558" 
d="M305 572q44 0 79.5 -12t62.5 -32t46 -46t30 -53l-70 -69h-5q-17 54 -51.5 88t-91.5 34q-38 0 -68.5 -17t-52 -45.5t-33 -65t-11.5 -76.5q0 -89 42 -142.5t123 -53.5q31 0 56 11.5t44 31t31.5 45.5t19.5 55h5l82 -63q-14 -38 -35.5 -70t-51 -55t-67.5 -36t-84 -13
q-65 0 -114.5 21.5t-83 59.5t-50.5 91.5t-17 117.5t21 118t57.5 93t84.5 61t102 22z" />
    <glyph glyph-name="d" unicode="d" horiz-adv-x="624" 
d="M554 0h-86l-12 74h-3q-25 -38 -67 -62t-104 -24q-59 0 -104 22t-75.5 60.5t-46.5 92t-16 116.5t19.5 116.5t53.5 93t78.5 61.5t95.5 22q60 0 102.5 -24t62.5 -51h2v245h100v-742zM297 482q-38 0 -67.5 -16t-49.5 -43.5t-30 -64.5t-10 -79q0 -43 9.5 -79t29 -62.5t49 -41
t68.5 -14.5q37 0 66 14t49.5 39.5t31.5 61t11 78.5q0 45 -10 83t-30 65.5t-49.5 43t-67.5 15.5z" />
    <glyph glyph-name="e" unicode="e" horiz-adv-x="582" 
d="M296 572q52 0 97 -20.5t78 -57.5t52 -89t19 -114q0 -8 -0.5 -15t-0.5 -13v-14h-402q2 -36 14 -66.5t33 -53t50.5 -35t67.5 -12.5q30 0 56 9.5t47 24.5t37 32.5t26 32.5h5l44 -95q-14 -18 -35.5 -36t-49 -31.5t-60.5 -22t-70 -8.5q-65 0 -114.5 22t-82.5 61t-50 93
t-17 117t20.5 116.5t55.5 92.5t81.5 60.5t98.5 21.5zM296 482q-33 0 -59.5 -12.5t-46 -33t-31.5 -47.5t-16 -56h299q-5 69 -45 109t-101 40z" />
    <glyph glyph-name="f" unicode="f" horiz-adv-x="365" 
d="M244 796q47 0 79.5 -16.5t46.5 -28.5l-24 -97h-5q-11 12 -31.5 27t-48.5 15q-20 0 -32 -11t-12 -34v-91h141v-90h-141v-470h-100v470h-107v90h107v99q0 37 10.5 63t28.5 42.5t41 24t47 7.5z" />
    <glyph glyph-name="g" unicode="g" horiz-adv-x="603" 
d="M274 572q66 0 105.5 -25.5t59.5 -60.5h3l9 74h82v-523q0 -62 -19.5 -106.5t-52.5 -73t-76 -41.5t-91 -13q-33 0 -64.5 8t-59 21t-49 28.5t-35.5 29.5l39 91h5q10 -13 27.5 -28t38.5 -27.5t44.5 -21t45.5 -8.5q75 0 111 38.5t36 127.5v55h-5q-23 -29 -59 -49.5t-91 -20.5
q-110 0 -174 68t-64 191q0 60 19.5 109t52 84t75 54t87.5 19zM292 482q-42 0 -71 -15t-47 -39.5t-26 -56t-8 -65.5q0 -36 9.5 -66.5t27.5 -52.5t44.5 -34.5t60.5 -12.5q69 0 110.5 45t40.5 133q0 34 -10 64t-28 52.5t-44 35t-59 12.5z" />
    <glyph glyph-name="h" unicode="h" horiz-adv-x="588" 
d="M170 483h2q26 40 68 64.5t102 24.5q48 0 83 -17t58 -45t34 -64.5t11 -76.5v-369h-100v347q0 63 -25 99t-88 36q-31 0 -57.5 -12t-46 -36t-30.5 -59.5t-11 -81.5v-293h-100v742h100v-259z" />
    <glyph glyph-name="i" unicode="i" horiz-adv-x="240" 
d="M170 0h-100v560h100v-560zM121 771q33 0 51 -19t18 -49q0 -31 -18 -50t-51 -19q-34 0 -52 19t-18 50q0 30 18 49t52 19z" />
    <glyph glyph-name="j" unicode="j" horiz-adv-x="234" 
d="M164 -48q0 -37 -10.5 -63.5t-28 -43t-40 -24t-46.5 -7.5q-26 0 -49.5 6.5t-39.5 14.5l14 93h5q12 -6 23.5 -10t24.5 -4q23 0 35 10.5t12 34.5v601h100v-608zM115 771q33 0 51 -19t18 -49q0 -31 -18 -50t-51 -19q-34 0 -52 19t-18 50q0 30 18 49t52 19z" />
    <glyph glyph-name="k" unicode="k" horiz-adv-x="496" 
d="M170 292h2l194 268h126l-216 -277l220 -283h-131l-193 266h-2v-266h-100v742h100v-450z" />
    <glyph glyph-name="l" unicode="l" horiz-adv-x="240" 
d="M170 0h-100v742h100v-742z" />
    <glyph glyph-name="m" unicode="m" horiz-adv-x="888" 
d="M656 572q79 0 125.5 -48t46.5 -137v-387h-100v347q0 73 -23.5 104t-74.5 31q-27 0 -51 -10.5t-42 -32t-28.5 -54t-10.5 -75.5v-310h-100v347q0 73 -23 104t-74 31q-55 0 -93 -42.5t-38 -129.5v-310h-100v560h85l8 -74h3q25 38 63 62t100 24q31 0 56 -8.5t44 -22.5
t31.5 -31.5t19.5 -35.5h3q9 19 24.5 36.5t37 31t49.5 22t62 8.5z" />
    <glyph glyph-name="n" unicode="n" horiz-adv-x="588" 
d="M342 572q48 0 83 -17t58 -45t34 -64.5t11 -76.5v-369h-100v347q0 63 -25 99t-88 36q-31 0 -57.5 -12t-46 -36t-30.5 -59.5t-11 -81.5v-293h-100v560h85l8 -74h3q28 39 70.5 62.5t105.5 23.5z" />
    <glyph glyph-name="o" unicode="o" horiz-adv-x="610" 
d="M305 572q54 0 102 -22.5t84.5 -62.5t57.5 -93.5t21 -115.5t-17 -115t-50.5 -92t-83 -61t-114.5 -22t-114.5 22t-83 61t-50.5 92t-17 115t21 115.5t57.5 93.5t84.5 62.5t102 22.5zM305 482q-38 0 -68.5 -17t-52 -45.5t-33 -65t-11.5 -76.5q0 -89 42.5 -142.5t122.5 -53.5
t122.5 53.5t42.5 142.5q0 40 -11.5 76.5t-33 65t-52 45.5t-68.5 17z" />
    <glyph glyph-name="p" unicode="p" horiz-adv-x="614" 
d="M332 572q51 0 95 -22t76.5 -61.5t51.5 -93t19 -116.5t-16 -116.5t-46.5 -92t-76 -60.5t-103.5 -22t-97 22t-62 54h-3v-249h-100v745h87l9 -74h3q21 35 63 60.5t100 25.5zM322 482q-38 0 -67.5 -15.5t-49.5 -43t-30 -65.5t-10 -83q0 -43 11 -78.5t31.5 -61t49.5 -39.5
t66 -14q39 0 67.5 14.5t47 41t27.5 62.5t9 79t-9.5 80t-28.5 64.5t-47.5 43t-66.5 15.5z" />
    <glyph glyph-name="q" unicode="q" horiz-adv-x="614" 
d="M282 572q58 0 100 -25.5t63 -60.5h3l9 74h87v-745h-100v249h-3q-23 -32 -62 -54t-97 -22q-59 0 -104 22t-75.5 60.5t-46.5 92t-16 116.5t19 116.5t51.5 93t76.5 61.5t95 22zM292 482q-38 0 -66.5 -15.5t-47.5 -43t-28.5 -64.5t-9.5 -80t9 -79t27.5 -62.5t47 -41
t67.5 -14.5q37 0 66 14t49.5 39.5t31.5 61t11 78.5q0 45 -10 83t-30 65.5t-49.5 43t-67.5 15.5z" />
    <glyph glyph-name="r" unicode="r" horiz-adv-x="387" 
d="M281 572q31 0 55.5 -11t35.5 -24l-19 -106h-5q-14 15 -36 25.5t-48 10.5q-45 0 -69.5 -40t-24.5 -113v-314h-100v560h87l9 -74h3q9 24 21.5 40.5t27.5 26.5t31.5 14.5t31.5 4.5z" />
    <glyph glyph-name="s" unicode="s" horiz-adv-x="524" 
d="M248 572q44 0 80 -11t63.5 -27t47.5 -34.5t31 -34.5l-50 -84h-5q-12 19 -29.5 37t-39 32t-47 23t-53.5 9q-45 0 -68.5 -22t-23.5 -48q0 -12 3 -22.5t17.5 -21t44.5 -22.5t83 -26q46 -12 80.5 -27t57 -35t33.5 -47t11 -63t-15 -65.5t-41.5 -50.5t-63.5 -32.5t-82 -11.5
q-44 0 -81.5 10t-68.5 26.5t-54.5 37t-37.5 40.5l51 89h5q14 -22 33 -42.5t42 -36t50 -24.5t57 -9q60 0 85.5 19t25.5 50q0 14 -4.5 25.5t-21 23t-49 23.5t-88.5 27q-87 23 -128.5 60.5t-41.5 102.5q0 31 12.5 60.5t37 52t60.5 36t82 13.5z" />
    <glyph glyph-name="t" unicode="t" horiz-adv-x="404" 
d="M214 560h165v-90h-165v-334q0 -28 12 -39.5t32 -11.5t38 9.5t28 15.5h5l24 -92q-17 -11 -48.5 -20.5t-61.5 -9.5q-24 0 -47.5 7t-41.5 22t-29 38t-11 55v360h-89v58q54 24 84.5 68.5t46.5 103.5h58v-140z" />
    <glyph glyph-name="u" unicode="u" horiz-adv-x="569" 
d="M499 0h-86l-12 74h-3q-20 -37 -59 -61.5t-102 -24.5q-46 0 -79.5 15t-55 42t-32 64t-10.5 82v369h100v-356q0 -58 21 -91.5t77 -33.5q28 0 54 11t45 32.5t30.5 54t11.5 74.5v309h100v-560z" />
    <glyph glyph-name="v" unicode="v" horiz-adv-x="554" 
d="M344 0h-135l-194 560h102l158 -468h2l159 468h103z" />
    <glyph glyph-name="w" unicode="w" horiz-adv-x="832" 
d="M672 0h-135l-120 465h-2l-120 -465h-135l-135 560h106l96 -459h2l118 459h138l118 -459h2l96 459h106z" />
    <glyph glyph-name="x" unicode="x" horiz-adv-x="511" 
d="M323 285l169 -285h-117l-122 222l-121 -222h-117l169 283l-163 277h117l115 -216l126 216h117z" />
    <glyph glyph-name="y" unicode="y" horiz-adv-x="530" 
d="M254 -185h-115l77 219l-196 526h110l140 -415h2l128 415h110z" />
    <glyph glyph-name="z" unicode="z" horiz-adv-x="503" 
d="M443 454l-281 -363h281v-91h-383v106l281 364h-281v90h383v-106z" />
    <glyph glyph-name="braceleft" unicode="{" horiz-adv-x="345" 
d="M315 688h-39q-14 0 -25 -8.5t-11 -37.5v-268q0 -43 -15 -62t-44 -30v-1q59 -24 59 -92v-275q0 -29 11 -37.5t25 -8.5h39v-90h-58q-24 0 -44.5 5t-35.5 18.5t-23 37t-8 59.5v275q0 38 -16.5 51t-59.5 13v90q44 0 60 12.5t16 50.5v268q0 36 8 59t23 36.5t35.5 19t44.5 5.5
h58v-90z" />
    <glyph glyph-name="bar" unicode="|" horiz-adv-x="289" 
d="M189 -252h-89v1044h89v-1044z" />
    <glyph glyph-name="braceright" unicode="}" horiz-adv-x="345" 
d="M30.0195 688h38.9971q13.999 0 24.999 -8.5q10.999 -8.5 10.999 -37.5v-268q0 -43 14.999 -62t43.9971 -30v-1q-58.9961 -24 -58.9961 -92v-275q0 -29 -10.999 -37.5q-11 -8.5 -24.999 -8.5h-38.9971v-90h57.9961q23.999 0 44.4971 5q20.499 5 35.498 18.5t22.999 37
q7.99902 23.5 7.99902 59.5v275q0 38 16.499 51t59.4961 13v90q-43.9971 0 -59.9961 12.5t-15.999 50.5v268q0 36 -7.99902 59q-8 23 -22.999 36.5t-35.498 19q-20.498 5.5 -44.4971 5.5h-57.9961v-90z" />
    <glyph glyph-name="asciitilde" unicode="~" horiz-adv-x="582" 
d="M50 364q9 16 21.5 31t29 27t37.5 19.5t48 7.5q29 0 57.5 -13t61.5 -28q28 -13 51.5 -23t45.5 -10q18 0 31.5 7.5t24.5 19t19.5 25.5t14.5 27h5l35 -86q-9 -16 -21.5 -31t-29 -27t-37.5 -19.5t-48 -7.5q-32 0 -57.5 13t-55.5 27q-28 14 -51 24t-52 10q-18 0 -31.5 -7.5
t-24.5 -19t-19.5 -25.5t-14.5 -27h-5z" />
    <glyph glyph-name="uni00A0" unicode="&#xa0;" horiz-adv-x="250" 
 />
    <glyph glyph-name="exclamdown" unicode="&#xa1;" horiz-adv-x="317" 
d="M220 73.0293l-20 279.983h-83l-20 -279.983v-211.986h123v211.986zM159 410.009q38 0 58 21.999t20 56.9961q0 34.998 -20 56.4971t-58 21.499t-58.5 -21.499t-20.5 -56.4971q0 -34.9971 20.5 -56.9961t58.5 -21.999z" />
    <glyph glyph-name="cent" unicode="&#xa2;" horiz-adv-x="638" 
d="M377 569q37 -6 67.5 -20t54.5 -32t40 -38.5t25 -39.5l-64 -75h-5q-14 42 -43.5 72t-74.5 41v-391q55 11 86 48.5t43 84.5h5l77 -68q-26 -64 -77.5 -107.5t-133.5 -52.5v-103h-90v103q-57 7 -99.5 32t-71 63t-42.5 87t-14 105q0 55 17 104t47.5 87t72 63.5t90.5 34.5v85
h90v-83zM287 475q-31 -9 -54.5 -28.5t-39.5 -45.5t-24.5 -58t-8.5 -65q0 -76 31.5 -126.5t95.5 -64.5v388z" />
    <glyph glyph-name="sterling" unicode="&#xa3;" horiz-adv-x="616" 
d="M320 712q49 0 87 -13t66.5 -34t48.5 -47.5t33 -54.5l-67 -71h-5q-13 27 -28.5 50.5t-35 41t-44 28t-55.5 10.5q-47 0 -78 -26t-31 -74q0 -37 13.5 -72.5t27.5 -67.5h227v-90h-199q5 -22 5 -39q0 -33 -7.5 -57.5t-18.5 -42.5t-24 -31l-24 -24l2 -2q10 5 23 9q11 3 26.5 6
t35.5 3q39 0 75 -10.5t73 -10.5q20 0 44.5 10.5t39.5 26.5h5l41 -96q-34 -23 -68.5 -33.5t-77.5 -10.5q-24 0 -43.5 6t-38 12.5t-37.5 12.5t-40 6q-43 0 -70 -13.5t-50 -27.5l-64 96q49 32 75.5 71.5t26.5 104.5q0 8 -1 16.5t-3 17.5h-105v90h70q-15 33 -29 70t-14 82
q0 34 13.5 66.5t40.5 57t67 39.5t92 15z" />
    <glyph glyph-name="currency" unicode="&#xa4;" horiz-adv-x="669" 
d="M589 543l-64 -64q22 -32 34 -69.5t12 -80.5q0 -44 -12 -82t-35 -69l65 -64l-40 -40l-64 63q-30 -24 -68 -37.5t-83 -13.5t-83 13.5t-67 38.5l-64 -64l-40 40l65 65q-23 31 -35 69t-12 81q0 42 12 79.5t35 69.5l-65 65l40 40l63 -64q31 26 69 41.5t82 15.5q45 0 84 -14.5
t69 -40.5l62 62zM335 484q-25 0 -49 -9.5t-43 -28.5t-31 -48.5t-12 -69.5t12 -69t31 -47.5t43 -27.5t49 -9q24 0 47.5 9t42.5 27.5t30.5 47.5t11.5 69t-11.5 69.5t-30.5 48.5t-42.5 28.5t-47.5 9.5z" />
    <glyph glyph-name="yen" unicode="&#xa5;" horiz-adv-x="641" 
d="M413 347h154v-94h-196v-66h196v-94h-196v-93h-101v93h-196v94h196v66h-196v94h153l-177 353h118l152 -325l153 325h118z" />
    <glyph glyph-name="brokenbar" unicode="&#xa6;" horiz-adv-x="289" 
d="M189 -252h-89v457h89v-457zM189 375h-89v417h89v-417z" />
    <glyph glyph-name="section" unicode="&#xa7;" horiz-adv-x="589" 
d="M284 712q44 0 80 -11.5t63.5 -28.5t46 -36t28.5 -35l-48 -81h-5q-28 44 -69.5 73t-98.5 29q-25 0 -42 -6.5t-28 -16t-16 -21t-5 -21.5q0 -16 7.5 -30t24.5 -29t46 -33t71 -42q49 -29 86.5 -52.5t62.5 -47t38 -49t13 -56.5q0 -43 -29 -78t-78 -55q35 -29 50 -58t15 -69
q0 -28 -11 -55.5t-34.5 -49.5t-60 -35.5t-86.5 -13.5q-44 0 -80 11.5t-63.5 28.5t-46 36t-28.5 35l48 81h5q28 -42 69.5 -72t98.5 -30q25 0 42 6.5t28 16t16 21t5 21.5q0 16 -7.5 30t-24.5 29t-46 33t-71 42q-49 28 -86.5 52t-62.5 47.5t-38 48.5t-13 57q0 43 28.5 77.5
t78.5 54.5q-36 29 -50.5 58.5t-14.5 69.5q0 28 11 55.5t34.5 49.5t60 35.5t86.5 13.5zM218 387q-31 -11 -52 -33t-21 -48q0 -17 6 -29.5t29 -30t67.5 -45t122.5 -73.5q32 11 53 33.5t21 48.5q0 18 -5.5 31t-28 30t-68 44t-124.5 72z" />
    <glyph glyph-name="dieresis" unicode="&#xa8;" horiz-adv-x="425" 
d="M112 741q29 0 45 -16.5t16 -44.5t-16 -44.5t-45 -16.5q-30 0 -46 16.5t-16 44.5t16 44.5t46 16.5zM314 741q29 0 45 -16.5t16 -44.5t-16 -44.5t-45 -16.5q-30 0 -46 16.5t-16 44.5t16 44.5t46 16.5z" />
    <glyph glyph-name="copyright" unicode="&#xa9;" horiz-adv-x="824" 
d="M411 712q81 0 148 -28.5t114.5 -78t74 -115.5t26.5 -141t-26.5 -140.5t-74 -114.5t-114.5 -77.5t-148 -28.5t-147.5 28.5t-114 77.5t-73.5 114.5t-26 140.5t26 141t73.5 115.5t114 78t147.5 28.5zM418 563q31 0 57 -9t46 -23.5t34.5 -31.5t21.5 -32l-51 -61h-5
q-12 35 -38 60.5t-65 25.5q-27 0 -48 -12t-35.5 -31.5t-22 -45t-7.5 -53.5q0 -61 28 -98.5t85 -37.5q24 0 42.5 8.5t32 22t22.5 31t14 36.5h5l60 -54q-21 -51 -64.5 -84.5t-111.5 -33.5q-47 0 -83 16t-60 44.5t-36.5 66.5t-12.5 83t15.5 84t41.5 67.5t61 45t74 16.5z
M411 637q-65 0 -117 -23t-88.5 -62t-56 -91.5t-19.5 -111.5t19.5 -111t56 -91t88.5 -61.5t117 -22.5t117.5 22.5t89 61.5t56.5 91t20 111t-20 111.5t-56.5 91.5t-89 62t-117.5 23z" />
    <glyph glyph-name="ordfeminine" unicode="&#xaa;" horiz-adv-x="327" 
d="M160 706q24 0 47.5 -6t42 -20t30.5 -37.5t12 -58.5v-220h-61l-8 44h-2q-15 -24 -40 -37t-57 -13q-51 0 -77.5 24.5t-26.5 66.5q0 43 25.5 68t83.5 38q29 6 46.5 11t26.5 10t11.5 11t2.5 14q0 16 -13.5 25.5t-43.5 9.5t-54.5 -17t-42.5 -44h-4l-35 61q21 32 56.5 51
t80.5 19zM216 528q-5 -8 -20.5 -15t-47.5 -14q-31 -7 -42 -17t-11 -26q0 -29 36 -29q14 0 29 3.5t28 10.5t21 17.5t8 24.5v45h-1z" />
    <glyph glyph-name="guillemotleft" unicode="&#xab;" horiz-adv-x="475" 
d="M329 277l96 -208h-90l-111 208l111 208h90zM155 277l96 -208h-90l-111 208l111 208h90z" />
    <glyph glyph-name="logicalnot" unicode="&#xac;" horiz-adv-x="595" 
d="M545 170h-90v205h-405v90h495v-295z" />
    <glyph glyph-name="uni00AD" unicode="&#xad;" horiz-adv-x="395" 
d="M345 270h-295v90h295v-90z" />
    <glyph glyph-name="registered" unicode="&#xae;" horiz-adv-x="824" 
d="M411 712q81 0 148 -28.5t114.5 -78t74 -115.5t26.5 -141t-26.5 -140.5t-74 -114.5t-114.5 -77.5t-148 -28.5t-147.5 28.5t-114 77.5t-73.5 114.5t-26 140.5t26 141t73.5 115.5t114 78t147.5 28.5zM411 637q-65 0 -117 -23t-88.5 -62t-56 -91.5t-19.5 -111.5t19.5 -111
t56 -91t88.5 -61.5t117 -22.5t117.5 22.5t89 61.5t56.5 91t20 111t-20 111.5t-56.5 91.5t-89 62t-117.5 23zM431 557q66 0 103 -30t37 -85q0 -63 -32.5 -94t-83.5 -38l106 -164h-82l-101 162h-13v-162h-76v411h142zM365 489v-112h47q84 0 84 58q0 24 -15.5 39t-59.5 15h-56z
" />
    <glyph glyph-name="macron" unicode="&#xaf;" horiz-adv-x="400" 
d="M350 625h-300v85h300v-85z" />
    <glyph glyph-name="degree" unicode="&#xb0;" horiz-adv-x="424" 
d="M212 756q36 0 66 -12.5t51.5 -34.5t33 -51.5t11.5 -63.5t-11.5 -63.5t-32.5 -51.5t-51 -34.5t-67 -12.5t-67 12.5t-51 34.5t-32.5 51.5t-11.5 63.5t11.5 63.5t33 51.5t51.5 34.5t66 12.5zM212 671q-34 0 -53 -21.5t-19 -55.5t19 -55.5t53 -21.5t53 21.5t19 55.5t-19 55.5
t-53 21.5z" />
    <glyph glyph-name="plusminus" unicode="&#xb1;" horiz-adv-x="585" 
d="M340 475h195v-90h-195v-185h-95v185h-195v90h195v175h95v-175zM515 61h-445v90h445v-90z" />
    <glyph glyph-name="acute" unicode="&#xb4;" horiz-adv-x="309" 
d="M153 625h-103l65 117h144z" />
    <glyph glyph-name="paragraph" unicode="&#xb6;" horiz-adv-x="648" 
d="M548 -113h-94v737h-113v-737h-94v452q-102 0 -159.5 48.5t-57.5 128.5q0 52 17.5 87t49 56.5t75.5 31t96 9.5h280v-813z" />
    <glyph glyph-name="periodcentered" unicode="&#xb7;" horiz-adv-x="233" 
d="M117 466q32 0 49 -18.5t17 -47.5t-17 -47.5t-49 -18.5t-49.5 18.5t-17.5 47.5t17.5 47.5t49.5 18.5z" />
    <glyph glyph-name="cedilla" unicode="&#xb8;" horiz-adv-x="337" 
d="M122 -74l1 -1q29 16 70 16q36 0 60 -21t24 -66t-30.5 -70.5t-84.5 -25.5q-44 0 -69.5 10t-39.5 21l16 58h5q11 -11 31.5 -19.5t41.5 -8.5t35 9t14 27q0 19 -14.5 28.5t-34.5 9.5q-17 0 -29.5 -4t-22.5 -11l-34 24l55 98h52z" />
    <glyph glyph-name="ordmasculine" unicode="&#xba;" horiz-adv-x="360" 
d="M180 706q32 0 61 -13.5t51 -37t35 -55.5t13 -69t-10.5 -68.5t-31 -55t-50 -36.5t-68.5 -13t-68.5 13t-50 36.5t-31 55t-10.5 68.5t13 69t35 55.5t51 37t61 13.5zM180 636q-21 0 -36.5 -9t-26.5 -23.5t-16.5 -33.5t-5.5 -39q0 -46 21 -73.5t64 -27.5t64 27.5t21 73.5
q0 20 -5.5 39t-16.5 33.5t-26.5 23.5t-36.5 9z" />
    <glyph glyph-name="guillemotright" unicode="&#xbb;" horiz-adv-x="475" 
d="M146.021 277l-95.9941 -208h89.9941l110.993 208l-110.993 208h-89.9941zM320.01 277l-95.9941 -208h89.9941l110.993 208l-110.993 208h-89.9941z" />
    <glyph glyph-name="onequarter" unicode="&#xbc;" horiz-adv-x="826" 
d="M221 280h-78v313h-2l-73 -80l-53 55l126 132h80v-420zM648 700l-419 -747l-73 44l419 747zM758 145h48v-70h-46v-74h-79v74h-203v64l154 282h126v-276zM678 363l-120 -218h123v218h-3z" />
    <glyph glyph-name="onehalf" unicode="&#xbd;" horiz-adv-x="866" 
d="M221 280h-78v313h-2l-73 -80l-53 55l126 132h80v-420zM648 700l-419 -747l-73 44l419 747zM686 427q32 0 58.5 -10t45 -27t28.5 -40t10 -49q0 -27 -10.5 -51t-29.5 -47t-44.5 -47.5t-56.5 -52.5l-27 -25l171 -1v-76h-282v76l83 72q58 49 87 82.5t29 65.5q0 26 -17.5 42
t-46.5 16q-18 0 -33.5 -8t-28 -21.5t-22 -30t-16.5 -33.5h-3l-53 55q7 18 19.5 37t32 35.5t45.5 27t61 10.5z" />
    <glyph glyph-name="threequarters" unicode="&#xbe;" horiz-adv-x="904" 
d="M326 633l-127 -94l1 -1q5 1 16 1q22 0 44.5 -7t40.5 -22.5t29 -40t11 -58.5q0 -33 -12 -58.5t-33 -43t-48.5 -26.5t-58.5 -9q-33 0 -59.5 8t-46.5 20.5t-34.5 28t-23.5 30.5l41 64h3q16 -30 44 -54.5t72 -24.5q38 0 59 19t21 54t-22 54t-64 19q-15 0 -30 -3t-25 -8
l-33 50l130 98v2h-165v69h270v-67zM726 700l-419 -747l-73 44l419 747zM836 145h48v-70h-46v-74h-79v74h-203v64l154 282h126v-276zM756 363l-120 -218h123v218h-3z" />
    <glyph glyph-name="questiondown" unicode="&#xbf;" horiz-adv-x="520" 
d="M244.017 -150.957q-39.9971 0 -73.4951 11q-33.498 10.999 -56.4971 30.998q-22.998 19.999 -35.9971 48.4971q-13 28.498 -13 62.4961q0 30.998 8.5 52.4971q8.49902 21.498 25.998 38.4971t42.998 30.998q25.498 13.999 58.4961 28.999q38.998 17.998 61.4961 29.998
q22.499 11.999 33.998 21.498q11.499 9.5 14.499 16.999q3 7.5 3 16.499q0 33.998 -45.9971 33.998q-24.999 0 -55.9971 -16.499t-51.9971 -43.4971h-4.99902l-47.9971 79.9951q9.99902 12.999 26.998 25.998t38.998 23.499q21.998 10.499 47.9971 16.999
q25.998 6.49902 53.9961 6.49902q26.999 0 52.4971 -7.49902q25.498 -7.5 44.9971 -22.999t31.498 -38.4971q11.999 -22.999 11.999 -54.9971q0 -25.998 -7.49902 -46.4971q-7.5 -20.499 -23.999 -37.998q-16.498 -17.499 -42.9971 -33.498
q-26.498 -15.999 -64.4961 -33.9971q-30.998 -15 -52.4971 -24.999q-21.498 -9.99902 -33.9971 -19.499q-12.5 -9.49902 -17.999 -19.498q-5.5 -10 -5.5 -23.999q0 -25.998 19.999 -39.9971q19.999 -14 53.9961 -14q49.9971 0 87.9951 28.999q37.998 28.998 60.9961 65.9951
h5l54.9961 -94.9941q-10.999 -14.999 -29.998 -31.998t-44.9971 -31.998t-58.9961 -24.498q-32.998 -9.5 -71.9961 -9.5zM256.016 409.01q-37.9971 0 -57.9961 21.998q-19.999 21.999 -19.999 56.9971q0 34.9971 19.999 56.4961t57.9961 21.499q37.998 0 58.4971 -21.499
t20.499 -56.4961q0 -34.998 -20.499 -56.9971q-20.499 -21.998 -58.4971 -21.998z" />
    <glyph glyph-name="Agrave" unicode="&#xc0;" horiz-adv-x="676" 
d="M661 0h-113l-65 192h-290l-65 -192h-113l245 700h156zM336 612l-114 -330h232l-114 330h-4zM382 762h-103l-106 117h144z" />
    <glyph glyph-name="Aacute" unicode="&#xc1;" horiz-adv-x="676" 
d="M661 0h-113l-65 192h-290l-65 -192h-113l245 700h156zM336 612l-114 -330h232l-114 330h-4zM389 762h-103l65 117h144z" />
    <glyph glyph-name="Acircumflex" unicode="&#xc2;" horiz-adv-x="676" 
d="M661 0h-113l-65 192h-290l-65 -192h-113l245 700h156zM336 612l-114 -330h232l-114 330h-4zM496 762h-106l-51 79h-3l-51 -79h-106l86 117h145z" />
    <glyph glyph-name="Atilde" unicode="&#xc3;" horiz-adv-x="676" 
d="M661 0h-113l-65 192h-290l-65 -192h-113l245 700h156zM336 612l-114 -330h232l-114 330h-4zM282 886q21 0 37 -6t29.5 -13t25.5 -13t25 -6q16 0 24 8.5t12 24.5h52q-4 -24 -10.5 -46.5t-17.5 -39.5t-27 -27.5t-38 -10.5q-21 0 -37 6t-30 13l-26 13t-25 6q-28 0 -36 -33
h-51q3 24 9.5 46.5t17.5 39.5t27 27.5t39 10.5z" />
    <glyph glyph-name="Adieresis" unicode="&#xc4;" horiz-adv-x="676" 
d="M661 0h-113l-65 192h-290l-65 -192h-113l245 700h156zM336 612l-114 -330h232l-114 330h-4zM237 878q29 0 45 -16.5t16 -44.5t-16 -44.5t-45 -16.5q-30 0 -46 16.5t-16 44.5t16 44.5t46 16.5zM439 878q29 0 45 -16.5t16 -44.5t-16 -44.5t-45 -16.5q-30 0 -46 16.5
t-16 44.5t16 44.5t46 16.5z" />
    <glyph glyph-name="Aring" unicode="&#xc5;" horiz-adv-x="676" 
d="M661 0h-113l-65 192h-290l-65 -192h-113l245 700h156zM336 612l-114 -330h232l-114 330h-4zM338 959q24 0 44.5 -9t35.5 -24t23.5 -35.5t8.5 -43.5t-9 -43.5t-24 -35.5t-35.5 -24t-43.5 -9t-43.5 8.5t-35.5 23.5t-24 35.5t-9 44.5q0 48 32 80t80 32zM338 890
q-18 0 -30.5 -12.5t-12.5 -30.5t12.5 -30.5t30.5 -12.5t30.5 12.5t12.5 30.5t-12.5 30.5t-30.5 12.5z" />
    <glyph glyph-name="AE" unicode="&#xc6;" horiz-adv-x="896" 
d="M836 605h-268v-207h268v-90h-268v-213h268v-95h-368v192h-255l-100 -192h-113l367 700h469v-95zM425 605l-165 -323h208v323h-43z" />
    <glyph glyph-name="Ccedilla" unicode="&#xc7;" horiz-adv-x="661" 
d="M359 712q55 0 98.5 -16t76 -41.5t55 -56.5t34.5 -61l-76 -73h-5q-13 34 -30 62t-39 48t-50.5 31.5t-63.5 11.5q-49 0 -88 -22.5t-66 -59t-41 -84t-14 -98.5q0 -58 13.5 -107t40 -84.5t65.5 -55.5t90 -20q36 0 68 13.5t57 38t42.5 58.5t25.5 76h5l89 -70
q-14 -48 -40.5 -87t-63.5 -67.5t-83.5 -44t-99.5 -15.5q-76 0 -134.5 27t-98.5 75.5t-60.5 115.5t-20.5 147q0 70 22.5 135t63.5 115t99 79.5t129 29.5zM309 -74l1 -1q29 16 70 16q36 0 60 -21t24 -66t-30.5 -70.5t-84.5 -25.5q-44 0 -69.5 10t-39.5 21l16 58h5
q11 -11 31.5 -19.5t41.5 -8.5t35 9t14 27q0 19 -14.5 28.5t-34.5 9.5q-17 0 -29.5 -4t-22.5 -11l-34 24l55 98h52z" />
    <glyph glyph-name="Egrave" unicode="&#xc8;" horiz-adv-x="563" 
d="M503 605h-318v-207h318v-90h-318v-213h318v-95h-423v700h423v-95zM341 762h-103l-106 117h144z" />
    <glyph glyph-name="Eacute" unicode="&#xc9;" horiz-adv-x="563" 
d="M503 605h-318v-207h318v-90h-318v-213h318v-95h-423v700h423v-95zM348 762h-103l65 117h144z" />
    <glyph glyph-name="Ecircumflex" unicode="&#xca;" horiz-adv-x="563" 
d="M503 605h-318v-207h318v-90h-318v-213h318v-95h-423v700h423v-95zM455 762h-106l-51 79h-3l-51 -79h-106l86 117h145z" />
    <glyph glyph-name="Edieresis" unicode="&#xcb;" horiz-adv-x="563" 
d="M503 605h-318v-207h318v-90h-318v-213h318v-95h-423v700h423v-95zM196 878q29 0 45 -16.5t16 -44.5t-16 -44.5t-45 -16.5q-30 0 -46 16.5t-16 44.5t16 44.5t46 16.5zM398 878q29 0 45 -16.5t16 -44.5t-16 -44.5t-45 -16.5q-30 0 -46 16.5t-16 44.5t16 44.5t46 16.5z" />
    <glyph glyph-name="Igrave" unicode="&#xcc;" horiz-adv-x="265" 
d="M185 0h-105v700h105v-700zM178 762h-103l-106 117h144z" />
    <glyph glyph-name="Iacute" unicode="&#xcd;" horiz-adv-x="265" 
d="M185 0h-105v700h105v-700zM184 762h-103l65 117h144z" />
    <glyph glyph-name="Icircumflex" unicode="&#xce;" horiz-adv-x="265" 
d="M185 0h-105v700h105v-700zM292 762h-106l-51 79h-3l-51 -79h-106l86 117h145z" />
    <glyph glyph-name="Idieresis" unicode="&#xcf;" horiz-adv-x="265" 
d="M185 0h-105v700h105v-700zM33 878q29 0 45 -16.5t16 -44.5t-16 -44.5t-45 -16.5q-30 0 -46 16.5t-16 44.5t16 44.5t46 16.5zM235 878q29 0 45 -16.5t16 -44.5t-16 -44.5t-45 -16.5q-30 0 -46 16.5t-16 44.5t16 44.5t46 16.5z" />
    <glyph glyph-name="Eth" unicode="&#xd0;" horiz-adv-x="715" 
d="M342 700q73 0 133 -20t102 -62.5t65 -108t23 -156.5t-22.5 -157.5t-64.5 -110t-101.5 -64.5t-134.5 -21h-242v310h-85v90h85v300h242zM205 605v-205h160v-90h-160v-215h149q101 0 153.5 68.5t52.5 189.5t-49 186.5t-157 65.5h-149z" />
    <glyph glyph-name="Ntilde" unicode="&#xd1;" horiz-adv-x="724" 
d="M644 0h-171l-286 603h-2v-603h-105v700h171l286 -603h2v603h105v-700zM311 886q21 0 37 -6t29.5 -13t25.5 -13t25 -6q16 0 24 8.5t12 24.5h52q-4 -24 -10.5 -46.5t-17.5 -39.5t-27 -27.5t-38 -10.5q-21 0 -37 6t-30 13l-26 13t-25 6q-28 0 -36 -33h-51q3 24 9.5 46.5
t17.5 39.5t27 27.5t39 10.5z" />
    <glyph glyph-name="Ograve" unicode="&#xd2;" horiz-adv-x="718" 
d="M359 712q71 0 129 -29.5t99 -79.5t63.5 -115t22.5 -135q0 -80 -20.5 -147t-60.5 -115.5t-98.5 -75.5t-134.5 -27t-134.5 27t-98.5 75.5t-60.5 115.5t-20.5 147q0 70 22.5 135t63.5 115t99 79.5t129 29.5zM359 620q-51 0 -90 -22.5t-65.5 -60t-40 -85.5t-13.5 -99
q0 -58 13.5 -107t40 -84.5t65.5 -55.5t90 -20t90 19.5t65.5 55t40 84.5t13.5 108q0 51 -13.5 99.5t-40 85.5t-65.5 59.5t-90 22.5zM403 762h-103l-106 117h144z" />
    <glyph glyph-name="Oacute" unicode="&#xd3;" horiz-adv-x="718" 
d="M359 712q71 0 129 -29.5t99 -79.5t63.5 -115t22.5 -135q0 -80 -20.5 -147t-60.5 -115.5t-98.5 -75.5t-134.5 -27t-134.5 27t-98.5 75.5t-60.5 115.5t-20.5 147q0 70 22.5 135t63.5 115t99 79.5t129 29.5zM359 620q-51 0 -90 -22.5t-65.5 -60t-40 -85.5t-13.5 -99
q0 -58 13.5 -107t40 -84.5t65.5 -55.5t90 -20t90 19.5t65.5 55t40 84.5t13.5 108q0 51 -13.5 99.5t-40 85.5t-65.5 59.5t-90 22.5zM410 762h-103l65 117h144z" />
    <glyph glyph-name="Ocircumflex" unicode="&#xd4;" horiz-adv-x="718" 
d="M359 712q71 0 129 -29.5t99 -79.5t63.5 -115t22.5 -135q0 -80 -20.5 -147t-60.5 -115.5t-98.5 -75.5t-134.5 -27t-134.5 27t-98.5 75.5t-60.5 115.5t-20.5 147q0 70 22.5 135t63.5 115t99 79.5t129 29.5zM359 620q-51 0 -90 -22.5t-65.5 -60t-40 -85.5t-13.5 -99
q0 -58 13.5 -107t40 -84.5t65.5 -55.5t90 -20t90 19.5t65.5 55t40 84.5t13.5 108q0 51 -13.5 99.5t-40 85.5t-65.5 59.5t-90 22.5zM517 762h-106l-51 79h-3l-51 -79h-106l86 117h145z" />
    <glyph glyph-name="Otilde" unicode="&#xd5;" horiz-adv-x="718" 
d="M359 712q71 0 129 -29.5t99 -79.5t63.5 -115t22.5 -135q0 -80 -20.5 -147t-60.5 -115.5t-98.5 -75.5t-134.5 -27t-134.5 27t-98.5 75.5t-60.5 115.5t-20.5 147q0 70 22.5 135t63.5 115t99 79.5t129 29.5zM359 620q-51 0 -90 -22.5t-65.5 -60t-40 -85.5t-13.5 -99
q0 -58 13.5 -107t40 -84.5t65.5 -55.5t90 -20t90 19.5t65.5 55t40 84.5t13.5 108q0 51 -13.5 99.5t-40 85.5t-65.5 59.5t-90 22.5zM303 886q21 0 37 -6t29.5 -13t25.5 -13t25 -6q16 0 24 8.5t12 24.5h52q-4 -24 -10.5 -46.5t-17.5 -39.5t-27 -27.5t-38 -10.5q-21 0 -37 6
t-30 13l-26 13t-25 6q-28 0 -36 -33h-51q3 24 9.5 46.5t17.5 39.5t27 27.5t39 10.5z" />
    <glyph glyph-name="Odieresis" unicode="&#xd6;" horiz-adv-x="718" 
d="M359 712q71 0 129 -29.5t99 -79.5t63.5 -115t22.5 -135q0 -80 -20.5 -147t-60.5 -115.5t-98.5 -75.5t-134.5 -27t-134.5 27t-98.5 75.5t-60.5 115.5t-20.5 147q0 70 22.5 135t63.5 115t99 79.5t129 29.5zM359 620q-51 0 -90 -22.5t-65.5 -60t-40 -85.5t-13.5 -99
q0 -58 13.5 -107t40 -84.5t65.5 -55.5t90 -20t90 19.5t65.5 55t40 84.5t13.5 108q0 51 -13.5 99.5t-40 85.5t-65.5 59.5t-90 22.5zM258 878q29 0 45 -16.5t16 -44.5t-16 -44.5t-45 -16.5q-30 0 -46 16.5t-16 44.5t16 44.5t46 16.5zM460 878q29 0 45 -16.5t16 -44.5
t-16 -44.5t-45 -16.5q-30 0 -46 16.5t-16 44.5t16 44.5t46 16.5z" />
    <glyph glyph-name="multiply" unicode="&#xd7;" horiz-adv-x="548" 
d="M498 522l-167 -166l167 -166l-58 -59l-166 167l-166 -167l-58 59l166 166l-166 166l58 59l166 -167l166 167z" />
    <glyph glyph-name="Oslash" unicode="&#xd8;" horiz-adv-x="718" 
d="M84 32l41 59q-40 49 -60 115t-20 147q0 70 22.5 135t63.5 115t99 79.5t129 29.5q45 0 85 -12.5t75 -35.5l37 54l75 -51l-44 -64q42 -51 64 -115t22 -135q0 -80 -20.5 -147t-60.5 -115.5t-98.5 -75.5t-134.5 -27q-95 0 -166 43l-34 -50zM359 620q-51 0 -90 -22.5
t-65.5 -60t-40 -85.5t-13.5 -99q0 -50 9.5 -92.5t29.5 -76.5l276 403q-22 15 -48.5 24t-57.5 9zM251 116q45 -30 108 -30q51 0 90 19.5t65.5 55t40 84.5t13.5 108q0 45 -10.5 87t-30.5 77z" />
    <glyph glyph-name="Ugrave" unicode="&#xd9;" horiz-adv-x="683" 
d="M613 258q0 -60 -16.5 -109.5t-49.5 -85.5t-84 -55.5t-120 -19.5t-120.5 19.5t-85 55.5t-50.5 85.5t-17 109.5v442h105v-436q0 -90 42.5 -135.5t125.5 -45.5q165 0 165 181v436h105v-442zM386 762h-103l-106 117h144z" />
    <glyph glyph-name="Uacute" unicode="&#xda;" horiz-adv-x="683" 
d="M613 258q0 -60 -16.5 -109.5t-49.5 -85.5t-84 -55.5t-120 -19.5t-120.5 19.5t-85 55.5t-50.5 85.5t-17 109.5v442h105v-436q0 -90 42.5 -135.5t125.5 -45.5q165 0 165 181v436h105v-442zM393 762h-103l65 117h144z" />
    <glyph glyph-name="Ucircumflex" unicode="&#xdb;" horiz-adv-x="683" 
d="M613 258q0 -60 -16.5 -109.5t-49.5 -85.5t-84 -55.5t-120 -19.5t-120.5 19.5t-85 55.5t-50.5 85.5t-17 109.5v442h105v-436q0 -90 42.5 -135.5t125.5 -45.5q165 0 165 181v436h105v-442zM500 762h-106l-51 79h-3l-51 -79h-106l86 117h145z" />
    <glyph glyph-name="Udieresis" unicode="&#xdc;" horiz-adv-x="683" 
d="M613 258q0 -60 -16.5 -109.5t-49.5 -85.5t-84 -55.5t-120 -19.5t-120.5 19.5t-85 55.5t-50.5 85.5t-17 109.5v442h105v-436q0 -90 42.5 -135.5t125.5 -45.5q165 0 165 181v436h105v-442zM241 878q29 0 45 -16.5t16 -44.5t-16 -44.5t-45 -16.5q-30 0 -46 16.5t-16 44.5
t16 44.5t46 16.5zM443 878q29 0 45 -16.5t16 -44.5t-16 -44.5t-45 -16.5q-30 0 -46 16.5t-16 44.5t16 44.5t46 16.5z" />
    <glyph glyph-name="Yacute" unicode="&#xdd;" horiz-adv-x="561" 
d="M331 263v-263h-101v263l-220 437h118l152 -325l153 325h118zM332 762h-103l65 117h144z" />
    <glyph glyph-name="Thorn" unicode="&#xde;" horiz-adv-x="595" 
d="M185 590h132q57 0 102.5 -13t78 -39.5t50 -67t17.5 -94.5t-19 -94.5t-52 -67.5t-78.5 -40.5t-98.5 -13.5h-132v-160h-105v700h105v-110zM185 495v-240h126q77 0 113 31t36 90q0 58 -31 88.5t-111 30.5h-133z" />
    <glyph glyph-name="germandbls" unicode="&#xdf;" horiz-adv-x="578" 
d="M282 712q51 0 88.5 -15t63 -40.5t38 -58t12.5 -68.5q0 -62 -34 -101t-90 -51v-2q37 -4 67.5 -19t53 -39.5t35 -58t12.5 -73.5q0 -41 -11 -77t-34.5 -63t-60 -42.5t-87.5 -15.5q-34 0 -63.5 6.5t-46.5 14.5l11 92h3q14 -8 35.5 -15.5t50.5 -7.5q22 0 41.5 6t34.5 19
t23.5 34.5t8.5 52.5q0 62 -39.5 95.5t-109.5 33.5h-42v90q75 3 111 33.5t36 76.5q0 51 -29 77t-80 26q-21 0 -41 -6.5t-35.5 -23.5t-24.5 -47t-9 -77v-468h-100v482q0 51 14 93.5t41 73t66.5 47t90.5 16.5z" />
    <glyph glyph-name="agrave" unicode="&#xe0;" horiz-adv-x="531" 
d="M268 572q98 0 150.5 -50t52.5 -131v-391h-82l-12 74h-3q-25 -39 -66 -62.5t-100 -23.5q-80 0 -121.5 41t-41.5 113q0 66 38.5 110t136.5 64q50 10 80 20t45.5 21t20.5 23t5 27q0 34 -25 54.5t-79 20.5t-93.5 -31.5t-66.5 -81.5h-4l-57 84q33 52 90.5 85.5t131.5 33.5z
M369 290q-5 -9 -13 -16t-21.5 -13t-35 -12.5t-52.5 -13.5q-63 -15 -84.5 -37t-21.5 -52q0 -33 23.5 -51t56.5 -18q26 0 53 8.5t48.5 23.5t35 36t13.5 47v98h-2zM311 625h-103l-106 117h144z" />
    <glyph glyph-name="aacute" unicode="&#xe1;" horiz-adv-x="531" 
d="M268 572q98 0 150.5 -50t52.5 -131v-391h-82l-12 74h-3q-25 -39 -66 -62.5t-100 -23.5q-80 0 -121.5 41t-41.5 113q0 66 38.5 110t136.5 64q50 10 80 20t45.5 21t20.5 23t5 27q0 34 -25 54.5t-79 20.5t-93.5 -31.5t-66.5 -81.5h-4l-57 84q33 52 90.5 85.5t131.5 33.5z
M369 290q-5 -9 -13 -16t-21.5 -13t-35 -12.5t-52.5 -13.5q-63 -15 -84.5 -37t-21.5 -52q0 -33 23.5 -51t56.5 -18q26 0 53 8.5t48.5 23.5t35 36t13.5 47v98h-2zM319 625h-103l65 117h144z" />
    <glyph glyph-name="acircumflex" unicode="&#xe2;" horiz-adv-x="531" 
d="M268 572q98 0 150.5 -50t52.5 -131v-391h-82l-12 74h-3q-25 -39 -66 -62.5t-100 -23.5q-80 0 -121.5 41t-41.5 113q0 66 38.5 110t136.5 64q50 10 80 20t45.5 21t20.5 23t5 27q0 34 -25 54.5t-79 20.5t-93.5 -31.5t-66.5 -81.5h-4l-57 84q33 52 90.5 85.5t131.5 33.5z
M369 290q-5 -9 -13 -16t-21.5 -13t-35 -12.5t-52.5 -13.5q-63 -15 -84.5 -37t-21.5 -52q0 -33 23.5 -51t56.5 -18q26 0 53 8.5t48.5 23.5t35 36t13.5 47v98h-2zM426 625h-106l-51 79h-3l-51 -79h-106l86 117h145z" />
    <glyph glyph-name="atilde" unicode="&#xe3;" horiz-adv-x="531" 
d="M268 572q98 0 150.5 -50t52.5 -131v-391h-82l-12 74h-3q-25 -39 -66 -62.5t-100 -23.5q-80 0 -121.5 41t-41.5 113q0 66 38.5 110t136.5 64q50 10 80 20t45.5 21t20.5 23t5 27q0 34 -25 54.5t-79 20.5t-93.5 -31.5t-66.5 -81.5h-4l-57 84q33 52 90.5 85.5t131.5 33.5z
M369 290q-5 -9 -13 -16t-21.5 -13t-35 -12.5t-52.5 -13.5q-63 -15 -84.5 -37t-21.5 -52q0 -33 23.5 -51t56.5 -18q26 0 53 8.5t48.5 23.5t35 36t13.5 47v98h-2zM212 749q21 0 37 -6t29.5 -13t25.5 -13t25 -6q16 0 24 8.5t12 24.5h52q-4 -24 -10.5 -46.5t-17.5 -39.5
t-27 -27.5t-38 -10.5q-21 0 -37 6t-30 13l-26 13t-25 6q-28 0 -36 -33h-51q3 24 9.5 46.5t17.5 39.5t27 27.5t39 10.5z" />
    <glyph glyph-name="adieresis" unicode="&#xe4;" horiz-adv-x="531" 
d="M268 572q98 0 150.5 -50t52.5 -131v-391h-82l-12 74h-3q-25 -39 -66 -62.5t-100 -23.5q-80 0 -121.5 41t-41.5 113q0 66 38.5 110t136.5 64q50 10 80 20t45.5 21t20.5 23t5 27q0 34 -25 54.5t-79 20.5t-93.5 -31.5t-66.5 -81.5h-4l-57 84q33 52 90.5 85.5t131.5 33.5z
M369 290q-5 -9 -13 -16t-21.5 -13t-35 -12.5t-52.5 -13.5q-63 -15 -84.5 -37t-21.5 -52q0 -33 23.5 -51t56.5 -18q26 0 53 8.5t48.5 23.5t35 36t13.5 47v98h-2zM167 741q29 0 45 -16.5t16 -44.5t-16 -44.5t-45 -16.5q-30 0 -46 16.5t-16 44.5t16 44.5t46 16.5zM369 741
q29 0 45 -16.5t16 -44.5t-16 -44.5t-45 -16.5q-30 0 -46 16.5t-16 44.5t16 44.5t46 16.5z" />
    <glyph glyph-name="aring" unicode="&#xe5;" horiz-adv-x="531" 
d="M268 572q98 0 150.5 -50t52.5 -131v-391h-82l-12 74h-3q-25 -39 -66 -62.5t-100 -23.5q-80 0 -121.5 41t-41.5 113q0 66 38.5 110t136.5 64q50 10 80 20t45.5 21t20.5 23t5 27q0 34 -25 54.5t-79 20.5t-93.5 -31.5t-66.5 -81.5h-4l-57 84q33 52 90.5 85.5t131.5 33.5z
M369 290q-5 -9 -13 -16t-21.5 -13t-35 -12.5t-52.5 -13.5q-63 -15 -84.5 -37t-21.5 -52q0 -33 23.5 -51t56.5 -18q26 0 53 8.5t48.5 23.5t35 36t13.5 47v98h-2zM268 822q24 0 44.5 -9t35.5 -24t23.5 -35.5t8.5 -43.5t-9 -43.5t-24 -35.5t-35.5 -24t-43.5 -9t-43.5 8.5
t-35.5 23.5t-24 35.5t-9 44.5q0 48 32 80t80 32zM268 753q-18 0 -30.5 -11.5t-12.5 -31.5q0 -21 12.5 -32t30.5 -11t30.5 11t12.5 32q0 20 -12.5 31.5t-30.5 11.5z" />
    <glyph glyph-name="ae" unicode="&#xe6;" horiz-adv-x="905" 
d="M619 572q52 0 97 -20.5t78 -57.5t52 -89t19 -114q0 -6 -0.5 -13.5t-0.5 -13.5v-15h-405q1 -37 13.5 -68t34.5 -53.5t52 -35.5t68 -13q31 0 57.5 9.5t47.5 24.5t37 32.5t26 33.5h4l43 -93q-14 -18 -35.5 -36t-49 -31.5t-60.5 -22t-70 -8.5q-73 0 -126.5 27.5t-86.5 76.5
q-12 -18 -29.5 -36.5t-42.5 -33.5t-59 -24.5t-79 -9.5q-80 0 -121.5 41t-41.5 113q0 32 9 59t29.5 49t54 38t82.5 26q50 10 80 20.5t45.5 21.5t20.5 23.5t5 27.5q0 34 -25 55.5t-79 21.5q-53 0 -96.5 -32t-69.5 -85h-4l-53 85q34 53 92 86.5t132 33.5q59 0 104.5 -22
t70.5 -63q33 41 79.5 63t100.5 22zM365 291q-5 -9 -12.5 -16t-21.5 -13t-35.5 -12t-53.5 -14t-52.5 -17t-32.5 -19.5t-17 -23.5t-5 -30q0 -38 27.5 -54.5t65.5 -14.5q26 1 51 10.5t44.5 25t31.5 35.5t12 44v99h-2zM619 485q-33 0 -60 -12.5t-47 -33.5t-32.5 -49.5
t-16.5 -59.5h305q-4 69 -43.5 112t-105.5 43z" />
    <glyph glyph-name="ccedilla" unicode="&#xe7;" horiz-adv-x="558" 
d="M305 572q44 0 79.5 -12t62.5 -32t46 -46t30 -53l-70 -69h-5q-17 54 -51.5 88t-91.5 34q-38 0 -68.5 -17t-52 -45.5t-33 -65t-11.5 -76.5q0 -89 42 -142.5t123 -53.5q31 0 56 11.5t44 31t31.5 45.5t19.5 55h5l82 -63q-14 -38 -35.5 -70t-51 -55t-67.5 -36t-84 -13
q-65 0 -114.5 21.5t-83 59.5t-50.5 91.5t-17 117.5t21 118t57.5 93t84.5 61t102 22zM260 -74l1 -1q29 16 70 16q36 0 60 -21t24 -66t-30.5 -70.5t-84.5 -25.5q-44 0 -69.5 10t-39.5 21l16 58h5q11 -11 31.5 -19.5t41.5 -8.5t35 9t14 27q0 19 -14.5 28.5t-34.5 9.5
q-17 0 -29.5 -4t-22.5 -11l-34 24l55 98h52z" />
    <glyph glyph-name="egrave" unicode="&#xe8;" horiz-adv-x="582" 
d="M296 572q52 0 97 -20.5t78 -57.5t52 -89t19 -114q0 -8 -0.5 -15t-0.5 -13v-14h-402q2 -36 14 -66.5t33 -53t50.5 -35t67.5 -12.5q30 0 56 9.5t47 24.5t37 32.5t26 32.5h5l44 -95q-14 -18 -35.5 -36t-49 -31.5t-60.5 -22t-70 -8.5q-65 0 -114.5 22t-82.5 61t-50 93
t-17 117t20.5 116.5t55.5 92.5t81.5 60.5t98.5 21.5zM296 482q-33 0 -59.5 -12.5t-46 -33t-31.5 -47.5t-16 -56h299q-5 69 -45 109t-101 40zM339 625h-103l-106 117h144z" />
    <glyph glyph-name="eacute" unicode="&#xe9;" horiz-adv-x="582" 
d="M296 572q52 0 97 -20.5t78 -57.5t52 -89t19 -114q0 -8 -0.5 -15t-0.5 -13v-14h-402q2 -36 14 -66.5t33 -53t50.5 -35t67.5 -12.5q30 0 56 9.5t47 24.5t37 32.5t26 32.5h5l44 -95q-14 -18 -35.5 -36t-49 -31.5t-60.5 -22t-70 -8.5q-65 0 -114.5 22t-82.5 61t-50 93
t-17 117t20.5 116.5t55.5 92.5t81.5 60.5t98.5 21.5zM296 482q-33 0 -59.5 -12.5t-46 -33t-31.5 -47.5t-16 -56h299q-5 69 -45 109t-101 40zM347 625h-103l65 117h144z" />
    <glyph glyph-name="ecircumflex" unicode="&#xea;" horiz-adv-x="582" 
d="M296 572q52 0 97 -20.5t78 -57.5t52 -89t19 -114q0 -8 -0.5 -15t-0.5 -13v-14h-402q2 -36 14 -66.5t33 -53t50.5 -35t67.5 -12.5q30 0 56 9.5t47 24.5t37 32.5t26 32.5h5l44 -95q-14 -18 -35.5 -36t-49 -31.5t-60.5 -22t-70 -8.5q-65 0 -114.5 22t-82.5 61t-50 93
t-17 117t20.5 116.5t55.5 92.5t81.5 60.5t98.5 21.5zM296 482q-33 0 -59.5 -12.5t-46 -33t-31.5 -47.5t-16 -56h299q-5 69 -45 109t-101 40zM454 625h-106l-51 79h-3l-51 -79h-106l86 117h145z" />
    <glyph glyph-name="edieresis" unicode="&#xeb;" horiz-adv-x="582" 
d="M296 572q52 0 97 -20.5t78 -57.5t52 -89t19 -114q0 -8 -0.5 -15t-0.5 -13v-14h-402q2 -36 14 -66.5t33 -53t50.5 -35t67.5 -12.5q30 0 56 9.5t47 24.5t37 32.5t26 32.5h5l44 -95q-14 -18 -35.5 -36t-49 -31.5t-60.5 -22t-70 -8.5q-65 0 -114.5 22t-82.5 61t-50 93
t-17 117t20.5 116.5t55.5 92.5t81.5 60.5t98.5 21.5zM296 482q-33 0 -59.5 -12.5t-46 -33t-31.5 -47.5t-16 -56h299q-5 69 -45 109t-101 40zM195 741q29 0 45 -16.5t16 -44.5t-16 -44.5t-45 -16.5q-30 0 -46 16.5t-16 44.5t16 44.5t46 16.5zM397 741q29 0 45 -16.5t16 -44.5
t-16 -44.5t-45 -16.5q-30 0 -46 16.5t-16 44.5t16 44.5t46 16.5z" />
    <glyph glyph-name="igrave" unicode="&#xec;" horiz-adv-x="240" 
d="M170 0h-100v560h100v-560zM165 625h-103l-106 117h144z" />
    <glyph glyph-name="iacute" unicode="&#xed;" horiz-adv-x="240" 
d="M170 0h-100v560h100v-560zM172 625h-103l65 117h144z" />
    <glyph glyph-name="icircumflex" unicode="&#xee;" horiz-adv-x="240" 
d="M170 0h-100v560h100v-560zM280 625h-106l-51 79h-3l-51 -79h-106l86 117h145z" />
    <glyph glyph-name="idieresis" unicode="&#xef;" horiz-adv-x="240" 
d="M170 0h-100v560h100v-560zM21 741q29 0 45 -16.5t16 -44.5t-16 -44.5t-45 -16.5q-30 0 -46 16.5t-16 44.5t16 44.5t46 16.5zM223 741q29 0 45 -16.5t16 -44.5t-16 -44.5t-45 -16.5q-30 0 -46 16.5t-16 44.5t16 44.5t46 16.5z" />
    <glyph glyph-name="eth" unicode="&#xf0;" horiz-adv-x="617" 
d="M305 -12q-67 0 -116.5 22t-82.5 61t-49.5 92t-16.5 115t21 115.5t56.5 93.5t82.5 62.5t99 22.5q32 0 58.5 -8.5t47 -20.5t34 -26t20.5 -24h2q-11 57 -40.5 98.5t-67.5 69.5l-101 -62l-34 56l71 44q-17 8 -34 14.5t-35 13.5l-1 2l35 82q67 -23 123 -57l106 66l34 -57
l-84 -52q70 -63 107 -159.5t37 -236.5q0 -64 -15.5 -123t-48.5 -104.5t-84.5 -72.5t-123.5 -27zM305 482q-38 0 -68.5 -17t-52 -45.5t-33 -66.5t-11.5 -80q0 -41 11 -76t32 -60.5t52 -40t71 -14.5q42 0 72.5 18t51 45.5t30.5 62.5t10 70q0 40 -11.5 77t-33 65t-52 45
t-68.5 17z" />
    <glyph glyph-name="ntilde" unicode="&#xf1;" horiz-adv-x="588" 
d="M342 572q48 0 83 -17t58 -45t34 -64.5t11 -76.5v-369h-100v347q0 63 -25 99t-88 36q-31 0 -57.5 -12t-46 -36t-30.5 -59.5t-11 -81.5v-293h-100v560h85l8 -74h3q28 39 70.5 62.5t105.5 23.5zM266 749q21 0 37 -6t29.5 -13t25.5 -13t25 -6q16 0 24 8.5t12 24.5h52
q-4 -24 -10.5 -46.5t-17.5 -39.5t-27 -27.5t-38 -10.5q-21 0 -37 6t-30 13l-26 13t-25 6q-28 0 -36 -33h-51q3 24 9.5 46.5t17.5 39.5t27 27.5t39 10.5z" />
    <glyph glyph-name="ograve" unicode="&#xf2;" horiz-adv-x="610" 
d="M305 572q54 0 102 -22.5t84.5 -62.5t57.5 -93.5t21 -115.5t-17 -115t-50.5 -92t-83 -61t-114.5 -22t-114.5 22t-83 61t-50.5 92t-17 115t21 115.5t57.5 93.5t84.5 62.5t102 22.5zM305 482q-38 0 -68.5 -17t-52 -45.5t-33 -65t-11.5 -76.5q0 -89 42.5 -142.5t122.5 -53.5
t122.5 53.5t42.5 142.5q0 40 -11.5 76.5t-33 65t-52 45.5t-68.5 17zM348 625h-103l-106 117h144z" />
    <glyph glyph-name="oacute" unicode="&#xf3;" horiz-adv-x="610" 
d="M305 572q54 0 102 -22.5t84.5 -62.5t57.5 -93.5t21 -115.5t-17 -115t-50.5 -92t-83 -61t-114.5 -22t-114.5 22t-83 61t-50.5 92t-17 115t21 115.5t57.5 93.5t84.5 62.5t102 22.5zM305 482q-38 0 -68.5 -17t-52 -45.5t-33 -65t-11.5 -76.5q0 -89 42.5 -142.5t122.5 -53.5
t122.5 53.5t42.5 142.5q0 40 -11.5 76.5t-33 65t-52 45.5t-68.5 17zM356 625h-103l65 117h144z" />
    <glyph glyph-name="ocircumflex" unicode="&#xf4;" horiz-adv-x="610" 
d="M305 572q54 0 102 -22.5t84.5 -62.5t57.5 -93.5t21 -115.5t-17 -115t-50.5 -92t-83 -61t-114.5 -22t-114.5 22t-83 61t-50.5 92t-17 115t21 115.5t57.5 93.5t84.5 62.5t102 22.5zM305 482q-38 0 -68.5 -17t-52 -45.5t-33 -65t-11.5 -76.5q0 -89 42.5 -142.5t122.5 -53.5
t122.5 53.5t42.5 142.5q0 40 -11.5 76.5t-33 65t-52 45.5t-68.5 17zM463 625h-106l-51 79h-3l-51 -79h-106l86 117h145z" />
    <glyph glyph-name="otilde" unicode="&#xf5;" horiz-adv-x="610" 
d="M305 572q54 0 102 -22.5t84.5 -62.5t57.5 -93.5t21 -115.5t-17 -115t-50.5 -92t-83 -61t-114.5 -22t-114.5 22t-83 61t-50.5 92t-17 115t21 115.5t57.5 93.5t84.5 62.5t102 22.5zM305 482q-38 0 -68.5 -17t-52 -45.5t-33 -65t-11.5 -76.5q0 -89 42.5 -142.5t122.5 -53.5
t122.5 53.5t42.5 142.5q0 40 -11.5 76.5t-33 65t-52 45.5t-68.5 17zM249 749q21 0 37 -6t29.5 -13t25.5 -13t25 -6q16 0 24 8.5t12 24.5h52q-4 -24 -10.5 -46.5t-17.5 -39.5t-27 -27.5t-38 -10.5q-21 0 -37 6t-30 13l-26 13t-25 6q-28 0 -36 -33h-51q3 24 9.5 46.5
t17.5 39.5t27 27.5t39 10.5z" />
    <glyph glyph-name="odieresis" unicode="&#xf6;" horiz-adv-x="610" 
d="M305 572q54 0 102 -22.5t84.5 -62.5t57.5 -93.5t21 -115.5t-17 -115t-50.5 -92t-83 -61t-114.5 -22t-114.5 22t-83 61t-50.5 92t-17 115t21 115.5t57.5 93.5t84.5 62.5t102 22.5zM305 482q-38 0 -68.5 -17t-52 -45.5t-33 -65t-11.5 -76.5q0 -89 42.5 -142.5t122.5 -53.5
t122.5 53.5t42.5 142.5q0 40 -11.5 76.5t-33 65t-52 45.5t-68.5 17zM204 741q29 0 45 -16.5t16 -44.5t-16 -44.5t-45 -16.5q-30 0 -46 16.5t-16 44.5t16 44.5t46 16.5zM406 741q29 0 45 -16.5t16 -44.5t-16 -44.5t-45 -16.5q-30 0 -46 16.5t-16 44.5t16 44.5t46 16.5z" />
    <glyph glyph-name="divide" unicode="&#xf7;" horiz-adv-x="606" 
d="M556 310h-506v90h506v-90zM303 230q32 0 55.5 -24t23.5 -56t-23.5 -56t-55.5 -24t-55.5 24t-23.5 56t23.5 56t55.5 24zM303 640q32 0 55.5 -24t23.5 -56t-23.5 -56t-55.5 -24t-55.5 24t-23.5 56t23.5 56t55.5 24z" />
    <glyph glyph-name="oslash" unicode="&#xf8;" horiz-adv-x="610" 
d="M305 -12q-82 0 -141 35l-28 -39l-65 49l32 44q-32 38 -47.5 89.5t-15.5 111.5q0 62 21 115.5t57.5 93.5t84.5 62.5t102 22.5q35 0 67.5 -10t61.5 -28l33 45l68 -48l-38 -51q34 -40 53.5 -91t19.5 -111q0 -62 -17 -115t-50.5 -92t-83 -61t-114.5 -22zM305 482
q-38 0 -68.5 -17t-52 -45.5t-33 -65t-11.5 -76.5q0 -69 25 -116l216 298q-35 22 -76 22zM222 102q35 -20 83 -20q80 0 122.5 53.5t42.5 142.5q0 67 -31 121z" />
    <glyph glyph-name="ugrave" unicode="&#xf9;" horiz-adv-x="569" 
d="M499 0h-86l-12 74h-3q-20 -37 -59 -61.5t-102 -24.5q-46 0 -79.5 15t-55 42t-32 64t-10.5 82v369h100v-356q0 -58 21 -91.5t77 -33.5q28 0 54 11t45 32.5t30.5 54t11.5 74.5v309h100v-560zM328 625h-103l-106 117h144z" />
    <glyph glyph-name="uacute" unicode="&#xfa;" horiz-adv-x="569" 
d="M499 0h-86l-12 74h-3q-20 -37 -59 -61.5t-102 -24.5q-46 0 -79.5 15t-55 42t-32 64t-10.5 82v369h100v-356q0 -58 21 -91.5t77 -33.5q28 0 54 11t45 32.5t30.5 54t11.5 74.5v309h100v-560zM336 625h-103l65 117h144z" />
    <glyph glyph-name="ucircumflex" unicode="&#xfb;" horiz-adv-x="569" 
d="M499 0h-86l-12 74h-3q-20 -37 -59 -61.5t-102 -24.5q-46 0 -79.5 15t-55 42t-32 64t-10.5 82v369h100v-356q0 -58 21 -91.5t77 -33.5q28 0 54 11t45 32.5t30.5 54t11.5 74.5v309h100v-560zM443 625h-106l-51 79h-3l-51 -79h-106l86 117h145z" />
    <glyph glyph-name="udieresis" unicode="&#xfc;" horiz-adv-x="569" 
d="M499 0h-86l-12 74h-3q-20 -37 -59 -61.5t-102 -24.5q-46 0 -79.5 15t-55 42t-32 64t-10.5 82v369h100v-356q0 -58 21 -91.5t77 -33.5q28 0 54 11t45 32.5t30.5 54t11.5 74.5v309h100v-560zM184 741q29 0 45 -16.5t16 -44.5t-16 -44.5t-45 -16.5q-30 0 -46 16.5t-16 44.5
t16 44.5t46 16.5zM386 741q29 0 45 -16.5t16 -44.5t-16 -44.5t-45 -16.5q-30 0 -46 16.5t-16 44.5t16 44.5t46 16.5z" />
    <glyph glyph-name="yacute" unicode="&#xfd;" horiz-adv-x="530" 
d="M254 -185h-115l77 219l-196 526h110l140 -415h2l128 415h110zM316 625h-103l65 117h144z" />
    <glyph glyph-name="thorn" unicode="&#xfe;" horiz-adv-x="614" 
d="M171 495h3q21 33 64 55t94 22t95 -22t76.5 -61.5t51.5 -93t19 -116.5t-16 -116.5t-46.5 -92t-76 -60.5t-103.5 -22t-97 22t-62 54h-3v-249h-100v947h101v-267zM322 482q-38 0 -67.5 -15.5t-49.5 -43t-30 -65.5t-10 -83q0 -43 11 -78.5t31.5 -61t49.5 -39.5t66 -14
q39 0 67.5 14.5t47 41t27.5 62.5t9 79t-9.5 80t-28.5 64.5t-47.5 43t-66.5 15.5z" />
    <glyph glyph-name="ydieresis" unicode="&#xff;" horiz-adv-x="530" 
d="M254 -185h-115l77 219l-196 526h110l140 -415h2l128 415h110zM164 741q29 0 45 -16.5t16 -44.5t-16 -44.5t-45 -16.5q-30 0 -46 16.5t-16 44.5t16 44.5t46 16.5zM366 741q29 0 45 -16.5t16 -44.5t-16 -44.5t-45 -16.5q-30 0 -46 16.5t-16 44.5t16 44.5t46 16.5z" />
    <glyph glyph-name="Amacron" unicode="&#x100;" horiz-adv-x="676" 
d="M661 0h-113l-65 192h-290l-65 -192h-113l245 700h156zM336 612l-114 -330h232l-114 330h-4zM488 763h-300v85h300v-85z" />
    <glyph glyph-name="amacron" unicode="&#x101;" horiz-adv-x="531" 
d="M268 572q98 0 150.5 -50t52.5 -131v-391h-82l-12 74h-3q-25 -39 -66 -62.5t-100 -23.5q-80 0 -121.5 41t-41.5 113q0 66 38.5 110t136.5 64q50 10 80 20t45.5 21t20.5 23t5 27q0 34 -25 54.5t-79 20.5t-93.5 -31.5t-66.5 -81.5h-4l-57 84q33 52 90.5 85.5t131.5 33.5z
M369 290q-5 -9 -13 -16t-21.5 -13t-35 -12.5t-52.5 -13.5q-63 -15 -84.5 -37t-21.5 -52q0 -33 23.5 -51t56.5 -18q26 0 53 8.5t48.5 23.5t35 36t13.5 47v98h-2zM418 625h-300v85h300v-85z" />
    <glyph glyph-name="Abreve" unicode="&#x102;" horiz-adv-x="676" 
d="M661 0h-113l-65 192h-290l-65 -192h-113l245 700h156zM336 612l-114 -330h232l-114 330h-4zM473 906q0 -68 -34.5 -109t-100.5 -41t-100.5 41t-34.5 109h54q2 -25 22.5 -41t58.5 -16t58.5 16t22.5 41h54z" />
    <glyph glyph-name="abreve" unicode="&#x103;" horiz-adv-x="531" 
d="M268 572q98 0 150.5 -50t52.5 -131v-391h-82l-12 74h-3q-25 -39 -66 -62.5t-100 -23.5q-80 0 -121.5 41t-41.5 113q0 66 38.5 110t136.5 64q50 10 80 20t45.5 21t20.5 23t5 27q0 34 -25 54.5t-79 20.5t-93.5 -31.5t-66.5 -81.5h-4l-57 84q33 52 90.5 85.5t131.5 33.5z
M369 290q-5 -9 -13 -16t-21.5 -13t-35 -12.5t-52.5 -13.5q-63 -15 -84.5 -37t-21.5 -52q0 -33 23.5 -51t56.5 -18q26 0 53 8.5t48.5 23.5t35 36t13.5 47v98h-2zM403 769q0 -68 -34.5 -109t-100.5 -41t-100.5 41t-34.5 109h54q2 -25 22.5 -41t58.5 -16t58.5 16t22.5 41h54z
" />
    <glyph glyph-name="Aogonek" unicode="&#x104;" horiz-adv-x="676" 
d="M661 0h-113l-65 192h-290l-65 -192h-113l245 700h156zM336 612l-114 -330h232l-114 330h-4zM630 0q-13 -6 -24.5 -17t-20 -24.5t-13.5 -28.5t-5 -30q0 -17 9 -28.5t30 -11.5q18 0 33 11.5t25 28.5h5l33 -46q-20 -35 -52.5 -56.5t-73.5 -21.5q-48 0 -74.5 24.5t-26.5 67.5
q0 36 18.5 72.5t54.5 59.5h82z" />
    <glyph glyph-name="aogonek" unicode="&#x105;" horiz-adv-x="531" 
d="M268 572q98 0 150.5 -50t52.5 -131v-391h-82l-12 74h-3q-25 -39 -66 -62.5t-100 -23.5q-80 0 -121.5 41t-41.5 113q0 66 38.5 110t136.5 64q50 10 80 20t45.5 21t20.5 23t5 27q0 34 -25 54.5t-79 20.5t-93.5 -31.5t-66.5 -81.5h-4l-57 84q33 52 90.5 85.5t131.5 33.5z
M369 290q-5 -9 -13 -16t-21.5 -13t-35 -12.5t-52.5 -13.5q-63 -15 -84.5 -37t-21.5 -52q0 -33 23.5 -51t56.5 -18q26 0 53 8.5t48.5 23.5t35 36t13.5 47v98h-2zM471 0q-13 -6 -24.5 -17t-20 -24.5t-13.5 -28.5t-5 -30q0 -17 9 -28.5t30 -11.5q18 0 33 11.5t25 28.5h5l33 -46
q-20 -35 -52.5 -56.5t-73.5 -21.5q-48 0 -74.5 24.5t-26.5 67.5q0 36 18.5 72.5t54.5 59.5h82z" />
    <glyph glyph-name="Cacute" unicode="&#x106;" horiz-adv-x="661" 
d="M359 712q55 0 98.5 -16t76 -41.5t55 -56.5t34.5 -61l-76 -73h-5q-13 34 -30 62t-39 48t-50.5 31.5t-63.5 11.5q-49 0 -88 -22.5t-66 -59t-41 -84t-14 -98.5q0 -58 13.5 -107t40 -84.5t65.5 -55.5t90 -20q36 0 68 13.5t57 38t42.5 58.5t25.5 76h5l89 -70
q-14 -48 -40.5 -87t-63.5 -67.5t-83.5 -44t-99.5 -15.5q-76 0 -134.5 27t-98.5 75.5t-60.5 115.5t-20.5 147q0 70 22.5 135t63.5 115t99 79.5t129 29.5zM410 762h-103l65 117h144z" />
    <glyph glyph-name="cacute" unicode="&#x107;" horiz-adv-x="558" 
d="M305 572q44 0 79.5 -12t62.5 -32t46 -46t30 -53l-70 -69h-5q-17 54 -51.5 88t-91.5 34q-38 0 -68.5 -17t-52 -45.5t-33 -65t-11.5 -76.5q0 -89 42 -142.5t123 -53.5q31 0 56 11.5t44 31t31.5 45.5t19.5 55h5l82 -63q-14 -38 -35.5 -70t-51 -55t-67.5 -36t-84 -13
q-65 0 -114.5 21.5t-83 59.5t-50.5 91.5t-17 117.5t21 118t57.5 93t84.5 61t102 22zM356 625h-103l65 117h144z" />
    <glyph glyph-name="Ccircumflex" unicode="&#x108;" horiz-adv-x="661" 
d="M359 712q55 0 98.5 -16t76 -41.5t55 -56.5t34.5 -61l-76 -73h-5q-13 34 -30 62t-39 48t-50.5 31.5t-63.5 11.5q-49 0 -88 -22.5t-66 -59t-41 -84t-14 -98.5q0 -58 13.5 -107t40 -84.5t65.5 -55.5t90 -20q36 0 68 13.5t57 38t42.5 58.5t25.5 76h5l89 -70
q-14 -48 -40.5 -87t-63.5 -67.5t-83.5 -44t-99.5 -15.5q-76 0 -134.5 27t-98.5 75.5t-60.5 115.5t-20.5 147q0 70 22.5 135t63.5 115t99 79.5t129 29.5zM517 762h-106l-51 79h-3l-51 -79h-106l86 117h145z" />
    <glyph glyph-name="ccircumflex" unicode="&#x109;" horiz-adv-x="558" 
d="M305 572q44 0 79.5 -12t62.5 -32t46 -46t30 -53l-70 -69h-5q-17 54 -51.5 88t-91.5 34q-38 0 -68.5 -17t-52 -45.5t-33 -65t-11.5 -76.5q0 -89 42 -142.5t123 -53.5q31 0 56 11.5t44 31t31.5 45.5t19.5 55h5l82 -63q-14 -38 -35.5 -70t-51 -55t-67.5 -36t-84 -13
q-65 0 -114.5 21.5t-83 59.5t-50.5 91.5t-17 117.5t21 118t57.5 93t84.5 61t102 22zM463 625h-106l-51 79h-3l-51 -79h-106l86 117h145z" />
    <glyph glyph-name="Cdotaccent" unicode="&#x10a;" horiz-adv-x="661" 
d="M359 712q55 0 98.5 -16t76 -41.5t55 -56.5t34.5 -61l-76 -73h-5q-13 34 -30 62t-39 48t-50.5 31.5t-63.5 11.5q-49 0 -88 -22.5t-66 -59t-41 -84t-14 -98.5q0 -58 13.5 -107t40 -84.5t65.5 -55.5t90 -20q36 0 68 13.5t57 38t42.5 58.5t25.5 76h5l89 -70
q-14 -48 -40.5 -87t-63.5 -67.5t-83.5 -44t-99.5 -15.5q-76 0 -134.5 27t-98.5 75.5t-60.5 115.5t-20.5 147q0 70 22.5 135t63.5 115t99 79.5t129 29.5zM359 888q32 0 49 -18.5t17 -47.5t-17 -47.5t-49 -18.5t-49.5 18.5t-17.5 47.5t17.5 47.5t49.5 18.5z" />
    <glyph glyph-name="cdotaccent" unicode="&#x10b;" horiz-adv-x="558" 
d="M305 572q44 0 79.5 -12t62.5 -32t46 -46t30 -53l-70 -69h-5q-17 54 -51.5 88t-91.5 34q-38 0 -68.5 -17t-52 -45.5t-33 -65t-11.5 -76.5q0 -89 42 -142.5t123 -53.5q31 0 56 11.5t44 31t31.5 45.5t19.5 55h5l82 -63q-14 -38 -35.5 -70t-51 -55t-67.5 -36t-84 -13
q-65 0 -114.5 21.5t-83 59.5t-50.5 91.5t-17 117.5t21 118t57.5 93t84.5 61t102 22zM305 746q32 0 49 -18.5t17 -47.5t-17 -47.5t-49 -18.5t-49.5 18.5t-17.5 47.5t17.5 47.5t49.5 18.5z" />
    <glyph glyph-name="Ccaron" unicode="&#x10c;" horiz-adv-x="661" 
d="M359 712q55 0 98.5 -16t76 -41.5t55 -56.5t34.5 -61l-76 -73h-5q-13 34 -30 62t-39 48t-50.5 31.5t-63.5 11.5q-49 0 -88 -22.5t-66 -59t-41 -84t-14 -98.5q0 -58 13.5 -107t40 -84.5t65.5 -55.5t90 -20q36 0 68 13.5t57 38t42.5 58.5t25.5 76h5l89 -70
q-14 -48 -40.5 -87t-63.5 -67.5t-83.5 -44t-99.5 -15.5q-76 0 -134.5 27t-98.5 75.5t-60.5 115.5t-20.5 147q0 70 22.5 135t63.5 115t99 79.5t129 29.5zM431 762h-145l-86 117h106l51 -79h3l51 79h106z" />
    <glyph glyph-name="ccaron" unicode="&#x10d;" horiz-adv-x="558" 
d="M305 572q44 0 79.5 -12t62.5 -32t46 -46t30 -53l-70 -69h-5q-17 54 -51.5 88t-91.5 34q-38 0 -68.5 -17t-52 -45.5t-33 -65t-11.5 -76.5q0 -89 42 -142.5t123 -53.5q31 0 56 11.5t44 31t31.5 45.5t19.5 55h5l82 -63q-14 -38 -35.5 -70t-51 -55t-67.5 -36t-84 -13
q-65 0 -114.5 21.5t-83 59.5t-50.5 91.5t-17 117.5t21 118t57.5 93t84.5 61t102 22zM377 625h-145l-86 117h106l51 -79h3l51 79h106z" />
    <glyph glyph-name="Dcaron" unicode="&#x10e;" horiz-adv-x="690" 
d="M321 700q161 0 242.5 -83t81.5 -264q0 -182 -84.5 -267.5t-248.5 -85.5h-222v700h231zM195 605v-510h129q115 0 165.5 68.5t50.5 189.5q0 60 -10.5 107t-35 79.5t-65.5 49t-102 16.5h-132zM409 762h-145l-86 117h106l51 -79h3l51 79h106z" />
    <glyph glyph-name="dcaron" unicode="&#x10f;" horiz-adv-x="687" 
d="M554 0h-86l-12 74h-3q-25 -38 -67 -62t-104 -24q-59 0 -104 22t-75.5 60.5t-46.5 92t-16 116.5t19.5 116.5t53.5 93t78.5 61.5t95.5 22q60 0 102.5 -24t62.5 -51h2v245h100v-742zM297 482q-38 0 -67.5 -16t-49.5 -43.5t-30 -64.5t-10 -79q0 -43 9.5 -79t29 -62.5t49 -41
t68.5 -14.5q37 0 66 14t49.5 39.5t31.5 61t11 78.5q0 45 -10 83t-30 65.5t-49.5 43t-67.5 15.5zM655 748q32 0 49.5 -21t17.5 -56q0 -19 -5.5 -39t-14.5 -39t-20 -35t-21 -28h-43v3q12 19 24 43.5t12 47.5h-9q-25 0 -40 17.5t-15 43.5q0 29 17 46t48 17z" />
    <glyph glyph-name="Dcroat" unicode="&#x110;" horiz-adv-x="715" 
d="M342 700q73 0 133 -20t102 -62.5t65 -108t23 -156.5t-22.5 -157.5t-64.5 -110t-101.5 -64.5t-134.5 -21h-242v310h-85v90h85v300h242zM205 605v-205h160v-90h-160v-215h149q101 0 153.5 68.5t52.5 189.5t-49 186.5t-157 65.5h-149z" />
    <glyph glyph-name="dcroat" unicode="&#x111;" horiz-adv-x="628" 
d="M554 700h74v-70h-74v-630h-86l-12 74h-3q-25 -38 -67 -62t-104 -24q-59 0 -104 22t-75.5 60.5t-46.5 92t-16 116.5t19.5 116.5t53.5 93t78.5 61.5t95.5 22q60 0 102.5 -24t62.5 -51h2v133h-128v70h128v42h100v-42zM297 482q-38 0 -67.5 -16t-49.5 -43.5t-30 -64.5
t-10 -79q0 -43 9.5 -79t29 -62.5t49 -41t68.5 -14.5q37 0 66 14t49.5 39.5t31.5 61t11 78.5q0 45 -10 83t-30 65.5t-49.5 43t-67.5 15.5z" />
    <glyph glyph-name="Emacron" unicode="&#x112;" horiz-adv-x="563" 
d="M503 605h-318v-207h318v-90h-318v-213h318v-95h-423v700h423v-95zM447 763h-300v85h300v-85z" />
    <glyph glyph-name="emacron" unicode="&#x113;" horiz-adv-x="582" 
d="M296 572q52 0 97 -20.5t78 -57.5t52 -89t19 -114q0 -8 -0.5 -15t-0.5 -13v-14h-402q2 -36 14 -66.5t33 -53t50.5 -35t67.5 -12.5q30 0 56 9.5t47 24.5t37 32.5t26 32.5h5l44 -95q-14 -18 -35.5 -36t-49 -31.5t-60.5 -22t-70 -8.5q-65 0 -114.5 22t-82.5 61t-50 93
t-17 117t20.5 116.5t55.5 92.5t81.5 60.5t98.5 21.5zM296 482q-33 0 -59.5 -12.5t-46 -33t-31.5 -47.5t-16 -56h299q-5 69 -45 109t-101 40zM446 625h-300v85h300v-85z" />
    <glyph glyph-name="Ebreve" unicode="&#x114;" horiz-adv-x="563" 
d="M503 605h-318v-207h318v-90h-318v-213h318v-95h-423v700h423v-95zM432 906q0 -68 -34.5 -109t-100.5 -41t-100.5 41t-34.5 109h54q2 -25 22.5 -41t58.5 -16t58.5 16t22.5 41h54z" />
    <glyph glyph-name="ebreve" unicode="&#x115;" horiz-adv-x="582" 
d="M296 572q52 0 97 -20.5t78 -57.5t52 -89t19 -114q0 -8 -0.5 -15t-0.5 -13v-14h-402q2 -36 14 -66.5t33 -53t50.5 -35t67.5 -12.5q30 0 56 9.5t47 24.5t37 32.5t26 32.5h5l44 -95q-14 -18 -35.5 -36t-49 -31.5t-60.5 -22t-70 -8.5q-65 0 -114.5 22t-82.5 61t-50 93
t-17 117t20.5 116.5t55.5 92.5t81.5 60.5t98.5 21.5zM296 482q-33 0 -59.5 -12.5t-46 -33t-31.5 -47.5t-16 -56h299q-5 69 -45 109t-101 40zM431 769q0 -68 -34.5 -109t-100.5 -41t-100.5 41t-34.5 109h54q2 -25 22.5 -41t58.5 -16t58.5 16t22.5 41h54z" />
    <glyph glyph-name="Edotaccent" unicode="&#x116;" horiz-adv-x="563" 
d="M503 605h-318v-207h318v-90h-318v-213h318v-95h-423v700h423v-95zM297 888q32 0 49 -18.5t17 -47.5t-17 -47.5t-49 -18.5t-49.5 18.5t-17.5 47.5t17.5 47.5t49.5 18.5z" />
    <glyph glyph-name="edotaccent" unicode="&#x117;" horiz-adv-x="582" 
d="M296 572q52 0 97 -20.5t78 -57.5t52 -89t19 -114q0 -8 -0.5 -15t-0.5 -13v-14h-402q2 -36 14 -66.5t33 -53t50.5 -35t67.5 -12.5q30 0 56 9.5t47 24.5t37 32.5t26 32.5h5l44 -95q-14 -18 -35.5 -36t-49 -31.5t-60.5 -22t-70 -8.5q-65 0 -114.5 22t-82.5 61t-50 93
t-17 117t20.5 116.5t55.5 92.5t81.5 60.5t98.5 21.5zM296 482q-33 0 -59.5 -12.5t-46 -33t-31.5 -47.5t-16 -56h299q-5 69 -45 109t-101 40zM296 746q32 0 49 -18.5t17 -47.5t-17 -47.5t-49 -18.5t-49.5 18.5t-17.5 47.5t17.5 47.5t49.5 18.5z" />
    <glyph glyph-name="Eogonek" unicode="&#x118;" horiz-adv-x="563" 
d="M503 605h-318v-207h318v-90h-318v-213h318v-95h-423v700h423v-95zM441 0q-13 -6 -24.5 -17t-20 -24.5t-13.5 -28.5t-5 -30q0 -17 9 -28.5t30 -11.5q18 0 33 11.5t25 28.5h5l33 -46q-20 -35 -52.5 -56.5t-73.5 -21.5q-48 0 -74.5 24.5t-26.5 67.5q0 36 18.5 72.5
t54.5 59.5h82z" />
    <glyph glyph-name="eogonek" unicode="&#x119;" horiz-adv-x="582" 
d="M296 572q52 0 97 -20.5t78 -57.5t52 -89t19 -114q0 -8 -0.5 -15t-0.5 -13v-14h-402q2 -36 14 -66.5t33 -53t50.5 -35t67.5 -12.5q30 0 56 9.5t47 24.5t37 32.5t26 32.5h5l44 -95q-14 -18 -35.5 -36t-49 -31.5t-60.5 -22t-70 -8.5q-65 0 -114.5 22t-82.5 61t-50 93
t-17 117t20.5 116.5t55.5 92.5t81.5 60.5t98.5 21.5zM296 482q-33 0 -59.5 -12.5t-46 -33t-31.5 -47.5t-16 -56h299q-5 69 -45 109t-101 40zM387 0q-13 -6 -24.5 -17t-20 -24.5t-13.5 -28.5t-5 -30q0 -17 9 -28.5t30 -11.5q18 0 33 11.5t25 28.5h5l33 -46
q-20 -35 -52.5 -56.5t-73.5 -21.5q-48 0 -74.5 24.5t-26.5 67.5q0 36 18.5 72.5t54.5 59.5h82z" />
    <glyph glyph-name="Ecaron" unicode="&#x11a;" horiz-adv-x="563" 
d="M503 605h-318v-207h318v-90h-318v-213h318v-95h-423v700h423v-95zM369 762h-145l-86 117h106l51 -79h3l51 79h106z" />
    <glyph glyph-name="ecaron" unicode="&#x11b;" horiz-adv-x="582" 
d="M296 572q52 0 97 -20.5t78 -57.5t52 -89t19 -114q0 -8 -0.5 -15t-0.5 -13v-14h-402q2 -36 14 -66.5t33 -53t50.5 -35t67.5 -12.5q30 0 56 9.5t47 24.5t37 32.5t26 32.5h5l44 -95q-14 -18 -35.5 -36t-49 -31.5t-60.5 -22t-70 -8.5q-65 0 -114.5 22t-82.5 61t-50 93
t-17 117t20.5 116.5t55.5 92.5t81.5 60.5t98.5 21.5zM296 482q-33 0 -59.5 -12.5t-46 -33t-31.5 -47.5t-16 -56h299q-5 69 -45 109t-101 40zM368 625h-145l-86 117h106l51 -79h3l51 79h106z" />
    <glyph glyph-name="Gcircumflex" unicode="&#x11c;" horiz-adv-x="671" 
d="M359 712q55 0 98 -16t75.5 -41t55 -55t34.5 -58l-74 -76h-5q-13 32 -30 60t-39.5 49t-51 33t-63.5 12q-49 0 -88 -22.5t-66 -60t-41 -85.5t-14 -99q0 -58 13.5 -107t40 -84.5t65.5 -55.5t90 -20q63 0 108.5 24.5t63.5 56.5v81h-129v90h224v-338h-64l-28 70h-2
q-20 -30 -66 -56t-114 -26q-74 0 -131 27t-96 75.5t-59.5 115.5t-20.5 147q0 70 22.5 135t63.5 115t99 79.5t129 29.5zM518 762h-106l-51 79h-3l-51 -79h-106l86 117h145z" />
    <glyph glyph-name="gcircumflex" unicode="&#x11d;" horiz-adv-x="603" 
d="M274 572q66 0 105.5 -25.5t59.5 -60.5h3l9 74h82v-523q0 -62 -19.5 -106.5t-52.5 -73t-76 -41.5t-91 -13q-33 0 -64.5 8t-59 21t-49 28.5t-35.5 29.5l39 91h5q10 -13 27.5 -28t38.5 -27.5t44.5 -21t45.5 -8.5q75 0 111 38.5t36 127.5v55h-5q-23 -29 -59 -49.5t-91 -20.5
q-110 0 -174 68t-64 191q0 60 19.5 109t52 84t75 54t87.5 19zM292 482q-42 0 -71 -15t-47 -39.5t-26 -56t-8 -65.5q0 -36 9.5 -66.5t27.5 -52.5t44.5 -34.5t60.5 -12.5q69 0 110.5 45t40.5 133q0 34 -10 64t-28 52.5t-44 35t-59 12.5zM432 625h-106l-51 79h-3l-51 -79h-106
l86 117h145z" />
    <glyph glyph-name="Gbreve" unicode="&#x11e;" horiz-adv-x="671" 
d="M359 712q55 0 98 -16t75.5 -41t55 -55t34.5 -58l-74 -76h-5q-13 32 -30 60t-39.5 49t-51 33t-63.5 12q-49 0 -88 -22.5t-66 -60t-41 -85.5t-14 -99q0 -58 13.5 -107t40 -84.5t65.5 -55.5t90 -20q63 0 108.5 24.5t63.5 56.5v81h-129v90h224v-338h-64l-28 70h-2
q-20 -30 -66 -56t-114 -26q-74 0 -131 27t-96 75.5t-59.5 115.5t-20.5 147q0 70 22.5 135t63.5 115t99 79.5t129 29.5zM495 906q0 -68 -34.5 -109t-100.5 -41t-100.5 41t-34.5 109h54q2 -25 22.5 -41t58.5 -16t58.5 16t22.5 41h54z" />
    <glyph glyph-name="gbreve" unicode="&#x11f;" horiz-adv-x="603" 
d="M274 572q66 0 105.5 -25.5t59.5 -60.5h3l9 74h82v-523q0 -62 -19.5 -106.5t-52.5 -73t-76 -41.5t-91 -13q-33 0 -64.5 8t-59 21t-49 28.5t-35.5 29.5l39 91h5q10 -13 27.5 -28t38.5 -27.5t44.5 -21t45.5 -8.5q75 0 111 38.5t36 127.5v55h-5q-23 -29 -59 -49.5t-91 -20.5
q-110 0 -174 68t-64 191q0 60 19.5 109t52 84t75 54t87.5 19zM292 482q-42 0 -71 -15t-47 -39.5t-26 -56t-8 -65.5q0 -36 9.5 -66.5t27.5 -52.5t44.5 -34.5t60.5 -12.5q69 0 110.5 45t40.5 133q0 34 -10 64t-28 52.5t-44 35t-59 12.5zM409 769q0 -68 -34.5 -109t-100.5 -41
t-100.5 41t-34.5 109h54q2 -25 22.5 -41t58.5 -16t58.5 16t22.5 41h54z" />
    <glyph glyph-name="Gdotaccent" unicode="&#x120;" horiz-adv-x="671" 
d="M359 712q55 0 98 -16t75.5 -41t55 -55t34.5 -58l-74 -76h-5q-13 32 -30 60t-39.5 49t-51 33t-63.5 12q-49 0 -88 -22.5t-66 -60t-41 -85.5t-14 -99q0 -58 13.5 -107t40 -84.5t65.5 -55.5t90 -20q63 0 108.5 24.5t63.5 56.5v81h-129v90h224v-338h-64l-28 70h-2
q-20 -30 -66 -56t-114 -26q-74 0 -131 27t-96 75.5t-59.5 115.5t-20.5 147q0 70 22.5 135t63.5 115t99 79.5t129 29.5zM360 888q32 0 49 -18.5t17 -47.5t-17 -47.5t-49 -18.5t-49.5 18.5t-17.5 47.5t17.5 47.5t49.5 18.5z" />
    <glyph glyph-name="gdotaccent" unicode="&#x121;" horiz-adv-x="603" 
d="M274 572q66 0 105.5 -25.5t59.5 -60.5h3l9 74h82v-523q0 -62 -19.5 -106.5t-52.5 -73t-76 -41.5t-91 -13q-33 0 -64.5 8t-59 21t-49 28.5t-35.5 29.5l39 91h5q10 -13 27.5 -28t38.5 -27.5t44.5 -21t45.5 -8.5q75 0 111 38.5t36 127.5v55h-5q-23 -29 -59 -49.5t-91 -20.5
q-110 0 -174 68t-64 191q0 60 19.5 109t52 84t75 54t87.5 19zM292 482q-42 0 -71 -15t-47 -39.5t-26 -56t-8 -65.5q0 -36 9.5 -66.5t27.5 -52.5t44.5 -34.5t60.5 -12.5q69 0 110.5 45t40.5 133q0 34 -10 64t-28 52.5t-44 35t-59 12.5zM274 746q32 0 49 -18.5t17 -47.5
t-17 -47.5t-49 -18.5t-49.5 18.5t-17.5 47.5t17.5 47.5t49.5 18.5z" />
    <glyph glyph-name="Gcommaaccent" unicode="&#x122;" horiz-adv-x="671" 
d="M359 712q55 0 98 -16t75.5 -41t55 -55t34.5 -58l-74 -76h-5q-13 32 -30 60t-39.5 49t-51 33t-63.5 12q-49 0 -88 -22.5t-66 -60t-41 -85.5t-14 -99q0 -58 13.5 -107t40 -84.5t65.5 -55.5t90 -20q63 0 108.5 24.5t63.5 56.5v81h-129v90h224v-338h-64l-28 70h-2
q-20 -30 -66 -56t-114 -26q-74 0 -131 27t-96 75.5t-59.5 115.5t-20.5 147q0 70 22.5 135t63.5 115t99 79.5t129 29.5zM341 -55q31 0 50 -21.5t19 -56.5q0 -38 -19.5 -72t-40.5 -58h-41v5q12 18 21 37t9 43q-34 0 -48.5 16.5t-14.5 42.5q0 29 16.5 46.5t48.5 17.5z" />
    <glyph glyph-name="gcommaaccent" unicode="&#x123;" horiz-adv-x="603" 
d="M274 572q66 0 105.5 -25.5t59.5 -60.5h3l9 74h82v-523q0 -62 -19.5 -106.5t-52.5 -73t-76 -41.5t-91 -13q-33 0 -64.5 8t-59 21t-49 28.5t-35.5 29.5l39 91h5q10 -13 27.5 -28t38.5 -27.5t44.5 -21t45.5 -8.5q75 0 111 38.5t36 127.5v55h-5q-23 -29 -59 -49.5t-91 -20.5
q-110 0 -174 68t-64 191q0 60 19.5 109t52 84t75 54t87.5 19zM292 482q-42 0 -71 -15t-47 -39.5t-26 -56t-8 -65.5q0 -36 9.5 -66.5t27.5 -52.5t44.5 -34.5t60.5 -12.5q69 0 110.5 45t40.5 133q0 34 -10 64t-28 52.5t-44 35t-59 12.5zM274.993 614.997
q-30.999 0 -49.9971 21.498q-18.999 21.499 -18.999 56.4971q0 37.9971 19.499 71.9951q19.498 33.998 40.4971 57.9971h40.998v-5q-12 -17.999 -20.999 -36.998q-9 -18.999 -9 -42.9971q33.998 0 48.4971 -16.499t14.499 -42.4971q0 -28.999 -16.498 -46.498
q-16.499 -17.498 -48.4971 -17.498z" />
    <glyph glyph-name="Hcircumflex" unicode="&#x124;" horiz-adv-x="667" 
d="M587 0h-105v311h-297v-311h-105v700h105v-299h297v299h105v-700zM493 763h-106l-51 79h-3l-51 -79h-106l86 117h145z" />
    <glyph glyph-name="hcircumflex" unicode="&#x125;" horiz-adv-x="588" 
d="M170 483h2q26 40 68 64.5t102 24.5q48 0 83 -17t58 -45t34 -64.5t11 -76.5v-369h-100v347q0 63 -25 99t-88 36q-31 0 -57.5 -12t-46 -36t-30.5 -59.5t-11 -81.5v-293h-100v742h100v-259zM490 762h-106l-51 79h-3l-51 -79h-106l86 117h145z" />
    <glyph glyph-name="Hbar" unicode="&#x126;" horiz-adv-x="717" 
d="M612 601h90v-75h-90v-526h-105v301h-297v-301h-105v526h-90v75h90v99h105v-99h297v99h105v-99zM210 526v-135h297v135h-297z" />
    <glyph glyph-name="hbar" unicode="&#x127;" horiz-adv-x="588" 
d="M170 700h132v-70h-132v-147h2q15 25 39 44q20 17 52 31t79 14q48 0 83 -17t58 -45t34 -64.5t11 -76.5v-369h-100v347q0 63 -25 99t-88 36q-31 0 -57.5 -12t-46 -36t-30.5 -59.5t-11 -81.5v-293h-100v630h-70v70h70v42h100v-42z" />
    <glyph glyph-name="Itilde" unicode="&#x128;" horiz-adv-x="265" 
d="M185 0h-105v700h105v-700zM78 886q21 0 37 -6t29.5 -13t25.5 -13t25 -6q16 0 24 8.5t12 24.5h52q-4 -24 -10.5 -46.5t-17.5 -39.5t-27 -27.5t-38 -10.5q-21 0 -37 6t-30 13l-26 13t-25 6q-28 0 -36 -33h-51q3 24 9.5 46.5t17.5 39.5t27 27.5t39 10.5z" />
    <glyph glyph-name="itilde" unicode="&#x129;" horiz-adv-x="240" 
d="M170 0h-100v560h100v-560zM66 749q21 0 37 -6t29.5 -13t25.5 -13t25 -6q16 0 24 8.5t12 24.5h52q-4 -24 -10.5 -46.5t-17.5 -39.5t-27 -27.5t-38 -10.5q-21 0 -37 6t-30 13l-26 13t-25 6q-28 0 -36 -33h-51q3 24 9.5 46.5t17.5 39.5t27 27.5t39 10.5z" />
    <glyph glyph-name="Imacron" unicode="&#x12a;" horiz-adv-x="265" 
d="M185 0h-105v700h105v-700zM284 763h-300v85h300v-85z" />
    <glyph glyph-name="imacron" unicode="&#x12b;" horiz-adv-x="240" 
d="M170 0h-100v560h100v-560zM272 625h-300v85h300v-85z" />
    <glyph glyph-name="Ibreve" unicode="&#x12c;" horiz-adv-x="265" 
d="M185 0h-105v700h105v-700zM269 906q0 -68 -34.5 -109t-100.5 -41t-100.5 41t-34.5 109h54q2 -25 22.5 -41t58.5 -16t58.5 16t22.5 41h54z" />
    <glyph glyph-name="ibreve" unicode="&#x12d;" horiz-adv-x="240" 
d="M170 0h-100v560h100v-560zM257 769q0 -68 -34.5 -109t-100.5 -41t-100.5 41t-34.5 109h54q2 -25 22.5 -41t58.5 -16t58.5 16t22.5 41h54z" />
    <glyph glyph-name="Iogonek" unicode="&#x12e;" horiz-adv-x="265" 
d="M185 0h-105v700h105v-700zM163 0q-13 -6 -24.5 -17t-20 -24.5t-13.5 -28.5t-5 -30q0 -17 9 -28.5t30 -11.5q18 0 33 11.5t25 28.5h5l33 -46q-20 -35 -52.5 -56.5t-73.5 -21.5q-48 0 -74.5 24.5t-26.5 67.5q0 36 18.5 72.5t54.5 59.5h82z" />
    <glyph glyph-name="iogonek" unicode="&#x12f;" horiz-adv-x="240" 
d="M170 0h-100v560h100v-560zM121 746q32 0 49 -18.5t17 -47.5t-17 -47.5t-49 -18.5t-49.5 18.5t-17.5 47.5t17.5 47.5t49.5 18.5zM153 0q-13 -6 -24.5 -17t-20 -24.5t-13.5 -28.5t-5 -30q0 -17 9 -28.5t30 -11.5q18 0 33 11.5t25 28.5h5l33 -46q-20 -35 -52.5 -56.5
t-73.5 -21.5q-48 0 -74.5 24.5t-26.5 67.5q0 36 18.5 72.5t54.5 59.5h82z" />
    <glyph glyph-name="Idotaccent" unicode="&#x130;" horiz-adv-x="265" 
d="M185 0h-105v700h105v-700zM133 888q32 0 49 -18.5t17 -47.5t-17 -47.5t-49 -18.5t-49.5 18.5t-17.5 47.5t17.5 47.5t49.5 18.5z" />
    <glyph glyph-name="dotlessi" unicode="&#x131;" horiz-adv-x="240" 
d="M170 0h-100v560h100v-560z" />
    <glyph glyph-name="Jcircumflex" unicode="&#x134;" horiz-adv-x="484" 
d="M414 189q0 -45 -13.5 -82t-39.5 -63.5t-64.5 -41t-87.5 -14.5q-41 0 -73 11t-56.5 28t-42 37.5t-27.5 40.5l59 85h5q10 -18 23 -36.5t29.5 -32.5t36 -23t41.5 -9q48 0 76 28.5t28 93.5v489h106v-511zM516 762h-106l-51 79h-3l-51 -79h-106l86 117h145z" />
    <glyph glyph-name="jcircumflex" unicode="&#x135;" horiz-adv-x="234" 
d="M164 -48q0 -37 -10.5 -63.5t-28 -43t-40 -24t-46.5 -7.5q-26 0 -49.5 6.5t-39.5 14.5l14 93h5q12 -6 23.5 -10t24.5 -4q23 0 35 10.5t12 34.5v601h100v-608zM274 625h-106l-51 79h-3l-51 -79h-106l86 117h145z" />
    <glyph glyph-name="Kcommaaccent" unicode="&#x136;" horiz-adv-x="618" 
d="M303 362l305 -362h-144l-277 332h-2v-332h-105v700h105v-322h2l266 322h139zM329 -55q31 0 50 -21.5t19 -56.5q0 -38 -19.5 -72t-40.5 -58h-41v5q12 18 21 37t9 43q-34 0 -48.5 16.5t-14.5 42.5q0 29 16.5 46.5t48.5 17.5z" />
    <glyph glyph-name="kcommaaccent" unicode="&#x137;" horiz-adv-x="496" 
d="M170 292h2l194 268h126l-216 -277l220 -283h-131l-193 266h-2v-266h-100v742h100v-450zM255 -55q31 0 50 -21.5t19 -56.5q0 -38 -19.5 -72t-40.5 -58h-41v5q12 18 21 37t9 43q-34 0 -48.5 16.5t-14.5 42.5q0 29 16.5 46.5t48.5 17.5z" />
    <glyph glyph-name="kgreenlandic" unicode="&#x138;" horiz-adv-x="548" 
d="M284 283l264 -283h-140l-236 266h-2v-266h-100v560h100v-268h2l237 268h130z" />
    <glyph glyph-name="Lacute" unicode="&#x139;" horiz-adv-x="477" 
d="M185 94h272v-94h-377v700h105v-606zM187 762h-103l65 117h144z" />
    <glyph glyph-name="lacute" unicode="&#x13a;" horiz-adv-x="240" 
d="M170 0h-100v742h100v-742zM171 795h-103l65 117h144z" />
    <glyph glyph-name="Lcommaaccent" unicode="&#x13b;" horiz-adv-x="477" 
d="M185 94h272v-94h-377v700h105v-606zM278 -55q31 0 50 -21.5t19 -56.5q0 -38 -19.5 -72t-40.5 -58h-41v5q12 18 21 37t9 43q-34 0 -48.5 16.5t-14.5 42.5q0 29 16.5 46.5t48.5 17.5z" />
    <glyph glyph-name="lcommaaccent" unicode="&#x13c;" horiz-adv-x="240" 
d="M170 0h-100v742h100v-742zM120 -55q31 0 50 -21.5t19 -56.5q0 -38 -19.5 -72t-40.5 -58h-41v5q12 18 21 37t9 43q-34 0 -48.5 16.5t-14.5 42.5q0 29 16.5 46.5t48.5 17.5z" />
    <glyph glyph-name="Lcaron" unicode="&#x13d;" horiz-adv-x="477" 
d="M185 94h272v-94h-377v700h105v-606zM378 706q32 0 49.5 -21t17.5 -56q0 -19 -5.5 -39t-14.5 -39t-20 -35t-21 -28h-43v3q12 19 24 43.5t12 47.5h-9q-25 0 -40 17.5t-15 43.5q0 29 17 46t48 17z" />
    <glyph glyph-name="lcaron" unicode="&#x13e;" horiz-adv-x="352" 
d="M170 0h-100v742h100v-742zM300 748q32 0 49.5 -21t17.5 -56q0 -19 -5.5 -39t-14.5 -39t-20 -35t-21 -28h-43v3q12 19 24 43.5t12 47.5h-9q-25 0 -40 17.5t-15 43.5q0 29 17 46t48 17z" />
    <glyph glyph-name="Ldot" unicode="&#x13f;" horiz-adv-x="477" 
d="M185 94h272v-94h-377v700h105v-606zM370 466q32 0 49 -18.5t17 -47.5t-17 -47.5t-49 -18.5t-49.5 18.5t-17.5 47.5t17.5 47.5t49.5 18.5z" />
    <glyph glyph-name="ldot" unicode="&#x140;" horiz-adv-x="318" 
d="M170 0h-100v742h100v-742zM287 466q32 0 49 -18.5t17 -47.5t-17 -47.5t-49 -18.5t-49.5 18.5t-17.5 47.5t17.5 47.5t49.5 18.5z" />
    <glyph glyph-name="Lslash" unicode="&#x141;" horiz-adv-x="508" 
d="M216 423l156 91l45 -77l-201 -117v-226h272v-94h-377v264l-57 -32l-44 77l101 58v333h105v-277z" />
    <glyph glyph-name="lslash" unicode="&#x142;" horiz-adv-x="315" 
d="M207 472l72 42l36 -62l-108 -63v-389h-100v338l-72 -43l-35 63l107 60v324h100v-270z" />
    <glyph glyph-name="Nacute" unicode="&#x143;" horiz-adv-x="724" 
d="M644 0h-171l-286 603h-2v-603h-105v700h171l286 -603h2v603h105v-700zM418 762h-103l65 117h144z" />
    <glyph glyph-name="nacute" unicode="&#x144;" horiz-adv-x="588" 
d="M342 572q48 0 83 -17t58 -45t34 -64.5t11 -76.5v-369h-100v347q0 63 -25 99t-88 36q-31 0 -57.5 -12t-46 -36t-30.5 -59.5t-11 -81.5v-293h-100v560h85l8 -74h3q28 39 70.5 62.5t105.5 23.5zM373 625h-103l65 117h144z" />
    <glyph glyph-name="Ncommaaccent" unicode="&#x145;" horiz-adv-x="724" 
d="M644 0h-171l-286 603h-2v-603h-105v700h171l286 -603h2v603h105v-700zM367 -55q31 0 50 -21.5t19 -56.5q0 -38 -19.5 -72t-40.5 -58h-41v5q12 18 21 37t9 43q-34 0 -48.5 16.5t-14.5 42.5q0 29 16.5 46.5t48.5 17.5z" />
    <glyph glyph-name="ncommaaccent" unicode="&#x146;" horiz-adv-x="588" 
d="M342 572q48 0 83 -17t58 -45t34 -64.5t11 -76.5v-369h-100v347q0 63 -25 99t-88 36q-31 0 -57.5 -12t-46 -36t-30.5 -59.5t-11 -81.5v-293h-100v560h85l8 -74h3q28 39 70.5 62.5t105.5 23.5zM294 -55q31 0 50 -21.5t19 -56.5q0 -38 -19.5 -72t-40.5 -58h-41v5
q12 18 21 37t9 43q-34 0 -48.5 16.5t-14.5 42.5q0 29 16.5 46.5t48.5 17.5z" />
    <glyph glyph-name="Ncaron" unicode="&#x147;" horiz-adv-x="724" 
d="M644 0h-171l-286 603h-2v-603h-105v700h171l286 -603h2v603h105v-700zM439 762h-145l-86 117h106l51 -79h3l51 79h106z" />
    <glyph glyph-name="ncaron" unicode="&#x148;" horiz-adv-x="588" 
d="M342 572q48 0 83 -17t58 -45t34 -64.5t11 -76.5v-369h-100v347q0 63 -25 99t-88 36q-31 0 -57.5 -12t-46 -36t-30.5 -59.5t-11 -81.5v-293h-100v560h85l8 -74h3q28 39 70.5 62.5t105.5 23.5zM394 625h-145l-86 117h106l51 -79h3l51 79h106z" />
    <glyph glyph-name="Eng" unicode="&#x14a;" horiz-adv-x="710" 
d="M80 700h162l286 -603h2v603h105v-759q0 -37 -10.5 -63t-28.5 -42.5t-41 -24t-47 -7.5q-25 0 -49 5.5t-40 13.5l16 95h2q10 -5 24 -9.5t25 -4.5q24 0 36.5 13.5t12.5 49.5v33h-62l-286 603h-2v-603h-105v700z" />
    <glyph glyph-name="eng" unicode="&#x14b;" horiz-adv-x="588" 
d="M342 572q48 0 83 -17t58 -45t34 -64.5t11 -76.5v-427q0 -37 -10.5 -63t-28 -42.5t-40 -24t-46.5 -7.5q-26 0 -51 5.5t-41 13.5l14 94h2q10 -5 26 -9t30 -4q21 0 33 11.5t12 44.5v386q0 63 -25 99t-88 36q-31 0 -57.5 -12t-46 -36t-30.5 -59.5t-11 -81.5v-293h-100v560h85
l8 -74h3q28 39 70.5 62.5t105.5 23.5z" />
    <glyph glyph-name="Omacron" unicode="&#x14c;" horiz-adv-x="718" 
d="M359 712q71 0 129 -29.5t99 -79.5t63.5 -115t22.5 -135q0 -80 -20.5 -147t-60.5 -115.5t-98.5 -75.5t-134.5 -27t-134.5 27t-98.5 75.5t-60.5 115.5t-20.5 147q0 70 22.5 135t63.5 115t99 79.5t129 29.5zM359 620q-51 0 -90 -22.5t-65.5 -60t-40 -85.5t-13.5 -99
q0 -58 13.5 -107t40 -84.5t65.5 -55.5t90 -20t90 19.5t65.5 55t40 84.5t13.5 108q0 51 -13.5 99.5t-40 85.5t-65.5 59.5t-90 22.5zM509 763h-300v85h300v-85z" />
    <glyph glyph-name="omacron" unicode="&#x14d;" horiz-adv-x="610" 
d="M305 572q54 0 102 -22.5t84.5 -62.5t57.5 -93.5t21 -115.5t-17 -115t-50.5 -92t-83 -61t-114.5 -22t-114.5 22t-83 61t-50.5 92t-17 115t21 115.5t57.5 93.5t84.5 62.5t102 22.5zM305 482q-38 0 -68.5 -17t-52 -45.5t-33 -65t-11.5 -76.5q0 -89 42.5 -142.5t122.5 -53.5
t122.5 53.5t42.5 142.5q0 40 -11.5 76.5t-33 65t-52 45.5t-68.5 17zM455 625h-300v85h300v-85z" />
    <glyph glyph-name="Obreve" unicode="&#x14e;" horiz-adv-x="718" 
d="M359 712q71 0 129 -29.5t99 -79.5t63.5 -115t22.5 -135q0 -80 -20.5 -147t-60.5 -115.5t-98.5 -75.5t-134.5 -27t-134.5 27t-98.5 75.5t-60.5 115.5t-20.5 147q0 70 22.5 135t63.5 115t99 79.5t129 29.5zM359 620q-51 0 -90 -22.5t-65.5 -60t-40 -85.5t-13.5 -99
q0 -58 13.5 -107t40 -84.5t65.5 -55.5t90 -20t90 19.5t65.5 55t40 84.5t13.5 108q0 51 -13.5 99.5t-40 85.5t-65.5 59.5t-90 22.5zM494 906q0 -68 -34.5 -109t-100.5 -41t-100.5 41t-34.5 109h54q2 -25 22.5 -41t58.5 -16t58.5 16t22.5 41h54z" />
    <glyph glyph-name="obreve" unicode="&#x14f;" horiz-adv-x="610" 
d="M305 572q54 0 102 -22.5t84.5 -62.5t57.5 -93.5t21 -115.5t-17 -115t-50.5 -92t-83 -61t-114.5 -22t-114.5 22t-83 61t-50.5 92t-17 115t21 115.5t57.5 93.5t84.5 62.5t102 22.5zM305 482q-38 0 -68.5 -17t-52 -45.5t-33 -65t-11.5 -76.5q0 -89 42.5 -142.5t122.5 -53.5
t122.5 53.5t42.5 142.5q0 40 -11.5 76.5t-33 65t-52 45.5t-68.5 17zM440 769q0 -68 -34.5 -109t-100.5 -41t-100.5 41t-34.5 109h54q2 -25 22.5 -41t58.5 -16t58.5 16t22.5 41h54z" />
    <glyph glyph-name="Ohungarumlaut" unicode="&#x150;" horiz-adv-x="718" 
d="M359 712q71 0 129 -29.5t99 -79.5t63.5 -115t22.5 -135q0 -80 -20.5 -147t-60.5 -115.5t-98.5 -75.5t-134.5 -27t-134.5 27t-98.5 75.5t-60.5 115.5t-20.5 147q0 70 22.5 135t63.5 115t99 79.5t129 29.5zM359 620q-51 0 -90 -22.5t-65.5 -60t-40 -85.5t-13.5 -99
q0 -58 13.5 -107t40 -84.5t65.5 -55.5t90 -20t90 19.5t65.5 55t40 84.5t13.5 108q0 51 -13.5 99.5t-40 85.5t-65.5 59.5t-90 22.5zM500 762h-104l75 117h133zM316 762h-104l75 117h133z" />
    <glyph glyph-name="ohungarumlaut" unicode="&#x151;" horiz-adv-x="610" 
d="M305 572q54 0 102 -22.5t84.5 -62.5t57.5 -93.5t21 -115.5t-17 -115t-50.5 -92t-83 -61t-114.5 -22t-114.5 22t-83 61t-50.5 92t-17 115t21 115.5t57.5 93.5t84.5 62.5t102 22.5zM305 482q-38 0 -68.5 -17t-52 -45.5t-33 -65t-11.5 -76.5q0 -89 42.5 -142.5t122.5 -53.5
t122.5 53.5t42.5 142.5q0 40 -11.5 76.5t-33 65t-52 45.5t-68.5 17zM445 625h-104l75 117h133zM261 625h-104l75 117h133z" />
    <glyph glyph-name="OE" unicode="&#x152;" horiz-adv-x="868" 
d="M359 712q23 0 44 -3.5t36 -8.5h369v-95h-282v-207h282v-88h-282v-215h282v-95h-360q-19 -6 -42.5 -9t-46.5 -3q-80 0 -139 27t-98 75t-58 114t-19 144t22 144.5t62.5 115.5t98.5 76.5t131 27.5zM359 613q-52 0 -91 -19.5t-65.5 -55t-39.5 -84t-13 -106.5t14 -106
t40.5 -82.5t65.5 -53.5t89 -19q19 0 37 3t30 9v500q-12 6 -29.5 10t-37.5 4z" />
    <glyph glyph-name="oe" unicode="&#x153;" horiz-adv-x="1012" 
d="M726 572q52 0 97 -20.5t78 -57.5t52 -89t19 -114q0 -6 -0.5 -13.5t-0.5 -13.5v-15h-405q1 -37 13.5 -68t34.5 -53.5t52 -35.5t68 -13q31 0 57.5 9.5t47.5 24.5t37 32.5t26 33.5h4l43 -93q-14 -18 -35.5 -36t-49 -31.5t-60.5 -22t-70 -8.5q-75 0 -128.5 28t-86.5 78
q-33 -50 -86.5 -78t-127.5 -28q-65 0 -114.5 22t-83 61t-50.5 92t-17 115t21 115.5t57.5 93.5t84.5 62.5t102 22.5q65 0 120.5 -32t92.5 -87q35 55 89.5 87t118.5 32zM305 484q-38 0 -69 -17.5t-53 -46t-33.5 -65.5t-11.5 -77q0 -44 11 -80.5t32.5 -62.5t52.5 -40.5
t71 -14.5q80 0 123.5 53.5t43.5 147.5q0 40 -12 77t-33.5 65t-52.5 44.5t-69 16.5zM726 485q-33 0 -60 -12.5t-47 -33.5t-32.5 -49.5t-16.5 -59.5h305q-4 69 -43.5 112t-105.5 43z" />
    <glyph glyph-name="Racute" unicode="&#x154;" horiz-adv-x="636" 
d="M351 700q114 0 171 -52.5t57 -151.5q0 -48 -16.5 -83.5t-45.5 -60t-68 -38.5t-83 -17l215 -297h-133l-202 295h-61v-295h-105v700h271zM185 605v-220h136q73 0 113 27.5t40 83.5t-30 82.5t-109 26.5h-150zM359 762h-103l65 117h144z" />
    <glyph glyph-name="racute" unicode="&#x155;" horiz-adv-x="387" 
d="M281 572q31 0 55.5 -11t35.5 -24l-19 -106h-5q-14 15 -36 25.5t-48 10.5q-45 0 -69.5 -40t-24.5 -113v-314h-100v560h87l9 -74h3q9 24 21.5 40.5t27.5 26.5t31.5 14.5t31.5 4.5zM277 625h-103l65 117h144z" />
    <glyph glyph-name="Rcommaaccent" unicode="&#x156;" horiz-adv-x="636" 
d="M351 700q114 0 171 -52.5t57 -151.5q0 -48 -16.5 -83.5t-45.5 -60t-68 -38.5t-83 -17l215 -297h-133l-202 295h-61v-295h-105v700h271zM185 605v-220h136q73 0 113 27.5t40 83.5t-30 82.5t-109 26.5h-150zM311 -55q31 0 50 -21.5t19 -56.5q0 -38 -19.5 -72t-40.5 -58h-41
v5q12 18 21 37t9 43q-34 0 -48.5 16.5t-14.5 42.5q0 29 16.5 46.5t48.5 17.5z" />
    <glyph glyph-name="rcommaaccent" unicode="&#x157;" horiz-adv-x="387" 
d="M281 572q31 0 55.5 -11t35.5 -24l-19 -106h-5q-14 15 -36 25.5t-48 10.5q-45 0 -69.5 -40t-24.5 -113v-314h-100v560h87l9 -74h3q9 24 21.5 40.5t27.5 26.5t31.5 14.5t31.5 4.5zM125 -55q31 0 50 -21.5t19 -56.5q0 -38 -19.5 -72t-40.5 -58h-41v5q12 18 21 37t9 43
q-34 0 -48.5 16.5t-14.5 42.5q0 29 16.5 46.5t48.5 17.5z" />
    <glyph glyph-name="Rcaron" unicode="&#x158;" horiz-adv-x="636" 
d="M351 700q114 0 171 -52.5t57 -151.5q0 -48 -16.5 -83.5t-45.5 -60t-68 -38.5t-83 -17l215 -297h-133l-202 295h-61v-295h-105v700h271zM185 605v-220h136q73 0 113 27.5t40 83.5t-30 82.5t-109 26.5h-150zM380 762h-145l-86 117h106l51 -79h3l51 79h106z" />
    <glyph glyph-name="rcaron" unicode="&#x159;" horiz-adv-x="387" 
d="M281 572q31 0 55.5 -11t35.5 -24l-19 -106h-5q-14 15 -36 25.5t-48 10.5q-45 0 -69.5 -40t-24.5 -113v-314h-100v560h87l9 -74h3q9 24 21.5 40.5t27.5 26.5t31.5 14.5t31.5 4.5zM298 625h-145l-86 117h106l51 -79h3l51 79h106z" />
    <glyph glyph-name="Sacute" unicode="&#x15a;" horiz-adv-x="608" 
d="M275 712q49 0 89.5 -11.5t73 -30t56.5 -41t39 -43.5l-54 -95h-5q-15 22 -35 44.5t-44 40.5t-53 29.5t-62 11.5q-31 0 -54 -8t-38 -21.5t-22.5 -30.5t-7.5 -34q0 -21 6 -37.5t24 -30t51.5 -26.5t88.5 -28q43 -12 85.5 -26t77 -37t56 -58.5t21.5 -89.5q0 -53 -19.5 -91.5
t-53.5 -63t-79 -36t-96 -11.5q-53 0 -99 12.5t-83 32.5t-64.5 44t-43.5 47l54 97h5q16 -23 39 -47t51.5 -43.5t62.5 -32t73 -12.5q83 0 117 27.5t34 70.5q0 33 -16 53.5t-42.5 34t-61 23t-71.5 19.5q-50 14 -90.5 31.5t-69.5 41.5t-45 57t-16 78q0 40 16 75t45 60.5t69.5 40
t90.5 14.5zM327 762h-103l65 117h144z" />
    <glyph glyph-name="sacute" unicode="&#x15b;" horiz-adv-x="524" 
d="M248 572q44 0 80 -11t63.5 -27t47.5 -34.5t31 -34.5l-50 -84h-5q-12 19 -29.5 37t-39 32t-47 23t-53.5 9q-45 0 -68.5 -22t-23.5 -48q0 -12 3 -22.5t17.5 -21t44.5 -22.5t83 -26q46 -12 80.5 -27t57 -35t33.5 -47t11 -63t-15 -65.5t-41.5 -50.5t-63.5 -32.5t-82 -11.5
q-44 0 -81.5 10t-68.5 26.5t-54.5 37t-37.5 40.5l51 89h5q14 -22 33 -42.5t42 -36t50 -24.5t57 -9q60 0 85.5 19t25.5 50q0 14 -4.5 25.5t-21 23t-49 23.5t-88.5 27q-87 23 -128.5 60.5t-41.5 102.5q0 31 12.5 60.5t37 52t60.5 36t82 13.5zM299 625h-103l65 117h144z" />
    <glyph glyph-name="Scircumflex" unicode="&#x15c;" horiz-adv-x="608" 
d="M275 712q49 0 89.5 -11.5t73 -30t56.5 -41t39 -43.5l-54 -95h-5q-15 22 -35 44.5t-44 40.5t-53 29.5t-62 11.5q-31 0 -54 -8t-38 -21.5t-22.5 -30.5t-7.5 -34q0 -21 6 -37.5t24 -30t51.5 -26.5t88.5 -28q43 -12 85.5 -26t77 -37t56 -58.5t21.5 -89.5q0 -53 -19.5 -91.5
t-53.5 -63t-79 -36t-96 -11.5q-53 0 -99 12.5t-83 32.5t-64.5 44t-43.5 47l54 97h5q16 -23 39 -47t51.5 -43.5t62.5 -32t73 -12.5q83 0 117 27.5t34 70.5q0 33 -16 53.5t-42.5 34t-61 23t-71.5 19.5q-50 14 -90.5 31.5t-69.5 41.5t-45 57t-16 78q0 40 16 75t45 60.5t69.5 40
t90.5 14.5zM434 762h-106l-51 79h-3l-51 -79h-106l86 117h145z" />
    <glyph glyph-name="scircumflex" unicode="&#x15d;" horiz-adv-x="524" 
d="M248 572q44 0 80 -11t63.5 -27t47.5 -34.5t31 -34.5l-50 -84h-5q-12 19 -29.5 37t-39 32t-47 23t-53.5 9q-45 0 -68.5 -22t-23.5 -48q0 -12 3 -22.5t17.5 -21t44.5 -22.5t83 -26q46 -12 80.5 -27t57 -35t33.5 -47t11 -63t-15 -65.5t-41.5 -50.5t-63.5 -32.5t-82 -11.5
q-44 0 -81.5 10t-68.5 26.5t-54.5 37t-37.5 40.5l51 89h5q14 -22 33 -42.5t42 -36t50 -24.5t57 -9q60 0 85.5 19t25.5 50q0 14 -4.5 25.5t-21 23t-49 23.5t-88.5 27q-87 23 -128.5 60.5t-41.5 102.5q0 31 12.5 60.5t37 52t60.5 36t82 13.5zM406 625h-106l-51 79h-3l-51 -79
h-106l86 117h145z" />
    <glyph glyph-name="Scedilla" unicode="&#x15e;" horiz-adv-x="608" 
d="M275 712q49 0 89.5 -11.5t73 -30t56.5 -41t39 -43.5l-54 -95h-5q-15 22 -35 44.5t-44 40.5t-53 29.5t-62 11.5q-31 0 -54 -8t-38 -21.5t-22.5 -30.5t-7.5 -34q0 -21 6 -37.5t24 -30t51.5 -26.5t88.5 -28q43 -12 85.5 -26t77 -37t56 -58.5t21.5 -89.5q0 -53 -19.5 -91.5
t-53.5 -63t-79 -36t-96 -11.5q-53 0 -99 12.5t-83 32.5t-64.5 44t-43.5 47l54 97h5q16 -23 39 -47t51.5 -43.5t62.5 -32t73 -12.5q83 0 117 27.5t34 70.5q0 33 -16 53.5t-42.5 34t-61 23t-71.5 19.5q-50 14 -90.5 31.5t-69.5 41.5t-45 57t-16 78q0 40 16 75t45 60.5t69.5 40
t90.5 14.5zM294 -74l1 -1q29 16 70 16q36 0 60 -21t24 -66t-30.5 -70.5t-84.5 -25.5q-44 0 -69.5 10t-39.5 21l16 58h5q11 -11 31.5 -19.5t41.5 -8.5t35 9t14 27q0 19 -14.5 28.5t-34.5 9.5q-17 0 -29.5 -4t-22.5 -11l-34 24l55 98h52z" />
    <glyph glyph-name="scedilla" unicode="&#x15f;" horiz-adv-x="524" 
d="M248 572q44 0 80 -11t63.5 -27t47.5 -34.5t31 -34.5l-50 -84h-5q-12 19 -29.5 37t-39 32t-47 23t-53.5 9q-45 0 -68.5 -22t-23.5 -48q0 -12 3 -22.5t17.5 -21t44.5 -22.5t83 -26q46 -12 80.5 -27t57 -35t33.5 -47t11 -63t-15 -65.5t-41.5 -50.5t-63.5 -32.5t-82 -11.5
q-44 0 -81.5 10t-68.5 26.5t-54.5 37t-37.5 40.5l51 89h5q14 -22 33 -42.5t42 -36t50 -24.5t57 -9q60 0 85.5 19t25.5 50q0 14 -4.5 25.5t-21 23t-49 23.5t-88.5 27q-87 23 -128.5 60.5t-41.5 102.5q0 31 12.5 60.5t37 52t60.5 36t82 13.5zM250 -74l1 -1q29 16 70 16
q36 0 60 -21t24 -66t-30.5 -70.5t-84.5 -25.5q-44 0 -69.5 10t-39.5 21l16 58h5q11 -11 31.5 -19.5t41.5 -8.5t35 9t14 27q0 19 -14.5 28.5t-34.5 9.5q-17 0 -29.5 -4t-22.5 -11l-34 24l55 98h52z" />
    <glyph glyph-name="Scaron" unicode="&#x160;" horiz-adv-x="608" 
d="M275 712q49 0 89.5 -11.5t73 -30t56.5 -41t39 -43.5l-54 -95h-5q-15 22 -35 44.5t-44 40.5t-53 29.5t-62 11.5q-31 0 -54 -8t-38 -21.5t-22.5 -30.5t-7.5 -34q0 -21 6 -37.5t24 -30t51.5 -26.5t88.5 -28q43 -12 85.5 -26t77 -37t56 -58.5t21.5 -89.5q0 -53 -19.5 -91.5
t-53.5 -63t-79 -36t-96 -11.5q-53 0 -99 12.5t-83 32.5t-64.5 44t-43.5 47l54 97h5q16 -23 39 -47t51.5 -43.5t62.5 -32t73 -12.5q83 0 117 27.5t34 70.5q0 33 -16 53.5t-42.5 34t-61 23t-71.5 19.5q-50 14 -90.5 31.5t-69.5 41.5t-45 57t-16 78q0 40 16 75t45 60.5t69.5 40
t90.5 14.5zM348 762h-145l-86 117h106l51 -79h3l51 79h106z" />
    <glyph glyph-name="scaron" unicode="&#x161;" horiz-adv-x="524" 
d="M248 572q44 0 80 -11t63.5 -27t47.5 -34.5t31 -34.5l-50 -84h-5q-12 19 -29.5 37t-39 32t-47 23t-53.5 9q-45 0 -68.5 -22t-23.5 -48q0 -12 3 -22.5t17.5 -21t44.5 -22.5t83 -26q46 -12 80.5 -27t57 -35t33.5 -47t11 -63t-15 -65.5t-41.5 -50.5t-63.5 -32.5t-82 -11.5
q-44 0 -81.5 10t-68.5 26.5t-54.5 37t-37.5 40.5l51 89h5q14 -22 33 -42.5t42 -36t50 -24.5t57 -9q60 0 85.5 19t25.5 50q0 14 -4.5 25.5t-21 23t-49 23.5t-88.5 27q-87 23 -128.5 60.5t-41.5 102.5q0 31 12.5 60.5t37 52t60.5 36t82 13.5zM320 625h-145l-86 117h106l51 -79
h3l51 79h106z" />
    <glyph glyph-name="Tcedilla" unicode="&#x162;" horiz-adv-x="535" 
d="M515 605h-196v-605h-105v605h-194v95h495v-95zM236 -74l1 -1q29 16 70 16q36 0 60 -21t24 -66t-30.5 -70.5t-84.5 -25.5q-44 0 -69.5 10t-39.5 21l16 58h5q11 -11 31.5 -19.5t41.5 -8.5t35 9t14 27q0 19 -14.5 28.5t-34.5 9.5q-17 0 -29.5 -4t-22.5 -11l-34 24l55 98h52z
" />
    <glyph glyph-name="tcedilla" unicode="&#x163;" horiz-adv-x="404" 
d="M214 560h165v-90h-165v-334q0 -28 12 -39.5t32 -11.5t38 9.5t28 15.5h5l24 -92q-17 -11 -48.5 -20.5t-61.5 -9.5q-24 0 -47.5 7t-41.5 22t-29 38t-11 55v360h-89v58q54 24 84.5 68.5t46.5 103.5h58v-140zM200 -74l1 -1q29 16 70 16q36 0 60 -21t24 -66t-30.5 -70.5
t-84.5 -25.5q-44 0 -69.5 10t-39.5 21l16 58h5q11 -11 31.5 -19.5t41.5 -8.5t35 9t14 27q0 19 -14.5 28.5t-34.5 9.5q-17 0 -29.5 -4t-22.5 -11l-34 24l55 98h52z" />
    <glyph glyph-name="Tcaron" unicode="&#x164;" horiz-adv-x="535" 
d="M515 605h-196v-605h-105v605h-194v95h495v-95zM340 762h-145l-86 117h106l51 -79h3l51 79h106z" />
    <glyph glyph-name="tcaron" unicode="&#x165;" horiz-adv-x="404" 
d="M214 560h165v-90h-165v-334q0 -28 12 -39.5t32 -11.5t38 9.5t28 15.5h5l24 -92q-17 -11 -48.5 -20.5t-61.5 -9.5q-24 0 -47.5 7t-41.5 22t-29 38t-11 55v360h-89v58q54 24 84.5 68.5t46.5 103.5h58v-140zM305 821q32 0 49.5 -21t17.5 -56q0 -19 -5.5 -39t-14.5 -39
t-20 -35t-21 -28h-43v3q12 19 24 43.5t12 47.5h-9q-25 0 -40 17.5t-15 43.5q0 29 17 46t48 17z" />
    <glyph glyph-name="Tbar" unicode="&#x166;" horiz-adv-x="535" 
d="M515 605h-196v-218h150v-90h-150v-297h-105v297h-145v90h145v218h-194v95h495v-95z" />
    <glyph glyph-name="tbar" unicode="&#x167;" horiz-adv-x="424" 
d="M224 560h165v-90h-165v-128h165v-90h-165v-116q0 -28 12 -39.5t32 -11.5t39.5 10.5t29.5 16.5h2l24 -94q-17 -11 -48.5 -20.5t-61.5 -9.5q-24 0 -47.5 7t-41.5 22t-29 38t-11 55v142h-89v90h89v128h-89v58q54 24 84.5 68.5t46.5 103.5h58v-140z" />
    <glyph glyph-name="Utilde" unicode="&#x168;" horiz-adv-x="683" 
d="M613 258q0 -60 -16.5 -109.5t-49.5 -85.5t-84 -55.5t-120 -19.5t-120.5 19.5t-85 55.5t-50.5 85.5t-17 109.5v442h105v-436q0 -90 42.5 -135.5t125.5 -45.5q165 0 165 181v436h105v-442zM286 886q21 0 37 -6t29.5 -13t25.5 -13t25 -6q16 0 24 8.5t12 24.5h52
q-4 -24 -10.5 -46.5t-17.5 -39.5t-27 -27.5t-38 -10.5q-21 0 -37 6t-30 13l-26 13t-25 6q-28 0 -36 -33h-51q3 24 9.5 46.5t17.5 39.5t27 27.5t39 10.5z" />
    <glyph glyph-name="utilde" unicode="&#x169;" horiz-adv-x="569" 
d="M499 0h-86l-12 74h-3q-20 -37 -59 -61.5t-102 -24.5q-46 0 -79.5 15t-55 42t-32 64t-10.5 82v369h100v-356q0 -58 21 -91.5t77 -33.5q28 0 54 11t45 32.5t30.5 54t11.5 74.5v309h100v-560zM229 749q21 0 37 -6t29.5 -13t25.5 -13t25 -6q16 0 24 8.5t12 24.5h52
q-4 -24 -10.5 -46.5t-17.5 -39.5t-27 -27.5t-38 -10.5q-21 0 -37 6t-30 13l-26 13t-25 6q-28 0 -36 -33h-51q3 24 9.5 46.5t17.5 39.5t27 27.5t39 10.5z" />
    <glyph glyph-name="Umacron" unicode="&#x16a;" horiz-adv-x="683" 
d="M613 258q0 -60 -16.5 -109.5t-49.5 -85.5t-84 -55.5t-120 -19.5t-120.5 19.5t-85 55.5t-50.5 85.5t-17 109.5v442h105v-436q0 -90 42.5 -135.5t125.5 -45.5q165 0 165 181v436h105v-442zM492 763h-300v85h300v-85z" />
    <glyph glyph-name="umacron" unicode="&#x16b;" horiz-adv-x="569" 
d="M499 0h-86l-12 74h-3q-20 -37 -59 -61.5t-102 -24.5q-46 0 -79.5 15t-55 42t-32 64t-10.5 82v369h100v-356q0 -58 21 -91.5t77 -33.5q28 0 54 11t45 32.5t30.5 54t11.5 74.5v309h100v-560zM435 625h-300v85h300v-85z" />
    <glyph glyph-name="Ubreve" unicode="&#x16c;" horiz-adv-x="683" 
d="M613 258q0 -60 -16.5 -109.5t-49.5 -85.5t-84 -55.5t-120 -19.5t-120.5 19.5t-85 55.5t-50.5 85.5t-17 109.5v442h105v-436q0 -90 42.5 -135.5t125.5 -45.5q165 0 165 181v436h105v-442zM477 906q0 -68 -34.5 -109t-100.5 -41t-100.5 41t-34.5 109h54q2 -25 22.5 -41
t58.5 -16t58.5 16t22.5 41h54z" />
    <glyph glyph-name="ubreve" unicode="&#x16d;" horiz-adv-x="569" 
d="M499 0h-86l-12 74h-3q-20 -37 -59 -61.5t-102 -24.5q-46 0 -79.5 15t-55 42t-32 64t-10.5 82v369h100v-356q0 -58 21 -91.5t77 -33.5q28 0 54 11t45 32.5t30.5 54t11.5 74.5v309h100v-560zM420 769q0 -68 -34.5 -109t-100.5 -41t-100.5 41t-34.5 109h54q2 -25 22.5 -41
t58.5 -16t58.5 16t22.5 41h54z" />
    <glyph glyph-name="Uring" unicode="&#x16e;" horiz-adv-x="683" 
d="M613 258q0 -60 -16.5 -109.5t-49.5 -85.5t-84 -55.5t-120 -19.5t-120.5 19.5t-85 55.5t-50.5 85.5t-17 109.5v442h105v-436q0 -90 42.5 -135.5t125.5 -45.5q165 0 165 181v436h105v-442zM342 959q24 0 44.5 -9t35.5 -24t23.5 -35.5t8.5 -43.5t-9 -43.5t-24 -35.5
t-35.5 -24t-43.5 -9t-43.5 8.5t-35.5 23.5t-24 35.5t-9 44.5q0 48 32 80t80 32zM342 890q-18 0 -30.5 -12.5t-12.5 -30.5t12.5 -30.5t30.5 -12.5t30.5 12.5t12.5 30.5t-12.5 30.5t-30.5 12.5z" />
    <glyph glyph-name="uring" unicode="&#x16f;" horiz-adv-x="569" 
d="M499 0h-86l-12 74h-3q-20 -37 -59 -61.5t-102 -24.5q-46 0 -79.5 15t-55 42t-32 64t-10.5 82v369h100v-356q0 -58 21 -91.5t77 -33.5q28 0 54 11t45 32.5t30.5 54t11.5 74.5v309h100v-560zM285 822q24 0 44.5 -9t35.5 -24t23.5 -35.5t8.5 -43.5t-9 -43.5t-24 -35.5
t-35.5 -24t-43.5 -9t-43.5 8.5t-35.5 23.5t-24 35.5t-9 44.5q0 48 32 80t80 32zM285 753q-18 0 -30.5 -11.5t-12.5 -31.5q0 -21 12.5 -32t30.5 -11t30.5 11t12.5 32q0 20 -12.5 31.5t-30.5 11.5z" />
    <glyph glyph-name="Uhungarumlaut" unicode="&#x170;" horiz-adv-x="683" 
d="M613 258q0 -60 -16.5 -109.5t-49.5 -85.5t-84 -55.5t-120 -19.5t-120.5 19.5t-85 55.5t-50.5 85.5t-17 109.5v442h105v-436q0 -90 42.5 -135.5t125.5 -45.5q165 0 165 181v436h105v-442zM483 762h-104l75 117h133zM299 762h-104l75 117h133z" />
    <glyph glyph-name="uhungarumlaut" unicode="&#x171;" horiz-adv-x="569" 
d="M499 0h-86l-12 74h-3q-20 -37 -59 -61.5t-102 -24.5q-46 0 -79.5 15t-55 42t-32 64t-10.5 82v369h100v-356q0 -58 21 -91.5t77 -33.5q28 0 54 11t45 32.5t30.5 54t11.5 74.5v309h100v-560zM425 625h-104l75 117h133zM241 625h-104l75 117h133z" />
    <glyph glyph-name="Uogonek" unicode="&#x172;" horiz-adv-x="683" 
d="M613 258q0 -60 -16.5 -109.5t-49.5 -85.5t-84 -55.5t-120 -19.5t-120.5 19.5t-85 55.5t-50.5 85.5t-17 109.5v442h105v-436q0 -90 42.5 -135.5t125.5 -45.5q165 0 165 181v436h105v-442zM435 0q-13 -6 -24.5 -17t-20 -24.5t-13.5 -28.5t-5 -30q0 -17 9 -28.5t30 -11.5
q18 0 33 11.5t25 28.5h5l33 -46q-20 -35 -52.5 -56.5t-73.5 -21.5q-48 0 -74.5 24.5t-26.5 67.5q0 36 18.5 72.5t54.5 59.5h82z" />
    <glyph glyph-name="uogonek" unicode="&#x173;" horiz-adv-x="569" 
d="M499 0h-86l-12 74h-3q-20 -37 -59 -61.5t-102 -24.5q-46 0 -79.5 15t-55 42t-32 64t-10.5 82v369h100v-356q0 -58 21 -91.5t77 -33.5q28 0 54 11t45 32.5t30.5 54t11.5 74.5v309h100v-560zM495 0q-13 -6 -24.5 -17t-20 -24.5t-13.5 -28.5t-5 -30q0 -17 9 -28.5t30 -11.5
q18 0 33 11.5t25 28.5h5l33 -46q-20 -35 -52.5 -56.5t-73.5 -21.5q-48 0 -74.5 24.5t-26.5 67.5q0 36 18.5 72.5t54.5 59.5h82z" />
    <glyph glyph-name="Wcircumflex" unicode="&#x174;" horiz-adv-x="978" 
d="M774 0h-149l-135 586h-2l-135 -586h-149l-174 700h113l132 -585h2l136 585h152l136 -585h2l132 585h113zM647 762h-106l-51 79h-3l-51 -79h-106l86 117h145z" />
    <glyph glyph-name="wcircumflex" unicode="&#x175;" horiz-adv-x="832" 
d="M672 0h-135l-120 465h-2l-120 -465h-135l-135 560h106l96 -459h2l118 459h138l118 -459h2l96 459h106zM574 625h-106l-51 79h-3l-51 -79h-106l86 117h145z" />
    <glyph glyph-name="Ycircumflex" unicode="&#x176;" horiz-adv-x="561" 
d="M331 263v-263h-101v263l-220 437h118l152 -325l153 325h118zM439 762h-106l-51 79h-3l-51 -79h-106l86 117h145z" />
    <glyph glyph-name="ycircumflex" unicode="&#x177;" horiz-adv-x="530" 
d="M254 -185h-115l77 219l-196 526h110l140 -415h2l128 415h110zM423 625h-106l-51 79h-3l-51 -79h-106l86 117h145z" />
    <glyph glyph-name="Ydieresis" unicode="&#x178;" horiz-adv-x="561" 
d="M331 263v-263h-101v263l-220 437h118l152 -325l153 325h118zM180 878q29 0 45 -16.5t16 -44.5t-16 -44.5t-45 -16.5q-30 0 -46 16.5t-16 44.5t16 44.5t46 16.5zM382 878q29 0 45 -16.5t16 -44.5t-16 -44.5t-45 -16.5q-30 0 -46 16.5t-16 44.5t16 44.5t46 16.5z" />
    <glyph glyph-name="Zacute" unicode="&#x179;" horiz-adv-x="530" 
d="M500 595l-356 -500h346v-95h-460v105l360 500h-351v95h461v-105zM316 762h-103l65 117h144z" />
    <glyph glyph-name="zacute" unicode="&#x17a;" horiz-adv-x="503" 
d="M443 454l-281 -363h281v-91h-383v106l281 364h-281v90h383v-106zM303 625h-103l65 117h144z" />
    <glyph glyph-name="Zdotaccent" unicode="&#x17b;" horiz-adv-x="530" 
d="M500 595l-356 -500h346v-95h-460v105l360 500h-351v95h461v-105zM265 888q32 0 49 -18.5t17 -47.5t-17 -47.5t-49 -18.5t-49.5 18.5t-17.5 47.5t17.5 47.5t49.5 18.5z" />
    <glyph glyph-name="zdotaccent" unicode="&#x17c;" horiz-adv-x="503" 
d="M443 454l-281 -363h281v-91h-383v106l281 364h-281v90h383v-106zM252 746q32 0 49 -18.5t17 -47.5t-17 -47.5t-49 -18.5t-49.5 18.5t-17.5 47.5t17.5 47.5t49.5 18.5z" />
    <glyph glyph-name="Zcaron" unicode="&#x17d;" horiz-adv-x="530" 
d="M500 595l-356 -500h346v-95h-460v105l360 500h-351v95h461v-105zM337 762h-145l-86 117h106l51 -79h3l51 79h106z" />
    <glyph glyph-name="zcaron" unicode="&#x17e;" horiz-adv-x="503" 
d="M443 454l-281 -363h281v-91h-383v106l281 364h-281v90h383v-106zM324 625h-145l-86 117h106l51 -79h3l51 79h106z" />
    <glyph glyph-name="longs" unicode="&#x17f;" horiz-adv-x="290" 
d="M234 806q47 0 79.5 -16.5t46.5 -28.5l-24 -98h-4q-11 12 -32 27.5t-49 15.5q-20 0 -32 -12t-12 -40v-654h-100v470h-97v90h97v109q0 37 10.5 63t28.5 42.5t41 24t47 7.5z" />
    <glyph glyph-name="Ereversed" unicode="&#x18e;" horiz-adv-x="563" 
d="M60.0303 605h317.981v-207h-317.981v-90h317.981v-213h-317.981v-95h422.975v700h-422.975v-95z" />
    <glyph glyph-name="Schwa" unicode="&#x18f;" horiz-adv-x="722" 
d="M353 712q80 0 140 -31t99.5 -81.5t59.5 -116t20 -134.5q0 -83 -23 -149.5t-64.5 -113.5t-100 -72.5t-129.5 -25.5t-127.5 25.5t-96 71.5t-60.5 110t-21 141v16.5t1 16.5q0 9 1 19h512q-12 108 -63.5 168t-145.5 60q-38 0 -71.5 -11.5t-61.5 -29.5t-50 -40t-35 -43h-5
l-46 100q17 23 44 45t61.5 38.5t75.5 26.5t86 10zM158 293q2 -39 14.5 -76.5t36.5 -66.5t60.5 -46.5t85.5 -17.5t86.5 17t63 45.5t40 66t17.5 78.5h-404z" />
    <glyph glyph-name="florin" unicode="&#x192;" horiz-adv-x="462" 
d="M338 712q46 0 80 -18.5t54 -41.5l-32 -85h-5q-14 17 -35.5 33t-46.5 16t-38 -12.5t-17 -41.5l-106 -747h-97l84 590h-119v90h130l13 89q4 27 13 50.5t25 40.5t39.5 27t57.5 10z" />
    <glyph glyph-name="Aringacute" unicode="&#x1fa;" horiz-adv-x="676" 
d="M661 0h-113l-65 192h-290l-65 -192h-113l245 700h156zM336 612l-114 -330h232l-114 330h-4zM338 959q24 0 44.5 -9t35.5 -24t23.5 -35.5t8.5 -43.5t-9 -43.5t-24 -35.5t-35.5 -24t-43.5 -9t-43.5 8.5t-35.5 23.5t-24 35.5t-9 44.5q0 48 32 80t80 32zM338 890
q-18 0 -30.5 -12.5t-12.5 -30.5t12.5 -30.5t30.5 -12.5t30.5 12.5t12.5 30.5t-12.5 30.5t-30.5 12.5zM389 979h-103l65 117h144z" />
    <glyph glyph-name="aringacute" unicode="&#x1fb;" horiz-adv-x="531" 
d="M268 572q98 0 150.5 -50t52.5 -131v-391h-82l-12 74h-3q-25 -39 -66 -62.5t-100 -23.5q-80 0 -121.5 41t-41.5 113q0 66 38.5 110t136.5 64q50 10 80 20t45.5 21t20.5 23t5 27q0 34 -25 54.5t-79 20.5t-93.5 -31.5t-66.5 -81.5h-4l-57 84q33 52 90.5 85.5t131.5 33.5z
M369 290q-5 -9 -13 -16t-21.5 -13t-35 -12.5t-52.5 -13.5q-63 -15 -84.5 -37t-21.5 -52q0 -33 23.5 -51t56.5 -18q26 0 53 8.5t48.5 23.5t35 36t13.5 47v98h-2zM268 822q24 0 44.5 -9t35.5 -24t23.5 -35.5t8.5 -43.5t-9 -43.5t-24 -35.5t-35.5 -24t-43.5 -9t-43.5 8.5
t-35.5 23.5t-24 35.5t-9 44.5q0 48 32 80t80 32zM268 753q-18 0 -30.5 -11.5t-12.5 -31.5q0 -21 12.5 -32t30.5 -11t30.5 11t12.5 32q0 20 -12.5 31.5t-30.5 11.5zM319 842h-103l65 117h144z" />
    <glyph glyph-name="AEacute" unicode="&#x1fc;" horiz-adv-x="896" 
d="M836 605h-268v-207h268v-90h-268v-213h268v-95h-368v192h-255l-100 -192h-113l367 700h469v-95zM425 605l-165 -323h208v323h-43zM494 762h-103l65 117h144z" />
    <glyph glyph-name="aeacute" unicode="&#x1fd;" horiz-adv-x="905" 
d="M619 572q52 0 97 -20.5t78 -57.5t52 -89t19 -114q0 -6 -0.5 -13.5t-0.5 -13.5v-15h-405q1 -37 13.5 -68t34.5 -53.5t52 -35.5t68 -13q31 0 57.5 9.5t47.5 24.5t37 32.5t26 33.5h4l43 -93q-14 -18 -35.5 -36t-49 -31.5t-60.5 -22t-70 -8.5q-73 0 -126.5 27.5t-86.5 76.5
q-12 -18 -29.5 -36.5t-42.5 -33.5t-59 -24.5t-79 -9.5q-80 0 -121.5 41t-41.5 113q0 32 9 59t29.5 49t54 38t82.5 26q50 10 80 20.5t45.5 21.5t20.5 23.5t5 27.5q0 34 -25 55.5t-79 21.5q-53 0 -96.5 -32t-69.5 -85h-4l-53 85q34 53 92 86.5t132 33.5q59 0 104.5 -22
t70.5 -63q33 41 79.5 63t100.5 22zM365 291q-5 -9 -12.5 -16t-21.5 -13t-35.5 -12t-53.5 -14t-52.5 -17t-32.5 -19.5t-17 -23.5t-5 -30q0 -38 27.5 -54.5t65.5 -14.5q26 1 51 10.5t44.5 25t31.5 35.5t12 44v99h-2zM619 485q-33 0 -60 -12.5t-47 -33.5t-32.5 -49.5
t-16.5 -59.5h305q-4 69 -43.5 112t-105.5 43zM315 625h-103l65 117h144z" />
    <glyph glyph-name="Oslashacute" unicode="&#x1fe;" horiz-adv-x="718" 
d="M84 32l41 59q-40 49 -60 115t-20 147q0 70 22.5 135t63.5 115t99 79.5t129 29.5q45 0 85 -12.5t75 -35.5l37 54l75 -51l-44 -64q42 -51 64 -115t22 -135q0 -80 -20.5 -147t-60.5 -115.5t-98.5 -75.5t-134.5 -27q-95 0 -166 43l-34 -50zM359 620q-51 0 -90 -22.5
t-65.5 -60t-40 -85.5t-13.5 -99q0 -50 9.5 -92.5t29.5 -76.5l276 403q-22 15 -48.5 24t-57.5 9zM251 116q45 -30 108 -30q51 0 90 19.5t65.5 55t40 84.5t13.5 108q0 45 -10.5 87t-30.5 77zM410 762h-103l65 117h144z" />
    <glyph glyph-name="oslashacute" unicode="&#x1ff;" horiz-adv-x="610" 
d="M305 -12q-82 0 -141 35l-28 -39l-65 49l32 44q-32 38 -47.5 89.5t-15.5 111.5q0 62 21 115.5t57.5 93.5t84.5 62.5t102 22.5q35 0 67.5 -10t61.5 -28l33 45l68 -48l-38 -51q34 -40 53.5 -91t19.5 -111q0 -62 -17 -115t-50.5 -92t-83 -61t-114.5 -22zM305 482
q-38 0 -68.5 -17t-52 -45.5t-33 -65t-11.5 -76.5q0 -69 25 -116l216 298q-35 22 -76 22zM222 102q35 -20 83 -20q80 0 122.5 53.5t42.5 142.5q0 67 -31 121zM356 625h-103l65 117h144z" />
    <glyph glyph-name="Scommaaccent" unicode="&#x218;" horiz-adv-x="608" 
d="M275 712q49 0 89.5 -11.5t73 -30t56.5 -41t39 -43.5l-54 -95h-5q-15 22 -35 44.5t-44 40.5t-53 29.5t-62 11.5q-31 0 -54 -8t-38 -21.5t-22.5 -30.5t-7.5 -34q0 -21 6 -37.5t24 -30t51.5 -26.5t88.5 -28q43 -12 85.5 -26t77 -37t56 -58.5t21.5 -89.5q0 -53 -19.5 -91.5
t-53.5 -63t-79 -36t-96 -11.5q-53 0 -99 12.5t-83 32.5t-64.5 44t-43.5 47l54 97h5q16 -23 39 -47t51.5 -43.5t62.5 -32t73 -12.5q83 0 117 27.5t34 70.5q0 33 -16 53.5t-42.5 34t-61 23t-71.5 19.5q-50 14 -90.5 31.5t-69.5 41.5t-45 57t-16 78q0 40 16 75t45 60.5t69.5 40
t90.5 14.5zM326 -55q31 0 50 -21.5t19 -56.5q0 -38 -19.5 -72t-40.5 -58h-41v5q12 18 21 37t9 43q-34 0 -48.5 16.5t-14.5 42.5q0 29 16.5 46.5t48.5 17.5z" />
    <glyph glyph-name="scommaaccent" unicode="&#x219;" horiz-adv-x="524" 
d="M248 572q44 0 80 -11t63.5 -27t47.5 -34.5t31 -34.5l-50 -84h-5q-12 19 -29.5 37t-39 32t-47 23t-53.5 9q-45 0 -68.5 -22t-23.5 -48q0 -12 3 -22.5t17.5 -21t44.5 -22.5t83 -26q46 -12 80.5 -27t57 -35t33.5 -47t11 -63t-15 -65.5t-41.5 -50.5t-63.5 -32.5t-82 -11.5
q-44 0 -81.5 10t-68.5 26.5t-54.5 37t-37.5 40.5l51 89h5q14 -22 33 -42.5t42 -36t50 -24.5t57 -9q60 0 85.5 19t25.5 50q0 14 -4.5 25.5t-21 23t-49 23.5t-88.5 27q-87 23 -128.5 60.5t-41.5 102.5q0 31 12.5 60.5t37 52t60.5 36t82 13.5zM282 -55q31 0 50 -21.5t19 -56.5
q0 -38 -19.5 -72t-40.5 -58h-41v5q12 18 21 37t9 43q-34 0 -48.5 16.5t-14.5 42.5q0 29 16.5 46.5t48.5 17.5z" />
    <glyph glyph-name="uni021A" unicode="&#x21a;" horiz-adv-x="535" 
d="M515 605h-196v-605h-105v605h-194v95h495v-95zM268 -55q31 0 50 -21.5t19 -56.5q0 -38 -19.5 -72t-40.5 -58h-41v5q12 18 21 37t9 43q-34 0 -48.5 16.5t-14.5 42.5q0 29 16.5 46.5t48.5 17.5z" />
    <glyph glyph-name="uni021B" unicode="&#x21b;" horiz-adv-x="404" 
d="M214 560h165v-90h-165v-334q0 -28 12 -39.5t32 -11.5t38 9.5t28 15.5h5l24 -92q-17 -11 -48.5 -20.5t-61.5 -9.5q-24 0 -47.5 7t-41.5 22t-29 38t-11 55v360h-89v58q54 24 84.5 68.5t46.5 103.5h58v-140zM232 -55q31 0 50 -21.5t19 -56.5q0 -38 -19.5 -72t-40.5 -58h-41
v5q12 18 21 37t9 43q-34 0 -48.5 16.5t-14.5 42.5q0 29 16.5 46.5t48.5 17.5z" />
    <glyph glyph-name="dotlessj" unicode="&#x237;" horiz-adv-x="234" 
d="M164 -48q0 -37 -10.5 -63.5t-28 -43t-40 -24t-46.5 -7.5q-26 0 -49.5 6.5t-39.5 14.5l14 93h5q12 -6 23.5 -10t24.5 -4q23 0 35 10.5t12 34.5v601h100v-608z" />
    <glyph glyph-name="schwa" unicode="&#x259;" horiz-adv-x="582" 
d="M286.018 -11.9648q-51.9961 0 -96.9932 20.498q-44.998 20.499 -77.9961 57.4971q-32.9971 36.998 -51.9961 88.9941q-18.999 51.9971 -18.999 113.993q0 8 0.5 14.999q0.5 7 0.5 12.999v14h401.976q-2 35.9971 -13.999 66.4951q-12 30.499 -32.998 52.9971
q-20.999 22.499 -50.4971 34.998t-67.4961 12.499q-29.998 0 -55.9971 -9.49902q-25.998 -9.5 -46.9971 -24.499q-20.998 -14.999 -36.9971 -32.498t-25.999 -32.498h-4.99902l-43.998 94.9941q14 17.999 35.498 35.998q21.499 17.999 48.9971 31.498t60.4961 21.999
q32.998 8.49902 69.9961 8.49902q64.9961 0 114.493 -21.998q49.4971 -21.999 82.4951 -60.9971q32.998 -38.9971 49.9971 -92.9941q16.998 -53.9961 16.998 -116.992t-20.498 -116.493q-20.499 -53.4971 -55.4971 -92.4941q-34.998 -38.998 -81.4951 -60.4971
q-46.4971 -21.498 -98.4941 -21.498zM286.018 78.0293q32.998 0 59.4971 12.499q26.498 12.5 45.9971 32.998q19.499 20.499 31.498 47.4971q11.999 26.999 15.999 55.9971h-298.981q4.99902 -68.9961 44.9971 -108.993q39.9971 -39.998 100.993 -39.998z" />
    <glyph glyph-name="circumflex" unicode="&#x2c6;" horiz-adv-x="417" 
d="M367 625h-106l-51 79h-3l-51 -79h-106l86 117h145z" />
    <glyph glyph-name="caron" unicode="&#x2c7;" horiz-adv-x="417" 
d="M281 625h-145l-86 117h106l51 -79h3l51 79h106z" />
    <glyph glyph-name="breve" unicode="&#x2d8;" horiz-adv-x="370" 
d="M320 769q0 -68 -34.5 -109t-100.5 -41t-100.5 41t-34.5 109h54q2 -25 22.5 -41t58.5 -16t58.5 16t22.5 41h54z" />
    <glyph glyph-name="dotaccent" unicode="&#x2d9;" horiz-adv-x="233" 
d="M117 746q32 0 49 -18.5t17 -47.5t-17 -47.5t-49 -18.5t-49.5 18.5t-17.5 47.5t17.5 47.5t49.5 18.5z" />
    <glyph glyph-name="ring" unicode="&#x2da;" horiz-adv-x="324" 
d="M162 822q24 0 44.5 -9t35.5 -24t23.5 -35.5t8.5 -43.5t-9 -43.5t-24 -35.5t-35.5 -24t-43.5 -9t-43.5 8.5t-35.5 23.5t-24 35.5t-9 44.5q0 48 32 80t80 32zM162 753q-18 0 -30.5 -11.5t-12.5 -31.5q0 -21 12.5 -32t30.5 -11t30.5 11t12.5 32q0 20 -12.5 31.5t-30.5 11.5z
" />
    <glyph glyph-name="ogonek" unicode="&#x2db;" horiz-adv-x="327" 
d="M205 0q-13 -6 -24.5 -17t-20 -24.5t-13.5 -28.5t-5 -30q0 -17 9 -28.5t30 -11.5q18 0 33 11.5t25 28.5h5l33 -46q-20 -35 -52.5 -56.5t-73.5 -21.5q-48 0 -74.5 24.5t-26.5 67.5q0 36 18.5 72.5t54.5 59.5h82z" />
    <glyph glyph-name="tilde" unicode="&#x2dc;" horiz-adv-x="398" 
d="M143 749q21 0 37 -6t29.5 -13t25.5 -13t25 -6q16 0 24 8.5t12 24.5h52q-4 -24 -10.5 -46.5t-17.5 -39.5t-27 -27.5t-38 -10.5q-21 0 -37 6t-30 13l-26 13t-25 6q-28 0 -36 -33h-51q3 24 9.5 46.5t17.5 39.5t27 27.5t39 10.5z" />
    <glyph glyph-name="hungarumlaut" unicode="&#x2dd;" horiz-adv-x="492" 
d="M338 625h-104l75 117h133zM154 625h-104l75 117h133z" />
    <glyph glyph-name="uni0326" unicode="&#x326;" horiz-adv-x="0" 
d="M-119 -55q31 0 50 -21.5t19 -56.5q0 -38 -19.5 -72t-40.5 -58h-41v5q12 18 21 37t9 43q-34 0 -48.5 16.5t-14.5 42.5q0 29 16.5 46.5t48.5 17.5z" />
    <glyph glyph-name="Delta" unicode="&#x394;" horiz-adv-x="792" 
d="M742 0h-692l306 700h80zM185 90h422l-211 485z" />
    <glyph glyph-name="Omega" unicode="&#x3a9;" horiz-adv-x="768" 
d="M384 712q72 0 130 -30t99 -79.5t63 -115t22 -135.5q0 -89 -29.5 -153.5t-78.5 -100.5v-2h128v-96h-279v88q84 35 121.5 103.5t37.5 160.5q0 50 -14 98t-41.5 85.5t-67.5 60.5t-92 23q-51 0 -90.5 -23t-67 -60.5t-41.5 -85.5t-14 -98q0 -92 37.5 -160.5t121.5 -103.5v-88
h-279v96h128v2q-49 36 -78.5 100.5t-29.5 153.5q0 70 22 135.5t63 115t99 79.5t130 30z" />
    <glyph glyph-name="mu" unicode="&#x3bc;" horiz-adv-x="539" 
d="M489 0h-85l-9 76h-3q-12 -25 -33 -44q-18 -17 -47 -30.5t-72 -13.5q-27 0 -51.5 7.5t-38.5 16.5v-197h-100v745h100v-348q0 -20 2 -43.5t12 -43.5t30 -33t55 -13q43 0 70.5 18.5t43 45t21 56t5.5 52.5v309h100v-560z" />
    <glyph glyph-name="pi" unicode="&#x3c0;" horiz-adv-x="737" 
d="M687 470h-140v-312q0 -35 12.5 -47t34.5 -12q15 0 30.5 4.5t25.5 9.5h5l15 -99q-17 -8 -43 -14t-54 -6q-25 0 -48.5 8t-42 25t-29.5 44.5t-11 66.5v332h-147v-470h-105v470h-140v90h637v-90z" />
    <glyph glyph-name="Bdotaccent" unicode="&#x1e02;" horiz-adv-x="630" 
d="M373 700q104 0 158 -47.5t54 -132.5q0 -60 -27.5 -99t-82.5 -62v-2q50 -19 80 -60.5t30 -109.5q0 -34 -11 -67.5t-38 -60t-72.5 -43t-115.5 -16.5h-268v700h293zM185 310v-215h168q68 0 98.5 29t30.5 80t-29.5 78.5t-92.5 27.5h-175zM185 605v-205h168q56 0 90.5 28
t34.5 79q0 43 -27 70.5t-88 27.5h-178zM298 888q32 0 49 -18.5t17 -47.5t-17 -47.5t-49 -18.5t-49.5 18.5t-17.5 47.5t17.5 47.5t49.5 18.5z" />
    <glyph glyph-name="bdotaccent" unicode="&#x1e03;" horiz-adv-x="624" 
d="M170 497h2q20 27 62.5 51t102.5 24q51 0 95.5 -22t78.5 -61.5t53.5 -93t19.5 -116.5t-16 -116.5t-46.5 -92t-76 -60.5t-103.5 -22q-62 0 -104 24t-67 62h-3l-12 -74h-86v742h100v-245zM327 482q-38 0 -67.5 -15.5t-49.5 -43t-30 -65.5t-10 -83q0 -43 11 -78.5t31.5 -61
t49.5 -39.5t66 -14q39 0 68 14.5t48.5 41t29.5 62.5t10 79q0 42 -10 79t-30 64.5t-49.5 43.5t-67.5 16zM337 758q32 0 49 -18.5t17 -47.5t-17 -47.5t-49 -18.5t-49.5 18.5t-17.5 47.5t17.5 47.5t49.5 18.5z" />
    <glyph glyph-name="Ddotaccent" unicode="&#x1e0a;" horiz-adv-x="690" 
d="M321 700q161 0 242.5 -83t81.5 -264q0 -182 -84.5 -267.5t-248.5 -85.5h-222v700h231zM195 605v-510h129q115 0 165.5 68.5t50.5 189.5q0 60 -10.5 107t-35 79.5t-65.5 49t-102 16.5h-132zM337 888q32 0 49 -18.5t17 -47.5t-17 -47.5t-49 -18.5t-49.5 18.5t-17.5 47.5
t17.5 47.5t49.5 18.5z" />
    <glyph glyph-name="ddotaccent" unicode="&#x1e0b;" horiz-adv-x="624" 
d="M554 0h-86l-12 74h-3q-25 -38 -67 -62t-104 -24q-59 0 -104 22t-75.5 60.5t-46.5 92t-16 116.5t19.5 116.5t53.5 93t78.5 61.5t95.5 22q60 0 102.5 -24t62.5 -51h2v245h100v-742zM297 482q-38 0 -67.5 -16t-49.5 -43.5t-30 -64.5t-10 -79q0 -43 9.5 -79t29 -62.5t49 -41
t68.5 -14.5q37 0 66 14t49.5 39.5t31.5 61t11 78.5q0 45 -10 83t-30 65.5t-49.5 43t-67.5 15.5zM287 746q32 0 49 -18.5t17 -47.5t-17 -47.5t-49 -18.5t-49.5 18.5t-17.5 47.5t17.5 47.5t49.5 18.5z" />
    <glyph glyph-name="Fdotaccent" unicode="&#x1e1e;" horiz-adv-x="572" 
d="M522 605h-337v-217h333v-93h-333v-295h-105v700h442v-95zM301 888q32 0 49 -18.5t17 -47.5t-17 -47.5t-49 -18.5t-49.5 18.5t-17.5 47.5t17.5 47.5t49.5 18.5z" />
    <glyph glyph-name="fdotaccent" unicode="&#x1e1f;" horiz-adv-x="365" 
d="M244 796q47 0 79.5 -16.5t46.5 -28.5l-24 -97h-5q-11 12 -31.5 27t-48.5 15q-20 0 -32 -11t-12 -34v-91h141v-90h-141v-470h-100v470h-107v90h107v99q0 37 10.5 63t28.5 42.5t41 24t47 7.5zM244 970q32 0 49 -18.5t17 -47.5t-17 -47.5t-49 -18.5t-49.5 18.5t-17.5 47.5
t17.5 47.5t49.5 18.5z" />
    <glyph glyph-name="Mdotaccent" unicode="&#x1e40;" horiz-adv-x="873" 
d="M793 0h-100v606h-2l-202 -606h-105l-202 606h-2v-606h-100v700h172l183 -550h3l182 550h173v-700zM430 888q32 0 49 -18.5t17 -47.5t-17 -47.5t-49 -18.5t-49.5 18.5t-17.5 47.5t17.5 47.5t49.5 18.5z" />
    <glyph glyph-name="mdotaccent" unicode="&#x1e41;" horiz-adv-x="888" 
d="M656 572q79 0 125.5 -48t46.5 -137v-387h-100v347q0 73 -23.5 104t-74.5 31q-27 0 -51 -10.5t-42 -32t-28.5 -54t-10.5 -75.5v-310h-100v347q0 73 -23 104t-74 31q-55 0 -93 -42.5t-38 -129.5v-310h-100v560h85l8 -74h3q25 38 63 62t100 24q31 0 56 -8.5t44 -22.5
t31.5 -31.5t19.5 -35.5h3q9 19 24.5 36.5t37 31t49.5 22t62 8.5zM453 746q32 0 49 -18.5t17 -47.5t-17 -47.5t-49 -18.5t-49.5 18.5t-17.5 47.5t17.5 47.5t49.5 18.5z" />
    <glyph glyph-name="Pdotaccent" unicode="&#x1e56;" horiz-adv-x="595" 
d="M333 700q109 0 170.5 -52.5t61.5 -161.5q0 -54 -19 -94.5t-52 -67.5t-78.5 -40.5t-98.5 -13.5h-132v-270h-105v700h253zM185 605v-240h122q77 0 115 31t38 90q0 29 -6.5 51.5t-22 37.5t-42 22.5t-66.5 7.5h-138zM297 888q32 0 49 -18.5t17 -47.5t-17 -47.5t-49 -18.5
t-49.5 18.5t-17.5 47.5t17.5 47.5t49.5 18.5z" />
    <glyph glyph-name="pdotaccent" unicode="&#x1e57;" horiz-adv-x="614" 
d="M332 572q51 0 95 -22t76.5 -61.5t51.5 -93t19 -116.5t-16 -116.5t-46.5 -92t-76 -60.5t-103.5 -22t-97 22t-62 54h-3v-249h-100v745h87l9 -74h3q21 35 63 60.5t100 25.5zM322 482q-38 0 -67.5 -15.5t-49.5 -43t-30 -65.5t-10 -83q0 -43 11 -78.5t31.5 -61t49.5 -39.5
t66 -14q39 0 67.5 14.5t47 41t27.5 62.5t9 79t-9.5 80t-28.5 64.5t-47.5 43t-66.5 15.5zM332 746q32 0 49 -18.5t17 -47.5t-17 -47.5t-49 -18.5t-49.5 18.5t-17.5 47.5t17.5 47.5t49.5 18.5z" />
    <glyph glyph-name="Sdotaccent" unicode="&#x1e60;" horiz-adv-x="608" 
d="M275 712q49 0 89.5 -11.5t73 -30t56.5 -41t39 -43.5l-54 -95h-5q-15 22 -35 44.5t-44 40.5t-53 29.5t-62 11.5q-31 0 -54 -8t-38 -21.5t-22.5 -30.5t-7.5 -34q0 -21 6 -37.5t24 -30t51.5 -26.5t88.5 -28q43 -12 85.5 -26t77 -37t56 -58.5t21.5 -89.5q0 -53 -19.5 -91.5
t-53.5 -63t-79 -36t-96 -11.5q-53 0 -99 12.5t-83 32.5t-64.5 44t-43.5 47l54 97h5q16 -23 39 -47t51.5 -43.5t62.5 -32t73 -12.5q83 0 117 27.5t34 70.5q0 33 -16 53.5t-42.5 34t-61 23t-71.5 19.5q-50 14 -90.5 31.5t-69.5 41.5t-45 57t-16 78q0 40 16 75t45 60.5t69.5 40
t90.5 14.5zM276 888q32 0 49 -18.5t17 -47.5t-17 -47.5t-49 -18.5t-49.5 18.5t-17.5 47.5t17.5 47.5t49.5 18.5z" />
    <glyph glyph-name="sdotaccent" unicode="&#x1e61;" horiz-adv-x="524" 
d="M248 572q44 0 80 -11t63.5 -27t47.5 -34.5t31 -34.5l-50 -84h-5q-12 19 -29.5 37t-39 32t-47 23t-53.5 9q-45 0 -68.5 -22t-23.5 -48q0 -12 3 -22.5t17.5 -21t44.5 -22.5t83 -26q46 -12 80.5 -27t57 -35t33.5 -47t11 -63t-15 -65.5t-41.5 -50.5t-63.5 -32.5t-82 -11.5
q-44 0 -81.5 10t-68.5 26.5t-54.5 37t-37.5 40.5l51 89h5q14 -22 33 -42.5t42 -36t50 -24.5t57 -9q60 0 85.5 19t25.5 50q0 14 -4.5 25.5t-21 23t-49 23.5t-88.5 27q-87 23 -128.5 60.5t-41.5 102.5q0 31 12.5 60.5t37 52t60.5 36t82 13.5zM248 746q32 0 49 -18.5t17 -47.5
t-17 -47.5t-49 -18.5t-49.5 18.5t-17.5 47.5t17.5 47.5t49.5 18.5z" />
    <glyph glyph-name="Tdotaccent" unicode="&#x1e6a;" horiz-adv-x="535" 
d="M515 605h-196v-605h-105v605h-194v95h495v-95zM268 888q32 0 49 -18.5t17 -47.5t-17 -47.5t-49 -18.5t-49.5 18.5t-17.5 47.5t17.5 47.5t49.5 18.5z" />
    <glyph glyph-name="tdotaccent" unicode="&#x1e6b;" horiz-adv-x="404" 
d="M214 560h165v-90h-165v-334q0 -28 12 -39.5t32 -11.5t38 9.5t28 15.5h5l24 -92q-17 -11 -48.5 -20.5t-61.5 -9.5q-24 0 -47.5 7t-41.5 22t-29 38t-11 55v360h-89v58q54 24 84.5 68.5t46.5 103.5h58v-140zM181 886q32 0 49 -18.5t17 -47.5t-17 -47.5t-49 -18.5t-49.5 18.5
t-17.5 47.5t17.5 47.5t49.5 18.5z" />
    <glyph glyph-name="Wgrave" unicode="&#x1e80;" horiz-adv-x="978" 
d="M774 0h-149l-135 586h-2l-135 -586h-149l-174 700h113l132 -585h2l136 585h152l136 -585h2l132 585h113zM533 762h-103l-106 117h144z" />
    <glyph glyph-name="wgrave" unicode="&#x1e81;" horiz-adv-x="832" 
d="M672 0h-135l-120 465h-2l-120 -465h-135l-135 560h106l96 -459h2l118 459h138l118 -459h2l96 459h106zM459 625h-103l-106 117h144z" />
    <glyph glyph-name="Wacute" unicode="&#x1e82;" horiz-adv-x="978" 
d="M774 0h-149l-135 586h-2l-135 -586h-149l-174 700h113l132 -585h2l136 585h152l136 -585h2l132 585h113zM540 762h-103l65 117h144z" />
    <glyph glyph-name="wacute" unicode="&#x1e83;" horiz-adv-x="832" 
d="M672 0h-135l-120 465h-2l-120 -465h-135l-135 560h106l96 -459h2l118 459h138l118 -459h2l96 459h106zM467 625h-103l65 117h144z" />
    <glyph glyph-name="Wdieresis" unicode="&#x1e84;" horiz-adv-x="978" 
d="M774 0h-149l-135 586h-2l-135 -586h-149l-174 700h113l132 -585h2l136 585h152l136 -585h2l132 585h113zM388 878q29 0 45 -16.5t16 -44.5t-16 -44.5t-45 -16.5q-30 0 -46 16.5t-16 44.5t16 44.5t46 16.5zM590 878q29 0 45 -16.5t16 -44.5t-16 -44.5t-45 -16.5
q-30 0 -46 16.5t-16 44.5t16 44.5t46 16.5z" />
    <glyph glyph-name="wdieresis" unicode="&#x1e85;" horiz-adv-x="832" 
d="M672 0h-135l-120 465h-2l-120 -465h-135l-135 560h106l96 -459h2l118 459h138l118 -459h2l96 459h106zM315 741q29 0 45 -16.5t16 -44.5t-16 -44.5t-45 -16.5q-30 0 -46 16.5t-16 44.5t16 44.5t46 16.5zM517 741q29 0 45 -16.5t16 -44.5t-16 -44.5t-45 -16.5
q-30 0 -46 16.5t-16 44.5t16 44.5t46 16.5z" />
    <glyph glyph-name="Ygrave" unicode="&#x1ef2;" horiz-adv-x="561" 
d="M331 263v-263h-101v263l-220 437h118l152 -325l153 325h118zM325 762h-103l-106 117h144z" />
    <glyph glyph-name="ygrave" unicode="&#x1ef3;" horiz-adv-x="530" 
d="M254 -185h-115l77 219l-196 526h110l140 -415h2l128 415h110zM308 625h-103l-106 117h144z" />
    <glyph glyph-name="enspace" unicode="&#x2002;" horiz-adv-x="500" 
 />
    <glyph glyph-name="uni2003" unicode="&#x2003;" horiz-adv-x="1000" 
 />
    <glyph glyph-name="uni2004" unicode="&#x2004;" horiz-adv-x="333" 
 />
    <glyph glyph-name="uni2005" unicode="&#x2005;" horiz-adv-x="250" 
 />
    <glyph glyph-name="uni2009" unicode="&#x2009;" horiz-adv-x="120" 
 />
    <glyph glyph-name="uni200A" unicode="&#x200a;" horiz-adv-x="75" 
 />
    <glyph glyph-name="endash" unicode="&#x2013;" horiz-adv-x="600" 
d="M550 270h-500v90h500v-90z" />
    <glyph glyph-name="emdash" unicode="&#x2014;" horiz-adv-x="900" 
d="M850 270h-800v90h800v-90z" />
    <glyph glyph-name="quoteleft" unicode="&#x2018;" horiz-adv-x="249" 
d="M126.104 471.306q-34.1982 0 -55.3477 23.3994q-21.1494 23.3984 -21.1494 62.0967q0 21.5996 6.75 41.8486t16.6494 39.1484t22.9492 34.6484q13.0498 15.75 24.749 27.4492h45.8984v-4.5q-11.7002 -16.1992 -22.499 -41.8486q-10.7998 -25.6484 -10.7998 -44.5479
q28.7988 0 47.248 -19.3496q18.4492 -19.3486 18.4492 -48.1475q0 -31.499 -19.3496 -50.8477q-19.3486 -19.3496 -53.5479 -19.3496z" />
    <glyph glyph-name="quoteright" unicode="&#x2019;" horiz-adv-x="249" 
d="M122.903 705.704q34.2012 0 55.3516 -23.4014q21.1504 -23.4004 21.1504 -62.1016q0 -21.6006 -6.75 -41.8506q-6.75 -20.251 -16.6504 -39.1514t-22.9512 -34.6514q-13.0498 -15.75 -24.75 -27.4502h-45.9014v4.5q11.7002 16.2002 22.5 41.8516
q10.8008 25.6504 10.8008 44.5508q-28.8008 0 -47.251 19.3506q-18.4512 19.3506 -18.4512 48.1514q0 31.501 19.3506 50.8516t53.5518 19.3506z" />
    <glyph glyph-name="quotesinglbase" unicode="&#x201a;" horiz-adv-x="249" 
d="M122.903 137.704q34.2012 0 55.3516 -23.4014q21.1504 -23.4004 21.1504 -62.1016q0 -21.6006 -6.75 -41.8506q-6.75 -20.251 -16.6504 -39.1514t-22.9512 -34.6514q-13.0498 -15.75 -24.75 -27.4502h-45.9014v4.5q11.7002 16.2002 22.5 41.8516
q10.8008 25.6504 10.8008 44.5508q-28.8008 0 -47.251 19.3506q-18.4512 19.3506 -18.4512 48.1514q0 31.501 19.3506 50.8516t53.5518 19.3506z" />
    <glyph glyph-name="quotedblleft" unicode="&#x201c;" horiz-adv-x="439" 
d="M126.104 471.306q-34.1982 0 -55.3477 23.3994q-21.1494 23.3984 -21.1494 62.0967q0 21.5996 6.75 41.8486t16.6494 39.1484t22.9492 34.6484q13.0498 15.75 24.749 27.4492h45.8984v-4.5q-11.7002 -16.1992 -22.499 -41.8486q-10.7998 -25.6484 -10.7998 -44.5479
q28.7988 0 47.248 -19.3496q18.4492 -19.3486 18.4492 -48.1475q0 -31.499 -19.3496 -50.8477q-19.3486 -19.3496 -53.5479 -19.3496zM316.104 471.306q-34.1982 0 -55.3477 23.3994q-21.1494 23.3984 -21.1494 62.0967q0 21.5996 6.75 41.8486t16.6494 39.1484
t22.9492 34.6484q13.0498 15.75 24.749 27.4492h45.8984v-4.5q-11.7002 -16.1992 -22.499 -41.8486q-10.7998 -25.6484 -10.7998 -44.5479q28.7988 0 47.248 -19.3496q18.4492 -19.3486 18.4492 -48.1475q0 -31.499 -19.3496 -50.8477q-19.3486 -19.3496 -53.5479 -19.3496z
" />
    <glyph glyph-name="quotedblright" unicode="&#x201d;" horiz-adv-x="439" 
d="M122.64 706.704q34.124 0 55.2275 -23.4014q21.1035 -23.4004 21.1035 -62.1016q0 -21.6006 -6.73535 -41.8506q-6.73535 -20.251 -16.6133 -39.1514t-22.8994 -34.6514q-13.0215 -15.75 -24.6953 -27.4502h-45.7988v4.5q11.6748 16.2002 22.4502 41.8516
q10.7764 25.6504 10.7764 44.5508q-28.7363 0 -47.1455 19.3506t-18.4092 48.1514q0 31.501 19.3076 50.8516q19.3066 19.3506 53.4316 19.3506zM312.64 706.704q34.124 0 55.2275 -23.4014q21.1035 -23.4004 21.1035 -62.1016q0 -21.6006 -6.73535 -41.8506
q-6.73535 -20.251 -16.6133 -39.1514t-22.8994 -34.6514q-13.0215 -15.75 -24.6953 -27.4502h-45.7988v4.5q11.6748 16.2002 22.4502 41.8516q10.7764 25.6504 10.7764 44.5508q-28.7363 0 -47.1455 19.3506t-18.4092 48.1514q0 31.501 19.3076 50.8516
q19.3066 19.3506 53.4316 19.3506z" />
    <glyph glyph-name="quotedblbase" unicode="&#x201e;" horiz-adv-x="439" 
d="M122.64 137.704q34.124 0 55.2275 -23.4014q21.1035 -23.4004 21.1035 -62.1016q0 -21.6006 -6.73535 -41.8506q-6.73535 -20.251 -16.6133 -39.1514t-22.8994 -34.6514q-13.0215 -15.75 -24.6953 -27.4502h-45.7988v4.5q11.6748 16.2002 22.4502 41.8516
q10.7764 25.6504 10.7764 44.5508q-28.7363 0 -47.1455 19.3506t-18.4092 48.1514q0 31.501 19.3076 50.8516q19.3066 19.3506 53.4316 19.3506zM312.64 137.704q34.124 0 55.2275 -23.4014q21.1035 -23.4004 21.1035 -62.1016q0 -21.6006 -6.73535 -41.8506
q-6.73535 -20.251 -16.6133 -39.1514t-22.8994 -34.6514q-13.0215 -15.75 -24.6953 -27.4502h-45.7988v4.5q11.6748 16.2002 22.4502 41.8516q10.7764 25.6504 10.7764 44.5508q-28.7363 0 -47.1455 19.3506t-18.4092 48.1514q0 31.501 19.3076 50.8516
q19.3066 19.3506 53.4316 19.3506z" />
    <glyph glyph-name="dagger" unicode="&#x2020;" horiz-adv-x="535" 
d="M311 560h174v-90h-174v-583h-89v583h-172v90h172v198h89v-198z" />
    <glyph glyph-name="daggerdbl" unicode="&#x2021;" horiz-adv-x="535" 
d="M311 560h174v-90h-174v-235h174v-90h-174v-258h-89v258h-172v90h172v235h-172v90h172v198h89v-198z" />
    <glyph glyph-name="bullet" unicode="&#x2022;" horiz-adv-x="300" 
d="M150 424q21 0 39 -8t31.5 -21.5t21.5 -31.5t8 -38q0 -21 -8 -39.5t-21.5 -32t-31.5 -21.5t-39 -8t-39.5 8t-32 21.5t-21 32t-7.5 39.5q0 20 7.5 38t21 31.5t32 21.5t39.5 8z" />
    <glyph glyph-name="ellipsis" unicode="&#x2026;" horiz-adv-x="846" 
d="M131 155q38 0 59 -22.5t21 -57.5t-21 -57.5t-59 -22.5q-39 0 -60 22.5t-21 57.5t21 57.5t60 22.5zM424 155q38 0 59 -22.5t21 -57.5t-21 -57.5t-59 -22.5q-39 0 -60 22.5t-21 57.5t21 57.5t60 22.5zM716 155q38 0 59 -22.5t21 -57.5t-21 -57.5t-59 -22.5q-39 0 -60 22.5
t-21 57.5t21 57.5t60 22.5z" />
    <glyph glyph-name="perthousand" unicode="&#x2030;" horiz-adv-x="1303" 
d="M217 706q42 0 73.5 -17.5t52.5 -47.5t31.5 -70.5t10.5 -86.5q0 -35 -7.5 -72t-26 -68t-51 -50.5t-83.5 -19.5q-50 0 -82.5 19.5t-51.5 50.5t-26 68t-7 72q0 46 10.5 86.5t31.5 70.5t52.5 47.5t72.5 17.5zM217 630q-21 0 -36.5 -11.5t-26 -31t-15.5 -46t-5 -55.5
q0 -24 3.5 -48t13 -43t25.5 -31t41 -12t41.5 12t26 31t13 43t3.5 48q0 29 -5.5 55.5t-16 46t-26 31t-36.5 11.5zM699 700l-419 -747l-73 44l419 747zM707 427q42 0 73.5 -17.5t52.5 -47.5t31.5 -70.5t10.5 -86.5q0 -35 -7.5 -72t-26 -68t-51 -50.5t-83.5 -19.5
q-50 0 -82.5 19.5t-51.5 50.5t-26 68t-7 72q0 46 10.5 86.5t31.5 70.5t52.5 47.5t72.5 17.5zM707 351q-21 0 -36.5 -11.5t-26 -31t-15.5 -46t-5 -55.5q0 -24 3.5 -48t13 -43t25.5 -31t41 -12t41.5 12t26 31t13 43t3.5 48q0 29 -5.5 55.5t-16 46t-26 31t-36.5 11.5zM1085 427
q42 0 73.5 -17.5t52.5 -47.5t31.5 -70.5t10.5 -86.5q0 -35 -7.5 -72t-26 -68t-51 -50.5t-83.5 -19.5q-50 0 -82.5 19.5t-51.5 50.5t-26 68t-7 72q0 46 10.5 86.5t31.5 70.5t52.5 47.5t72.5 17.5zM1085 351q-21 0 -36.5 -11.5t-26 -31t-15.5 -46t-5 -55.5q0 -24 3.5 -48
t13 -43t25.5 -31t41 -12t41.5 12t26 31t13 43t3.5 48q0 29 -5.5 55.5t-16 46t-26 31t-36.5 11.5z" />
    <glyph glyph-name="guilsinglleft" unicode="&#x2039;" horiz-adv-x="311" 
d="M165 277l96 -208h-100l-111 208l111 208h100z" />
    <glyph glyph-name="guilsinglright" unicode="&#x203a;" horiz-adv-x="311" 
d="M146.01 277l-95.9941 -208h99.9941l110.993 208l-110.993 208h-99.9941z" />
    <glyph glyph-name="fraction" unicode="&#x2044;" horiz-adv-x="212" 
d="M352 700l-419 -747l-73 44l419 747z" />
    <glyph glyph-name="plussuperior" unicode="&#x207a;" horiz-adv-x="366" 
d="M219 700h117v-70h-117v-134h-72v134h-117v70h117v116h72v-116z" />
    <glyph glyph-name="uni207B" unicode="&#x207b;" horiz-adv-x="319" 
d="M289 630h-259v70h259v-70z" />
    <glyph glyph-name="uni208A" unicode="&#x208a;" horiz-adv-x="366" 
d="M219 66h117v-70h-117v-134h-72v134h-117v70h117v116h72v-116z" />
    <glyph glyph-name="uni208B" unicode="&#x208b;" horiz-adv-x="319" 
d="M289 -4h-259v70h259v-70z" />
    <glyph glyph-name="Euro" unicode="&#x20ac;" horiz-adv-x="787" 
d="M453 712q55 0 98 -16t75.5 -41t55 -55t34.5 -58l-74 -75h-5q-13 32 -30 60t-39.5 48.5t-51 32.5t-63.5 12t-64 -11.5t-53 -31.5t-42 -47.5t-30 -59.5h242v-80h-259q-3 -19 -3 -38.5t2 -28.5h260v-80h-248q21 -72 70.5 -114.5t124.5 -42.5q45 0 78 17t56.5 43t37.5 58.5
t20 64.5h5l87 -70q-8 -29 -27 -66t-53 -69t-84 -54t-120 -22q-62 0 -113 18t-89 51.5t-63.5 80.5t-37.5 105h-100v80h90q-1 8 -1 28t2 39h-91v80h105q15 51 42.5 95t65.5 77t86 51.5t104 18.5z" />
    <glyph glyph-name="afii61352" unicode="&#x2116;" horiz-adv-x="1142" 
d="M1070 123h-312v92h312v-92zM644 0h-171l-286 603h-2v-603h-105v700h171l286 -603h2v603h105v-700zM919 706q42 0 73.5 -17.5t52.5 -47.5t31.5 -70.5t10.5 -86.5q0 -35 -7.5 -72t-26 -68t-51 -50.5t-83.5 -19.5q-50 0 -82.5 19.5t-51.5 50.5t-26 68t-7 72q0 46 10.5 86.5
t31.5 70.5t52.5 47.5t72.5 17.5zM919 630q-21 0 -36.5 -11.5t-26 -31t-15.5 -46t-5 -55.5q0 -24 3.5 -48t13 -43t25.5 -31t41 -12t41.5 12t26 31t13 43t3.5 48q0 29 -5.5 55.5t-16 46t-26 31t-36.5 11.5z" />
    <glyph glyph-name="uni2117" unicode="&#x2117;" horiz-adv-x="824" 
d="M411 712q81 0 148 -28.5t114.5 -78t74 -115.5t26.5 -141t-26.5 -140.5t-74 -114.5t-114.5 -77.5t-148 -28.5t-147.5 28.5t-114 77.5t-73.5 114.5t-26 140.5t26 141t73.5 115.5t114 78t147.5 28.5zM411 637q-65 0 -117 -23t-88.5 -62t-56 -91.5t-19.5 -111.5t19.5 -111
t56 -91t88.5 -61.5t117 -22.5t117.5 22.5t89 61.5t56.5 91t20 111t-20 111.5t-56.5 91.5t-89 62t-117.5 23zM443 557q66 0 103 -31.5t37 -97.5q0 -33 -11.5 -57t-31.5 -40.5t-47 -24.5t-59 -8h-57v-152h-76v411h142zM377 489v-122h47q42 0 63 16.5t21 45.5q0 28 -15.5 44
t-59.5 16h-56z" />
    <glyph glyph-name="trademark" unicode="&#x2122;" horiz-adv-x="903" 
d="M808 331h-78v302h-1l-90 -302h-98l-90 302h-1v-302h-78v369h136l81 -287h2l81 287h136v-369zM317 627h-104v-297h-80v297h-103v73h287v-73z" />
    <glyph glyph-name="uni2153" unicode="&#x2153;" horiz-adv-x="882" 
d="M221 280h-78v313h-2l-73 -80l-53 55l126 132h80v-420zM648 700l-419 -747l-73 44l419 747zM834 354l-127 -94l1 -1q5 1 16 1q22 0 44.5 -7t40.5 -22.5t29 -40t11 -58.5q0 -33 -12 -58.5t-33 -43t-48.5 -26.5t-58.5 -9q-33 0 -59.5 8t-46.5 20.5t-34.5 28t-23.5 30.5
l41 64h3q16 -30 44 -54.5t72 -24.5q38 0 59 19t21 54t-22 54t-64 19q-15 0 -30 -3t-25 -8l-33 50l130 98v2h-165v69h270v-67z" />
    <glyph glyph-name="uni2154" unicode="&#x2154;" horiz-adv-x="944" 
d="M178 706q32 0 58.5 -10t45 -27t28.5 -40t10 -49q0 -27 -10.5 -51t-29.5 -47t-44.5 -47.5t-56.5 -52.5l-27 -25l171 -1v-76h-282v76l83 72q58 49 87 82.5t29 65.5q0 26 -17.5 42t-46.5 16q-18 0 -33.5 -8t-28 -21.5t-22 -30t-16.5 -33.5h-3l-53 55q7 18 19.5 37t32 35.5
t45.5 27t61 10.5zM710 700l-419 -747l-73 44l419 747zM896 354l-127 -94l1 -1q5 1 16 1q22 0 44.5 -7t40.5 -22.5t29 -40t11 -58.5q0 -33 -12 -58.5t-33 -43t-48.5 -26.5t-58.5 -9q-33 0 -59.5 8t-46.5 20.5t-34.5 28t-23.5 30.5l41 64h3q16 -30 44 -54.5t72 -24.5
q38 0 59 19t21 54t-22 54t-64 19q-15 0 -30 -3t-25 -8l-33 50l130 98v2h-165v69h270v-67z" />
    <glyph glyph-name="uni2155" unicode="&#x2155;" horiz-adv-x="898" 
d="M221 280h-78v313h-2l-73 -80l-53 55l126 132h80v-420zM648 700l-419 -747l-73 44l419 747zM824 351h-190v-88h1q16 8 36 13.5t47 5.5q28 0 55 -9t48 -26.5t34 -44.5t13 -63t-12 -63t-33.5 -45t-50 -27t-61.5 -9q-32 0 -58 8t-46.5 20.5t-35 28t-23.5 30.5l42 64h3
q17 -31 44 -55t72 -24q40 0 61.5 21.5t21.5 55.5q0 33 -22.5 55t-61.5 22q-26 0 -45 -9t-32 -20l-65 30v199h258v-70z" />
    <glyph glyph-name="uni2156" unicode="&#x2156;" horiz-adv-x="960" 
d="M178 706q32 0 58.5 -10t45 -27t28.5 -40t10 -49q0 -27 -10.5 -51t-29.5 -47t-44.5 -47.5t-56.5 -52.5l-27 -25l171 -1v-76h-282v76l83 72q58 49 87 82.5t29 65.5q0 26 -17.5 42t-46.5 16q-18 0 -33.5 -8t-28 -21.5t-22 -30t-16.5 -33.5h-3l-53 55q7 18 19.5 37t32 35.5
t45.5 27t61 10.5zM710 700l-419 -747l-73 44l419 747zM886 351h-190v-88h1q16 8 36 13.5t47 5.5q28 0 55 -9t48 -26.5t34 -44.5t13 -63t-12 -63t-33.5 -45t-50 -27t-61.5 -9q-32 0 -58 8t-46.5 20.5t-35 28t-23.5 30.5l42 64h3q17 -31 44 -55t72 -24q40 0 61.5 21.5
t21.5 55.5q0 33 -22.5 55t-61.5 22q-26 0 -45 -9t-32 -20l-65 30v199h258v-70z" />
    <glyph glyph-name="uni2157" unicode="&#x2157;" horiz-adv-x="976" 
d="M326 633l-127 -94l1 -1q5 1 16 1q22 0 44.5 -7t40.5 -22.5t29 -40t11 -58.5q0 -33 -12 -58.5t-33 -43t-48.5 -26.5t-58.5 -9q-33 0 -59.5 8t-46.5 20.5t-34.5 28t-23.5 30.5l41 64h3q16 -30 44 -54.5t72 -24.5q38 0 59 19t21 54t-22 54t-64 19q-15 0 -30 -3t-25 -8
l-33 50l130 98v2h-165v69h270v-67zM726 700l-419 -747l-73 44l419 747zM902 351h-190v-88h1q16 8 36 13.5t47 5.5q28 0 55 -9t48 -26.5t34 -44.5t13 -63t-12 -63t-33.5 -45t-50 -27t-61.5 -9q-32 0 -58 8t-46.5 20.5t-35 28t-23.5 30.5l42 64h3q17 -31 44 -55t72 -24
q40 0 61.5 21.5t21.5 55.5q0 33 -22.5 55t-61.5 22q-26 0 -45 -9t-32 -20l-65 30v199h258v-70z" />
    <glyph glyph-name="uni2158" unicode="&#x2158;" horiz-adv-x="970" 
d="M300 424h48v-70h-46v-74h-79v74h-203v64l154 282h126v-276zM220 642l-120 -218h123v218h-3zM720 700l-419 -747l-73 44l419 747zM896 351h-190v-88h1q16 8 36 13.5t47 5.5q28 0 55 -9t48 -26.5t34 -44.5t13 -63t-12 -63t-33.5 -45t-50 -27t-61.5 -9q-32 0 -58 8
t-46.5 20.5t-35 28t-23.5 30.5l42 64h3q17 -31 44 -55t72 -24q40 0 61.5 21.5t21.5 55.5q0 33 -22.5 55t-61.5 22q-26 0 -45 -9t-32 -20l-65 30v199h258v-70z" />
    <glyph glyph-name="uni2159" unicode="&#x2159;" horiz-adv-x="892" 
d="M221 280h-78v313h-2l-73 -80l-53 55l126 132h80v-420zM648 700l-419 -747l-73 44l419 747zM715 427q27 0 48 -6t37.5 -15t28 -19.5t18.5 -19.5l-37 -62h-3q-14 20 -35 35.5t-55 15.5q-23 0 -40 -10.5t-29 -28t-18 -39.5t-6 -46l1 -1q17 17 42 29t57 12q31 0 57 -9.5
t45 -27t30 -43t11 -56.5q0 -61 -40.5 -101t-111.5 -40q-75 0 -123.5 51.5t-48.5 155.5q0 50 12 91.5t34.5 71t54 46t71.5 16.5zM713 212q-35 0 -56.5 -22.5t-21.5 -51.5q0 -28 20 -49.5t58 -21.5q36 0 55.5 20t19.5 50q0 32 -20 53.5t-55 21.5z" />
    <glyph glyph-name="uni215A" unicode="&#x215a;" horiz-adv-x="986" 
d="M316 630h-190v-88h1q16 8 36 13.5t47 5.5q28 0 55 -9t48 -26.5t34 -44.5t13 -63t-12 -63t-33.5 -45t-50 -27t-61.5 -9q-32 0 -58 8t-46.5 20.5t-35 28t-23.5 30.5l42 64h3q17 -31 44 -55t72 -24q40 0 61.5 21.5t21.5 55.5q0 33 -22.5 55t-61.5 22q-26 0 -45 -9t-32 -20
l-65 30v199h258v-70zM742 700l-419 -747l-73 44l419 747zM809 427q27 0 48 -6t37.5 -15t28 -19.5t18.5 -19.5l-37 -62h-3q-14 20 -35 35.5t-55 15.5q-23 0 -40 -10.5t-29 -28t-18 -39.5t-6 -46l1 -1q17 17 42 29t57 12q31 0 57 -9.5t45 -27t30 -43t11 -56.5
q0 -61 -40.5 -101t-111.5 -40q-75 0 -123.5 51.5t-48.5 155.5q0 50 12 91.5t34.5 71t54 46t71.5 16.5zM807 212q-35 0 -56.5 -22.5t-21.5 -51.5q0 -28 20 -49.5t58 -21.5q36 0 55.5 20t19.5 50q0 32 -20 53.5t-55 21.5z" />
    <glyph glyph-name="oneeighth" unicode="&#x215b;" horiz-adv-x="864" 
d="M221 280h-78v313h-2l-73 -80l-53 55l126 132h80v-420zM648 700l-419 -747l-73 44l419 747zM686 427q32 0 57.5 -9.5t43.5 -25.5t27.5 -37t9.5 -44q0 -32 -17 -58.5t-52 -37.5v-1q34 -11 56.5 -38.5t22.5 -66.5q0 -30 -11.5 -51.5t-31.5 -35.5t-47 -20.5t-58 -6.5t-58 6.5
t-47 20.5t-31.5 35.5t-11.5 51.5q0 39 22.5 66.5t56.5 38.5v1q-35 11 -52 37.5t-17 58.5q0 23 9.5 44t27 37t43 25.5t58.5 9.5zM686 181q-32 0 -50 -17.5t-18 -43.5t18 -40t50 -14t50 14t18 40t-18.5 43.5t-49.5 17.5zM686 360q-26 0 -42.5 -15t-16.5 -41q0 -23 15 -38.5
t44 -15.5q28 0 43 15.5t15 38.5q0 26 -16 41t-42 15z" />
    <glyph glyph-name="threeeighths" unicode="&#x215c;" horiz-adv-x="942" 
d="M326 633l-127 -94l1 -1q5 1 16 1q22 0 44.5 -7t40.5 -22.5t29 -40t11 -58.5q0 -33 -12 -58.5t-33 -43t-48.5 -26.5t-58.5 -9q-33 0 -59.5 8t-46.5 20.5t-34.5 28t-23.5 30.5l41 64h3q16 -30 44 -54.5t72 -24.5q38 0 59 19t21 54t-22 54t-64 19q-15 0 -30 -3t-25 -8
l-33 50l130 98v2h-165v69h270v-67zM726 700l-419 -747l-73 44l419 747zM764 427q32 0 57.5 -9.5t43.5 -25.5t27.5 -37t9.5 -44q0 -32 -17 -58.5t-52 -37.5v-1q34 -11 56.5 -38.5t22.5 -66.5q0 -30 -11.5 -51.5t-31.5 -35.5t-47 -20.5t-58 -6.5t-58 6.5t-47 20.5t-31.5 35.5
t-11.5 51.5q0 39 22.5 66.5t56.5 38.5v1q-35 11 -52 37.5t-17 58.5q0 23 9.5 44t27 37t43 25.5t58.5 9.5zM764 181q-32 0 -50 -17.5t-18 -43.5t18 -40t50 -14t50 14t18 40t-18.5 43.5t-49.5 17.5zM764 360q-26 0 -42.5 -15t-16.5 -41q0 -23 15 -38.5t44 -15.5q28 0 43 15.5
t15 38.5q0 26 -16 41t-42 15z" />
    <glyph glyph-name="fiveeighths" unicode="&#x215d;" horiz-adv-x="958" 
d="M316 630h-190v-88h1q16 8 36 13.5t47 5.5q28 0 55 -9t48 -26.5t34 -44.5t13 -63t-12 -63t-33.5 -45t-50 -27t-61.5 -9q-32 0 -58 8t-46.5 20.5t-35 28t-23.5 30.5l42 64h3q17 -31 44 -55t72 -24q40 0 61.5 21.5t21.5 55.5q0 33 -22.5 55t-61.5 22q-26 0 -45 -9t-32 -20
l-65 30v199h258v-70zM742 700l-419 -747l-73 44l419 747zM780 427q32 0 57.5 -9.5t43.5 -25.5t27.5 -37t9.5 -44q0 -32 -17 -58.5t-52 -37.5v-1q34 -11 56.5 -38.5t22.5 -66.5q0 -30 -11.5 -51.5t-31.5 -35.5t-47 -20.5t-58 -6.5t-58 6.5t-47 20.5t-31.5 35.5t-11.5 51.5
q0 39 22.5 66.5t56.5 38.5v1q-35 11 -52 37.5t-17 58.5q0 23 9.5 44t27 37t43 25.5t58.5 9.5zM780 181q-32 0 -50 -17.5t-18 -43.5t18 -40t50 -14t50 14t18 40t-18.5 43.5t-49.5 17.5zM780 360q-26 0 -42.5 -15t-16.5 -41q0 -23 15 -38.5t44 -15.5q28 0 43 15.5t15 38.5
q0 26 -16 41t-42 15z" />
    <glyph glyph-name="seveneighths" unicode="&#x215e;" horiz-adv-x="836" 
d="M308 627l-187 -347h-90l192 347h-203v73h288v-73zM620 700l-419 -747l-73 44l419 747zM658 427q32 0 57.5 -9.5t43.5 -25.5t27.5 -37t9.5 -44q0 -32 -17 -58.5t-52 -37.5v-1q34 -11 56.5 -38.5t22.5 -66.5q0 -30 -11.5 -51.5t-31.5 -35.5t-47 -20.5t-58 -6.5t-58 6.5
t-47 20.5t-31.5 35.5t-11.5 51.5q0 39 22.5 66.5t56.5 38.5v1q-35 11 -52 37.5t-17 58.5q0 23 9.5 44t27 37t43 25.5t58.5 9.5zM658 181q-32 0 -50 -17.5t-18 -43.5t18 -40t50 -14t50 14t18 40t-18.5 43.5t-49.5 17.5zM658 360q-26 0 -42.5 -15t-16.5 -41q0 -23 15 -38.5
t44 -15.5q28 0 43 15.5t15 38.5q0 26 -16 41t-42 15z" />
    <glyph glyph-name="arrowleft" unicode="&#x2190;" horiz-adv-x="812" 
d="M333 401h429v-90h-429v-174h-4l-279 214v2l279 214h4v-166z" />
    <glyph glyph-name="arrowup" unicode="&#x2191;" horiz-adv-x="530" 
d="M480 432v-4h-166v-428h-90v428h-174v4l214 280h2z" />
    <glyph glyph-name="arrowright" unicode="&#x2192;" horiz-adv-x="812" 
d="M762 353v-2l-279 -214h-4v174h-429v90h429v166h4z" />
    <glyph glyph-name="arrowdown" unicode="&#x2193;" horiz-adv-x="530" 
d="M314 272h166v-4l-214 -280h-2l-214 280v4h174v428h90v-428z" />
    <glyph glyph-name="arrowboth" unicode="&#x2194;" horiz-adv-x="1092" 
d="M50 353l279 214h4v-166h426v166h4l279 -214v-1l-279 -215h-4v174h-426v-174h-4l-279 215v1z" />
    <glyph glyph-name="arrowupdown" unicode="&#x2195;" horiz-adv-x="530" 
d="M480 551v-4h-174v-376h174v-4l-215 -279h-1l-214 279v4h166v376h-166v4l214 279h1z" />
    <glyph glyph-name="arrowupleft" unicode="&#x2196;" horiz-adv-x="638" 
d="M400 575l3 -3l-118 -118l303 -301l-63 -65l-303 303l-123 -123l-3 3l-46 349v1z" />
    <glyph glyph-name="arrowupright" unicode="&#x2197;" horiz-adv-x="638" 
d="M588 620l-46 -349l-3 -3l-123 123l-303 -303l-63 65l303 301l-118 118l3 3l350 46v-1z" />
    <glyph glyph-name="arrowdownright" unicode="&#x2198;" horiz-adv-x="638" 
d="M353 257l-303 301l63 65l303 -303l123 123l3 -3l46 -349v-1l-350 46l-3 3z" />
    <glyph glyph-name="arrowdownleft" unicode="&#x2199;" horiz-adv-x="638" 
d="M588 556l-303 -302l118 -117l-3 -3l-350 -46v1l46 349l3 3l123 -123l303 303z" />
    <glyph glyph-name="arrowlefthook" unicode="&#x21a9;" horiz-adv-x="925" 
d="M652 758q53 0 94.5 -17.5t70 -48t43.5 -71t15 -86.5t-15 -86.5t-43.5 -71t-70 -48t-94.5 -17.5h-319v-174h-4l-279 215v1l279 214h4v-166h318q34 0 58.5 11t40 29.5t23 42.5t7.5 51q0 26 -7.5 50.5t-23 43t-40 30t-58.5 11.5h-126v87h127z" />
    <glyph glyph-name="arrowrighthook" unicode="&#x21aa;" horiz-adv-x="925" 
d="M400 758v-87h-126q-34 0 -58.5 -11.5t-40 -30t-23 -43t-7.5 -50.5q0 -27 7.5 -51t23 -42.5t40 -29.5t58.5 -11h318v166h4l279 -214v-1l-279 -215h-4v174h-319q-53 0 -94.5 17.5t-70 48t-43.5 71t-15 86.5t15 86.5t43.5 71t70 48t94.5 17.5h127z" />
    <glyph glyph-name="arrowdowntipleft" unicode="&#x21b2;" horiz-adv-x="793" 
d="M50 352l279 214h4v-166h320v342h90v-432h-410v-174h-4l-279 215v1z" />
    <glyph glyph-name="arrowdowntipright" unicode="&#x21b3;" horiz-adv-x="793" 
d="M50 742h90v-342h320v166h4l279 -214v-1l-279 -215h-4v174h-410v432z" />
    <glyph glyph-name="arrowanticlockwiseopencircle" unicode="&#x21ba;" horiz-adv-x="976" 
d="M411 712q32 0 60.5 -4.5t55.5 -12.5l-22 -93q-42 15 -94 15q-64 0 -112.5 -21.5t-81.5 -58t-50 -85t-17 -102.5t17 -102.5t50 -85t81.5 -58t112.5 -21.5q56 0 100 16.5t76.5 45t52.5 68t27 84.5h-171v4l215 279h1l214 -279v-4h-157q-9 -66 -38 -122.5t-75.5 -98
t-108.5 -65t-136 -23.5q-81 0 -148 28.5t-114 77.5t-73 115t-26 141t26 141t73 115t114 77.5t148 28.5z" />
    <glyph glyph-name="arrowclockwiseopencircle" unicode="&#x21bb;" horiz-adv-x="976" 
d="M565 712q81 0 148 -28.5t114 -77.5t73 -115t26 -141t-26 -141t-73 -115t-114 -77.5t-148 -28.5q-74 0 -136 23.5t-108.5 65t-75.5 98t-38 122.5h-157v4l214 279h1l215 -279v-4h-171q7 -45 27 -84.5t52 -68t76.5 -45t100.5 -16.5q64 0 112.5 21.5t81.5 58t50 85t17 102.5
t-17 102.5t-50 85t-81.5 58t-112.5 21.5q-52 0 -94 -15l-22 93q27 8 55.5 12.5t60.5 4.5z" />
    <glyph glyph-name="arrowrightoverleft" unicode="&#x21c4;" horiz-adv-x="1205" 
d="M333 263h429v-90h-429v-174h-4l-279 215v1l279 214h4v-166zM1155 449v-1l-279 -215h-4v174h-429v90h429v166h4z" />
    <glyph glyph-name="arrowupleftofdown" unicode="&#x21c5;" horiz-adv-x="875" 
d="M651 212h174v-4l-215 -279h-1l-214 279v4h166v488h90v-488zM480 492v-4h-174v-488h-90v488h-166v4l214 279h1z" />
    <glyph glyph-name="arrowleftoverright" unicode="&#x21c6;" horiz-adv-x="1205" 
d="M1155 215v-1l-279 -215h-4v174h-429v90h429v166h4zM333 497h429v-90h-429v-174h-4l-279 215v1l279 214h4v-166z" />
    <glyph glyph-name="downArrowLeftOfUpArrow" unicode="&#x21f5;" horiz-adv-x="875" 
d="M825 492v-4h-174v-488h-90v488h-166v4l214 279h1zM306 212h174v-4l-215 -279h-1l-214 279v4h166v488h90v-488z" />
    <glyph glyph-name="partialdiff" unicode="&#x2202;" horiz-adv-x="599" 
d="M285 712q53 0 101 -22t84 -69t57.5 -121.5t21.5 -180.5q0 -90 -21 -152.5t-56 -102.5t-82 -58t-98 -18q-54 0 -98.5 19.5t-76.5 53t-49.5 79t-17.5 96.5q0 49 16 92.5t45.5 76.5t72 52t95.5 19q58 0 102 -23.5t69 -66.5h2q-4 61 -19 106t-37.5 73.5t-50.5 42.5t-59 14
q-23 0 -45 -6.5t-42 -17.5h-5l-28 86q16 10 48.5 19t70.5 9zM288 390q-35 0 -61.5 -12.5t-44.5 -33.5t-27.5 -48.5t-9.5 -58.5q0 -28 8 -55.5t25.5 -49t45 -35t65.5 -13.5q36 0 62.5 12t44.5 32t27 46t9 55q0 26 -8 54.5t-25 52t-44.5 39t-66.5 15.5z" />
    <glyph glyph-name="product" unicode="&#x220f;" horiz-adv-x="667" 
d="M567 0h-105v600h-257v-600h-105v700h467v-700z" />
    <glyph glyph-name="summation" unicode="&#x2211;" horiz-adv-x="582" 
d="M532 604h-340l251 -227l-256 -282h345v-95h-482v100l259 270l-259 230v100h482v-96z" />
    <glyph glyph-name="minus" unicode="&#x2212;" horiz-adv-x="531" 
d="M481 310h-431v90h431v-90z" />
    <glyph glyph-name="radical" unicode="&#x221a;" horiz-adv-x="768" 
d="M475 0h-136l-161 464h-128v96h198l158 -468h2l207 608h103z" />
    <glyph glyph-name="infinity" unicode="&#x221e;" horiz-adv-x="748" 
d="M519 572q37 0 69.5 -13.5t57 -37.5t38.5 -57t14 -73t-14 -73t-38.5 -57t-57 -37.5t-69.5 -13.5q-48 0 -84.5 20.5t-59.5 55.5h-2q-23 -35 -59.5 -55.5t-84.5 -20.5q-37 0 -69.5 13.5t-57 37.5t-38.5 57t-14 73t14 73t38.5 57t57 37.5t69.5 13.5q48 0 84.5 -20.5
t59.5 -55.5h2q23 35 59.5 55.5t84.5 20.5zM229 488q-21 0 -37.5 -8t-28 -21.5t-17.5 -31t-6 -36.5t6 -36.5t17.5 -31t28 -21.5t37.5 -8t38 8t30.5 21.5t22.5 31t13 36.5q-4 19 -13 36.5t-22.5 31t-30.5 21.5t-38 8zM519 488q-21 0 -38 -8t-30.5 -21.5t-22.5 -31t-13 -36.5
q4 -19 13 -36.5t22.5 -31t30.5 -21.5t38 -8t37.5 8t28 21.5t17.5 31t6 36.5t-6 36.5t-17.5 31t-28 21.5t-37.5 8z" />
    <glyph glyph-name="integral" unicode="&#x222b;" horiz-adv-x="532" 
d="M347 756q43 0 78.5 -18.5t56.5 -43.5l-41 -77h-5q-14 17 -33.5 30.5t-41.5 13.5q-23 0 -34 -14.5t-11 -48.5v-648q0 -41 -9.5 -69t-27 -45.5t-41.5 -25t-53 -7.5q-43 0 -78.5 18.5t-56.5 43.5l41 77h5q14 -17 33.5 -30.5t41.5 -13.5q45 0 45 58v653q0 41 9.5 69t27 45.5
t41.5 25t53 7.5z" />
    <glyph glyph-name="approxequal" unicode="&#x2248;" horiz-adv-x="582" 
d="M50 464q9 16 21.5 31t29 27t37.5 19.5t48 7.5q29 0 57.5 -13t61.5 -28q28 -13 51.5 -23t45.5 -10q18 0 31.5 7.5t24.5 19t19.5 25.5t14.5 27h5l35 -86q-9 -16 -21.5 -31t-29 -27t-37.5 -19.5t-48 -7.5q-32 0 -57.5 13t-55.5 27q-28 14 -51 24t-52 10q-18 0 -31.5 -7.5
t-24.5 -19t-19.5 -25.5t-14.5 -27h-5zM50 242q9 16 21.5 31t29 27t37.5 19.5t48 7.5q29 0 57.5 -13t61.5 -28q28 -13 51.5 -23t45.5 -10q18 0 31.5 7.5t24.5 19t19.5 25.5t14.5 27h5l35 -86q-9 -16 -21.5 -31t-29 -27t-37.5 -19.5t-48 -7.5q-32 0 -57.5 13t-55.5 27
q-28 14 -51 24t-52 10q-18 0 -31.5 -7.5t-24.5 -19t-19.5 -25.5t-14.5 -27h-5z" />
    <glyph glyph-name="notequal" unicode="&#x2260;" horiz-adv-x="606" 
d="M556 615l-90 -115h90v-94h-163l-78 -100h241v-94h-314l-128 -164l-63 49l89 115h-90v94h164l78 100h-242v94h315l128 164z" />
    <glyph glyph-name="lessequal" unicode="&#x2264;" horiz-adv-x="606" 
d="M556 572l-381 -166l381 -166v-95l-506 221v80l506 221v-95zM555 0h-505v90h505v-90z" />
    <glyph glyph-name="greaterequal" unicode="&#x2265;" horiz-adv-x="606" 
d="M30.0342 572l380.977 -166l-380.977 -166v-95l505.969 221v80l-505.969 221v-95zM31.0342 0h504.969v90h-504.969v-90z" />
    <glyph glyph-name="uni24FF" unicode="&#x24ff;" horiz-adv-x="824" 
d="M407 566q-41 0 -72.5 -17.5t-52.5 -47.5t-31.5 -70.5t-10.5 -86.5q0 -35 7 -72t26 -68t51.5 -50.5t82.5 -19.5q51 0 83.5 19.5t51 50.5t26 68t7.5 72q0 46 -10.5 86.5t-31.5 70.5t-52.5 47.5t-73.5 17.5zM407 490q21 0 36.5 -11.5t26 -31t16 -46t5.5 -55.5
q0 -24 -3.5 -48t-13 -43t-26 -31t-41.5 -12t-41 12t-25.5 31t-13 43t-3.5 48q0 29 5 55.5t15.5 46t26 31t36.5 11.5zM411 712q81 0 148 -28.5t115 -78t74 -115.5t26 -141t-25 -140.5t-71.5 -114.5t-114 -77.5t-152.5 -28.5t-152 28.5t-113.5 77.5t-71 114.5t-24.5 140.5
t26 141t73 115.5t114 78t148 28.5z" />
    <glyph glyph-name="lozenge" unicode="&#x25ca;" horiz-adv-x="736" 
d="M686 349l-318 -360l-318 360l318 360zM182 349l186 -215l186 215l-186 215z" />
    <glyph glyph-name="blackcircle" unicode="&#x25cf;" horiz-adv-x="824" 
d="M411 712q81 0 148 -28.5t115 -78t74 -115.5t26 -141t-25 -140.5t-71.5 -114.5t-114 -77.5t-152.5 -28.5t-152 28.5t-113.5 77.5t-71 114.5t-24.5 140.5t26 141t73 115.5t114 78t148 28.5z" />
    <glyph glyph-name="uni2776" unicode="&#x2776;" horiz-adv-x="824" 
d="M477 560h-80l-126 -132l53 -55l73 80h2v-313h78v420zM411 712q81 0 148 -28.5t115 -78t74 -115.5t26 -141t-25 -140.5t-71.5 -114.5t-114 -77.5t-152.5 -28.5t-152 28.5t-113.5 77.5t-71 114.5t-24.5 140.5t26 141t73 115.5t114 78t148 28.5z" />
    <glyph glyph-name="uni2777" unicode="&#x2777;" horiz-adv-x="824" 
d="M422 566q-35 0 -61 -10.5t-45.5 -27t-32 -35.5t-19.5 -37l53 -55h3q7 17 16.5 33.5t22 30t28 21.5t33.5 8q29 0 46.5 -16t17.5 -42q0 -32 -29 -65.5t-87 -82.5l-83 -72v-76h282v76l-171 1l27 25q31 28 56.5 52.5t44.5 47.5t29.5 47t10.5 51q0 26 -10 49t-28.5 40t-45 27
t-58.5 10zM411 713q81 0 148 -28.5t115 -78t74 -115.5t26 -141t-25 -140.5t-71.5 -114.5t-114 -77.5t-152.5 -28.5t-152 28.5t-113.5 77.5t-71 114.5t-24.5 140.5t26 141t73 115.5t114 78t148 28.5z" />
    <glyph glyph-name="uni2778" unicode="&#x2778;" horiz-adv-x="824" 
d="M550 560h-270v-69h165v-2l-130 -98l33 -50q10 5 25 8t30 3q42 0 64 -19t22 -54t-21 -54t-59 -19q-44 0 -72 24.5t-44 54.5h-3l-41 -64q9 -15 23.5 -30.5t34.5 -28t46.5 -20.5t59.5 -8q31 0 58.5 9t48.5 26.5t33 43t12 58.5q0 34 -11 58.5t-29 40t-40.5 22.5t-44.5 7
q-11 0 -16 -1l-1 1l127 94v67zM411 712q81 0 148 -28.5t115 -78t74 -115.5t26 -141t-25 -140.5t-71.5 -114.5t-114 -77.5t-152.5 -28.5t-152 28.5t-113.5 77.5t-71 114.5t-24.5 140.5t26 141t73 115.5t114 78t148 28.5z" />
    <glyph glyph-name="uni2779" unicode="&#x2779;" horiz-adv-x="824" 
d="M508 560h-126l-154 -282v-64h203v-74h79v74h46v70h-48v276zM431 502v-218h-123l120 218h3zM411 712q81 0 148 -28.5t115 -78t74 -115.5t26 -141t-25 -140.5t-71.5 -114.5t-114 -77.5t-152.5 -28.5t-152 28.5t-113.5 77.5t-71 114.5t-24.5 140.5t26 141t73 115.5t114 78
t148 28.5z" />
    <glyph glyph-name="uni277A" unicode="&#x277a;" horiz-adv-x="824" 
d="M530 560h-258v-199l65 -30q13 11 32 20t45 9q39 0 61.5 -22t22.5 -55q0 -34 -21.5 -55.5t-61.5 -21.5q-45 0 -72 24t-44 55h-3l-42 -64q9 -15 23.5 -30.5t35 -28t46.5 -20.5t58 -8q33 0 61.5 9t50 27t33.5 45t12 63t-13 63t-34 44.5t-48 26.5t-55 9q-27 0 -47 -5.5
t-36 -13.5h-1v88h190v70zM411 712q81 0 148 -28.5t115 -78t74 -115.5t26 -141t-25 -140.5t-71.5 -114.5t-114 -77.5t-152.5 -28.5t-152 28.5t-113.5 77.5t-71 114.5t-24.5 140.5t26 141t73 115.5t114 78t148 28.5z" />
    <glyph glyph-name="uni277B" unicode="&#x277b;" horiz-adv-x="824" 
d="M422 566q-40 0 -71.5 -16.5t-54 -46t-34.5 -71t-12 -91.5q0 -104 48.5 -155.5t123.5 -51.5q71 0 111.5 40t40.5 101q0 31 -11 56.5t-30 43t-45 27t-57 9.5q-32 0 -57 -12t-42 -29l-1 1q0 24 6 46t18 39.5t29 28t40 10.5q34 0 55 -15.5t35 -35.5h3l37 62q-7 9 -18.5 19.5
t-28 19.5t-37.5 15t-48 6zM420 351q35 0 55 -21.5t20 -53.5q0 -30 -19.5 -50t-55.5 -20q-38 0 -58 21.5t-20 49.5q0 29 21.5 51.5t56.5 22.5zM411 712q81 0 148 -28.5t115 -78t74 -115.5t26 -141t-25 -140.5t-71.5 -114.5t-114 -77.5t-152.5 -28.5t-152 28.5t-113.5 77.5
t-71 114.5t-24.5 140.5t26 141t73 115.5t114 78t148 28.5z" />
    <glyph glyph-name="uni277C" unicode="&#x277c;" horiz-adv-x="824" 
d="M578 560h-288v-73h203l-192 -347h90l187 347v73zM411 712q81 0 148 -28.5t115 -78t74 -115.5t26 -141t-25 -140.5t-71.5 -114.5t-114 -77.5t-152.5 -28.5t-152 28.5t-113.5 77.5t-71 114.5t-24.5 140.5t26 141t73 115.5t114 78t148 28.5z" />
    <glyph glyph-name="uni277D" unicode="&#x277d;" horiz-adv-x="824" 
d="M412 566q-33 0 -58.5 -9.5t-43 -25.5t-27 -37t-9.5 -44q0 -32 17 -58.5t52 -37.5v-1q-34 -11 -56.5 -38.5t-22.5 -66.5q0 -30 11.5 -51.5t31.5 -35.5t47 -20.5t58 -6.5t58 6.5t47 20.5t31.5 35.5t11.5 51.5q0 39 -22.5 66.5t-56.5 38.5v1q35 11 52 37.5t17 58.5
q0 23 -9.5 44t-27.5 37t-43.5 25.5t-57.5 9.5zM412 320q31 0 49.5 -17.5t18.5 -43.5t-18 -40t-50 -14t-50 14t-18 40t18 43.5t50 17.5zM412 499q26 0 42 -15t16 -41q0 -23 -15 -38.5t-43 -15.5q-29 0 -44 15.5t-15 38.5q0 26 16.5 41t42.5 15zM411 712q81 0 148 -28.5
t115 -78t74 -115.5t26 -141t-25 -140.5t-71.5 -114.5t-114 -77.5t-152.5 -28.5t-152 28.5t-113.5 77.5t-71 114.5t-24.5 140.5t26 141t73 115.5t114 78t148 28.5z" />
    <glyph glyph-name="uni277E" unicode="&#x277e;" horiz-adv-x="824" 
d="M414 134q76 0 119 50t43 157q0 58 -13.5 100.5t-36 70.5t-52.5 41t-64 13t-61.5 -11.5t-47 -31.5t-30.5 -47t-11 -57t10 -55t28.5 -43t44 -28t56.5 -10q32 0 58 11.5t38 29.5l2 -1q1 -63 -24 -89.5t-60 -26.5q-36 0 -62 14.5t-40 29.5h-3l-30 -68q20 -19 55 -34t81 -15z
M410 495q37 0 54.5 -23.5t17.5 -51.5q0 -29 -16 -51t-54 -22q-37 0 -55.5 21t-18.5 52q0 29 18.5 52t53.5 23zM411 712q81 0 148 -28.5t115 -78t74 -115.5t26 -141t-25 -140.5t-71.5 -114.5t-114 -77.5t-152.5 -28.5t-152 28.5t-113.5 77.5t-71 114.5t-24.5 140.5t26 141
t73 115.5t114 78t148 28.5z" />
    <glyph glyph-name="apple" unicode="&#xf8ff;" horiz-adv-x="746" 
d="M372 715q61 0 114.5 -24t93.5 -64.5t63 -93t23 -110.5v-423h-28l-65 65l-68 -65l-63 65l-71 -65l-69 65l-63 -65l-67 65l-66 -65h-26v423q0 58 23 110.5t62.5 93t93 64.5t113.5 24zM246 449q-29 0 -50 -21t-21 -51q0 -29 21 -49.5t50 -20.5q30 0 50.5 20.5t20.5 49.5
q0 30 -20.5 51t-50.5 21zM500 449q-29 0 -49.5 -21t-20.5 -51q0 -29 20.5 -49.5t49.5 -20.5t50.5 20.5t21.5 49.5q0 30 -21.5 51t-50.5 21z" />
    <glyph glyph-name="T.alt" horiz-adv-x="505" 
d="M485 605h-166v-605h-105v605h-194v95h465v-95z" />
    <glyph glyph-name="Tbar.alt" horiz-adv-x="505" 
d="M485 605h-166v-218h130v-90h-130v-297h-105v297h-145v90h145v218h-194v95h465v-95z" />
    <glyph glyph-name="Tcaron.alt" horiz-adv-x="505" 
d="M485 605h-166v-605h-105v605h-194v95h465v-95zM340 762h-145l-86 117h106l51 -79h3l51 79h106z" />
    <glyph glyph-name="Tcedilla.alt" horiz-adv-x="505" 
d="M485 605h-166v-605h-105v605h-194v95h465v-95zM236 -74l1 -1q29 16 70 16q36 0 60 -21t24 -66t-30.5 -70.5t-84.5 -25.5q-44 0 -69.5 10t-39.5 21l16 58h5q11 -11 31.5 -19.5t41.5 -8.5t35 9t14 27q0 19 -14.5 28.5t-34.5 9.5q-17 0 -29.5 -4t-22.5 -11l-34 24l55 98h52z
" />
    <glyph glyph-name="uni021A.alt" horiz-adv-x="505" 
d="M485 605h-166v-605h-105v605h-194v95h465v-95zM268 -55q31 0 50 -21.5t19 -56.5q0 -38 -19.5 -72t-40.5 -58h-41v5q12 18 21 37t9 43q-34 0 -48.5 16.5t-14.5 42.5q0 29 16.5 46.5t48.5 17.5z" />
    <glyph glyph-name="Tdotaccent.alt" horiz-adv-x="505" 
d="M485 605h-166v-605h-105v605h-194v95h465v-95zM268 888q32 0 49 -18.5t17 -47.5t-17 -47.5t-49 -18.5t-49.5 18.5t-17.5 47.5t17.5 47.5t49.5 18.5z" />
    <glyph glyph-name="i.loclTRK" horiz-adv-x="240" 
d="M170 0h-100v560h100v-560zM121 746q32 0 49 -18.5t17 -47.5t-17 -47.5t-49 -18.5t-49.5 18.5t-17.5 47.5t17.5 47.5t49.5 18.5z" />
    <glyph glyph-name="f.alt" horiz-adv-x="355" 
d="M244 796q47 0 79.5 -16.5t46.5 -28.5l-24 -97h-5q-11 12 -31.5 27t-48.5 15q-20 0 -32 -11t-12 -34v-91h101v-90h-101v-470h-100v470h-107v90h107v99q0 37 10.5 63t28.5 42.5t41 24t47 7.5z" />
    <glyph glyph-name="fdotaccent.alt" horiz-adv-x="355" 
d="M244 796q47 0 79.5 -16.5t46.5 -28.5l-24 -97h-5q-11 12 -31.5 27t-48.5 15q-20 0 -32 -11t-12 -34v-91h101v-90h-101v-470h-100v470h-107v90h107v99q0 37 10.5 63t28.5 42.5t41 24t47 7.5zM244 970q32 0 49 -18.5t17 -47.5t-17 -47.5t-49 -18.5t-49.5 18.5t-17.5 47.5
t17.5 47.5t49.5 18.5z" />
    <glyph glyph-name="fdotaccent.ss01" horiz-adv-x="385" 
d="M244 756q47 0 79.5 -16.5t46.5 -28.5l-24 -97h-5q-11 12 -31.5 27t-48.5 15q-20 0 -32 -12t-12 -40v-105h141v-90h-141v-409h-100v409h-97v90h97v120q0 37 10.5 63t28.5 42.5t41 24t47 7.5zM244 930q32 0 49 -18.5t17 -47.5t-17 -47.5t-49 -18.5t-49.5 18.5t-17.5 47.5
t17.5 47.5t49.5 18.5z" />
    <glyph glyph-name="I_J" horiz-adv-x="627" 
d="M557 239q0 -54 -15 -100t-45 -79.5t-75.5 -52.5t-106.5 -19q-82 0 -139.5 36t-84.5 90l64 79h5q13 -25 27.5 -45t32.5 -33.5t41.5 -21t53.5 -7.5q64 0 100.5 41t36.5 124v449h105v-461zM175 272h-105v428h105v-428z" />
    <glyph glyph-name="T_u" horiz-adv-x="1023" 
d="M515 605h-196v-605h-105v605h-194v95h495v-95zM953 0h-86l-12 74h-3q-20 -37 -59 -61.5t-102 -24.5q-46 0 -79.5 15t-55 42t-32 64t-10.5 82v309h100v-296q0 -58 21 -91.5t77 -33.5q28 0 54 11t45 32.5t30.5 54t11.5 74.5v309h100v-560z" />
    <glyph glyph-name="T_uacute" horiz-adv-x="1023" 
d="M515 605h-196v-605h-105v605h-194v95h495v-95zM953 0h-86l-12 74h-3q-20 -37 -59 -61.5t-102 -24.5q-46 0 -79.5 15t-55 42t-32 64t-10.5 82v309h100v-296q0 -58 21 -91.5t77 -33.5q28 0 54 11t45 32.5t30.5 54t11.5 74.5v309h100v-560zM786 625h-103l65 117h144z" />
    <glyph glyph-name="T_ubreve" horiz-adv-x="1023" 
d="M515 605h-196v-605h-105v605h-194v95h495v-95zM953 0h-86l-12 74h-3q-20 -37 -59 -61.5t-102 -24.5q-46 0 -79.5 15t-55 42t-32 64t-10.5 82v309h100v-296q0 -58 21 -91.5t77 -33.5q28 0 54 11t45 32.5t30.5 54t11.5 74.5v309h100v-560zM870 769q0 -68 -34.5 -109
t-100.5 -41t-100.5 41t-34.5 109h54q2 -25 22.5 -41t58.5 -16t58.5 16t22.5 41h54z" />
    <glyph glyph-name="T_ucircumflex" horiz-adv-x="1023" 
d="M893 625h-106l-51 79h-3l-51 -79h-106l86 117h145zM515 605h-196v-605h-105v605h-194v95h495v-95zM953 0h-86l-12 74h-3q-20 -37 -59 -61.5t-102 -24.5q-46 0 -79.5 15t-55 42t-32 64t-10.5 82v309h100v-296q0 -58 21 -91.5t77 -33.5q28 0 54 11t45 32.5t30.5 54
t11.5 74.5v309h100v-560z" />
    <glyph glyph-name="T_udieresis" horiz-adv-x="1023" 
d="M661 741q29 0 45 -16.5t16 -44.5t-16 -44.5t-45 -16.5q-30 0 -46 16.5t-16 44.5t16 44.5t46 16.5zM853 741q29 0 45 -16.5t16 -44.5t-16 -44.5t-45 -16.5q-30 0 -46 16.5t-16 44.5t16 44.5t46 16.5zM515 605h-196v-605h-105v605h-194v95h495v-95zM953 0h-86l-12 74h-3
q-20 -37 -59 -61.5t-102 -24.5q-46 0 -79.5 15t-55 42t-32 64t-10.5 82v309h100v-296q0 -58 21 -91.5t77 -33.5q28 0 54 11t45 32.5t30.5 54t11.5 74.5v309h100v-560z" />
    <glyph glyph-name="T_ugrave" horiz-adv-x="1023" 
d="M515 605h-196v-605h-105v605h-194v95h495v-95zM953 0h-86l-12 74h-3q-20 -37 -59 -61.5t-102 -24.5q-46 0 -79.5 15t-55 42t-32 64t-10.5 82v309h100v-296q0 -58 21 -91.5t77 -33.5q28 0 54 11t45 32.5t30.5 54t11.5 74.5v309h100v-560zM778 625h-103l-106 117h144z" />
    <glyph glyph-name="T_uhungarumlaut" horiz-adv-x="1021" 
d="M877 625h-104l75 117h133zM693 625h-104l75 117h133zM515 605h-196v-605h-105v605h-194v95h495v-95zM953 0h-86l-12 74h-3q-20 -37 -59 -61.5t-102 -24.5q-46 0 -79.5 15t-55 42t-32 64t-10.5 82v309h100v-296q0 -58 21 -91.5t77 -33.5q28 0 54 11t45 32.5t30.5 54
t11.5 74.5v309h100v-560z" />
    <glyph glyph-name="T_umacron" horiz-adv-x="1023" 
d="M515 605h-196v-605h-105v605h-194v95h495v-95zM953 0h-86l-12 74h-3q-20 -37 -59 -61.5t-102 -24.5q-46 0 -79.5 15t-55 42t-32 64t-10.5 82v309h100v-296q0 -58 21 -91.5t77 -33.5q28 0 54 11t45 32.5t30.5 54t11.5 74.5v309h100v-560zM904 625h-300v85h300v-85z" />
    <glyph glyph-name="T_uogonek" horiz-adv-x="1023" 
d="M515 605h-196v-605h-105v605h-194v95h495v-95zM953 0h-86l-12 74h-3q-20 -37 -59 -61.5t-102 -24.5q-46 0 -79.5 15t-55 42t-32 64t-10.5 82v309h100v-296q0 -58 21 -91.5t77 -33.5q28 0 54 11t45 32.5t30.5 54t11.5 74.5v309h100v-560zM949 0q-13 -6 -24.5 -17
t-20 -24.5t-13.5 -28.5t-5 -30q0 -17 9 -28.5t30 -11.5q18 0 33 11.5t25 28.5h5l33 -46q-20 -35 -52.5 -56.5t-73.5 -21.5q-48 0 -74.5 24.5t-26.5 67.5q0 36 18.5 72.5t54.5 59.5h82z" />
    <glyph glyph-name="T_uring" horiz-adv-x="1023" 
d="M515 605h-196v-605h-105v605h-194v95h495v-95zM953 0h-86l-12 74h-3q-20 -37 -59 -61.5t-102 -24.5q-46 0 -79.5 15t-55 42t-32 64t-10.5 82v309h100v-296q0 -58 21 -91.5t77 -33.5q28 0 54 11t45 32.5t30.5 54t11.5 74.5v309h100v-560zM735 822q24 0 44.5 -9t35.5 -24
t23.5 -35.5t8.5 -43.5t-9 -43.5t-24 -35.5t-35.5 -24t-43.5 -9t-43.5 8.5t-35.5 23.5t-24 35.5t-9 44.5q0 48 32 80t80 32zM735 753q-18 0 -30.5 -11.5t-12.5 -31.5q0 -21 12.5 -32t30.5 -11t30.5 11t12.5 32q0 20 -12.5 31.5t-30.5 11.5z" />
    <glyph glyph-name="T_utilde" horiz-adv-x="1023" 
d="M515 605h-196v-605h-105v605h-194v95h495v-95zM953 0h-86l-12 74h-3q-20 -37 -59 -61.5t-102 -24.5q-46 0 -79.5 15t-55 42t-32 64t-10.5 82v309h100v-296q0 -58 21 -91.5t77 -33.5q28 0 54 11t45 32.5t30.5 54t11.5 74.5v309h100v-560zM679 749q21 0 37 -6t29.5 -13
t25.5 -13t25 -6q16 0 24 8.5t12 24.5h52q-4 -24 -10.5 -46.5t-17.5 -39.5t-27 -27.5t-38 -10.5q-21 0 -37 6t-30 13l-26 13t-25 6q-28 0 -36 -33h-51q3 24 9.5 46.5t17.5 39.5t27 27.5t39 10.5z" />
    <glyph glyph-name="T_v" horiz-adv-x="1009" 
d="M515 605h-196v-605h-105v605h-194v95h495v-95zM799 0h-135l-173 500h102l137 -408h2l159 468h103z" />
    <glyph glyph-name="T_w" horiz-adv-x="1273" 
d="M1113 0h-135l-120 465h-2l-120 -465h-135l-121 500h105l83 -399h2l118 459h138l118 -459h2l96 459h106zM515 605h-196v-605h-105v605h-194v95h495v-95z" />
    <glyph glyph-name="T_wacute" horiz-adv-x="1273" 
d="M1113 0h-135l-120 465h-2l-120 -465h-135l-121 500h105l83 -399h2l118 459h138l118 -459h2l96 459h106zM515 605h-196v-605h-105v605h-194v95h495v-95zM908 625h-103l65 117h144z" />
    <glyph glyph-name="T_wcircumflex" horiz-adv-x="1273" 
d="M1113 0h-135l-120 465h-2l-120 -465h-135l-121 500h105l83 -399h2l118 459h138l118 -459h2l96 459h106zM515 605h-196v-605h-105v605h-194v95h495v-95zM1015 625h-106l-51 79h-3l-51 -79h-106l86 117h145z" />
    <glyph glyph-name="T_wdieresis" horiz-adv-x="1273" 
d="M1113 0h-135l-120 465h-2l-120 -465h-135l-121 500h105l83 -399h2l118 459h138l118 -459h2l96 459h106zM515 605h-196v-605h-105v605h-194v95h495v-95zM756 741q29 0 45 -16.5t16 -44.5t-16 -44.5t-45 -16.5q-30 0 -46 16.5t-16 44.5t16 44.5t46 16.5zM958 741
q29 0 45 -16.5t16 -44.5t-16 -44.5t-45 -16.5q-30 0 -46 16.5t-16 44.5t16 44.5t46 16.5z" />
    <glyph glyph-name="T_wgrave" horiz-adv-x="1273" 
d="M1113 0h-135l-120 465h-2l-120 -465h-135l-121 500h105l83 -399h2l118 459h138l118 -459h2l96 459h106zM515 605h-196v-605h-105v605h-194v95h495v-95zM900 625h-103l-106 117h144z" />
    <glyph glyph-name="T_x" horiz-adv-x="955" 
d="M515 605h-196v-605h-105v605h-194v95h495v-95zM767 285l169 -285h-117l-122 222l-121 -222h-117l169 283l-128 217h114l83 -156l126 216h117z" />
    <glyph glyph-name="T_y" horiz-adv-x="974" 
d="M515 605h-196v-605h-105v605h-194v95h495v-95zM701 -176h-115l74 210l-174 466h109l119 -355h2l128 415h110z" />
    <glyph glyph-name="T_yacute" horiz-adv-x="974" 
d="M515 605h-196v-605h-105v605h-194v95h495v-95zM701 -176h-115l74 210l-174 466h109l119 -355h2l128 415h110zM730 625h-103l65 117h144z" />
    <glyph glyph-name="T_ycircumflex" horiz-adv-x="974" 
d="M901 625h-106l-51 79h-3l-51 -79h-106l86 117h145zM515 605h-196v-605h-105v605h-194v95h495v-95zM701 -176h-115l74 210l-174 466h109l119 -355h2l128 415h110z" />
    <glyph glyph-name="T_ydieresis" horiz-adv-x="974" 
d="M840 741q29 0 45 -16.5t16 -44.5t-16 -44.5t-45 -16.5q-30 0 -46 16.5t-16 44.5t16 44.5t46 16.5zM638 741q29 0 45 -16.5t16 -44.5t-16 -44.5t-45 -16.5q-30 0 -46 16.5t-16 44.5t16 44.5t46 16.5zM515 605h-196v-605h-105v605h-194v95h495v-95zM701 -176h-115l74 210
l-174 466h109l119 -355h2l128 415h110z" />
    <glyph glyph-name="T_ygrave" horiz-adv-x="974" 
d="M515 605h-196v-605h-105v605h-194v95h495v-95zM701 -176h-115l74 210l-174 466h109l119 -355h2l128 415h110zM775 625h-103l-106 117h144z" />
    <glyph glyph-name="W_W_W" horiz-adv-x="2256" 
d="M2052 0h-149l-135 586h-2l-135 -586h-154l-135 586h-2l-135 -586h-154l-135 586h-2l-135 -586h-154l-135 586h-2l-135 -586h-149l-174 700h113l132 -585h2l136 585h152l136 -585h2l136 585h152l136 -585h2l136 585h152l136 -585h2l136 585h152l136 -585h2l132 585h113z
" />
    <glyph glyph-name="i_j" horiz-adv-x="533" 
d="M461 -11q0 -99 -47 -142.5t-139 -43.5q-33 0 -60 7.5t-48.5 18.5t-37 25t-25.5 27l50 86h5q16 -24 44 -45t68 -21q50 0 71 22t21 76v561h98v-571zM168 70h-97v490h97v-490zM414 761q33 0 51 -19t18 -49q0 -31 -18 -50t-51 -19q-34 0 -52 19t-18 50q0 30 18 49t52 19z
M121 761q33 0 51 -19t18 -49q0 -31 -18 -50t-51 -19q-34 0 -52 19t-18 50q0 30 18 49t52 19z" />
    <glyph glyph-name="w_w_w" horiz-adv-x="1960" 
d="M1800 0h-135l-120 465h-2l-120 -465h-134l-120 465h-2l-120 -465h-134l-120 465h-2l-120 -465h-134l-120 465h-2l-120 -465h-135l-135 560h106l96 -459h2l118 459h138l118 -459h2l118 459h138l118 -459h2l118 459h138l118 -459h2l118 459h138l118 -459h2l96 459h106z" />
    <glyph glyph-name="f_f_i.ss01" horiz-adv-x="944" 
d="M254 756q47 0 79.5 -16.5t46.5 -28.5l-24 -98h-5q-11 12 -31.5 27.5t-48.5 15.5q-20 0 -32 -12t-12 -40v-105h110v-90h-110v-409h-100v409h-107v90h107v120q0 37 10.5 63t28.5 42.5t41 24t47 7.5zM596 756q34 0 61.5 -12.5t41.5 -23.5l-20 -94h-5q-11 10 -27.5 20
t-30.5 10q-20 0 -32 -12t-12 -40v-105h130v-90h-130v-409h-100v409h-97v90h97v120q0 37 10 63t27.5 42.5t40 24t46.5 7.5zM875 0h-100v560h100v-560zM825 761q33 0 51 -19t18 -49q0 -31 -18 -50t-51 -19q-34 0 -52 19t-18 50q0 30 18 49t52 19z" />
    <glyph glyph-name="f_f_l.ss01" horiz-adv-x="945" 
d="M254 756q47 0 79.5 -16.5t46.5 -28.5l-24 -98h-5q-11 12 -31.5 27.5t-48.5 15.5q-20 0 -32 -12t-12 -40v-105h110v-90h-110v-409h-100v409h-107v90h107v120q0 37 10.5 63t28.5 42.5t41 24t47 7.5zM596 756q34 0 61.5 -12.5t41.5 -23.5l-20 -94h-5q-11 10 -27.5 20
t-30.5 10q-20 0 -32 -12t-12 -40v-105h130v-90h-130v-409h-100v409h-97v90h97v120q0 37 10 63t27.5 42.5t40 24t46.5 7.5zM875 0h-100v742h100v-742z" />
    <glyph glyph-name="fi.ss01" horiz-adv-x="618" 
d="M250 756q34 0 61.5 -12.5t41.5 -23.5l-20 -94h-5q-11 10 -27.5 20t-30.5 10q-20 0 -32 -12t-12 -40l1 -105h120v-90h-120l-1 -409h-100l1 409h-107v90h107l-1 120q0 37 10 63t27 42.5t40 24t47 7.5zM529 0h-100v560h100v-560zM479 761q33 0 51 -19t18 -49q0 -31 -18 -50
t-51 -19q-34 0 -52 19t-18 50q0 30 18 49t52 19z" />
    <glyph glyph-name="fl.ss01" horiz-adv-x="599" 
d="M250 756q34 0 61.5 -12.5t41.5 -23.5l-20 -94h-5q-11 10 -26 20t-32 10q-20 0 -32 -12t-12 -40l1 -105h120v-90h-120l-1 -409h-100l1 409h-107v90h107l-1 120q0 37 10 63t27 42.5t40 24t47 7.5zM529 0h-100v742h100v-742z" />
    <glyph glyph-name="A.sc" horiz-adv-x="584" 
d="M574 0h-107l-51 141h-247l-52 -141h-107l212 560h140zM290 477l-92 -251h188l-92 251h-4z" />
    <glyph glyph-name="B.sc" horiz-adv-x="543" 
d="M311 560q88 0 137.5 -38.5t49.5 -108.5q0 -35 -13.5 -59t-30.5 -38q-19 -17 -44 -27v-3q26 -8 46 -25q17 -14 32 -39.5t15 -64.5q0 -45 -13.5 -75t-38.5 -48t-60.5 -26t-79.5 -8h-236v560h236zM175 243v-153h127q54 0 77.5 19t23.5 56t-23 57.5t-71 20.5h-134zM175 470
v-144h133q15 0 31 3.5t28.5 11.5t21 21t8.5 32q0 38 -20.5 57t-74.5 19h-127z" />
    <glyph glyph-name="C.sc" horiz-adv-x="553" 
d="M305 572q44 0 79.5 -12t62.5 -32t46 -46t30 -53l-70 -69h-5q-17 54 -51.5 88t-91.5 34q-38 0 -68.5 -17t-52 -45.5t-33 -65t-11.5 -76.5q0 -89 42 -142.5t123 -53.5q31 0 56 11.5t44 31t31.5 45.5t19.5 55h5l82 -63q-14 -38 -35.5 -70t-51 -55t-67.5 -36t-84 -13
q-65 0 -114.5 21.5t-83 59.5t-50.5 91.5t-17 117.5t21 118t57.5 93t84.5 61t102 22z" />
    <glyph glyph-name="D.sc" horiz-adv-x="613" 
d="M306 560q60 0 109 -16.5t84.5 -50t54.5 -86t19 -124.5t-20 -125.5t-56.5 -88.5t-87 -52t-110.5 -17h-214v560h221zM185 470v-380h115q81 0 124.5 51t43.5 142q0 90 -38.5 138.5t-128.5 48.5h-116z" />
    <glyph glyph-name="E.sc" horiz-adv-x="498" 
d="M443 470h-268v-147h268v-85h-268v-148h268v-90h-368v560h368v-90z" />
    <glyph glyph-name="F.sc" horiz-adv-x="502" 
d="M457 469h-284v-155h281v-85h-281v-229h-98v560h382v-91z" />
    <glyph glyph-name="G.sc" horiz-adv-x="582" 
d="M305 572q42 0 78 -13t64 -32.5t47.5 -43t29.5 -44.5l-64 -75h-5q-17 51 -55 84.5t-95 33.5q-38 0 -68.5 -17t-52 -45.5t-33 -65t-11.5 -76.5q0 -89 42 -142.5t123 -53.5q49 0 84.5 23t52.5 52v39h-113v85h208v-281h-70l-16 62h-2q-7 -14 -21 -27t-33 -23.5t-42.5 -17
t-50.5 -6.5q-64 0 -113 22t-82 61t-50 92t-17 115t21 115.5t57.5 93.5t84.5 62.5t102 22.5z" />
    <glyph glyph-name="H.sc" horiz-adv-x="597" 
d="M522 0h-100v241h-247v-241h-100v560h100v-234h247v234h100v-560z" />
    <glyph glyph-name="I.sc" horiz-adv-x="250" 
d="M175 0h-100v560h100v-560z" />
    <glyph glyph-name="J.sc" horiz-adv-x="433" 
d="M368 178q0 -42 -12 -77t-35.5 -60t-57.5 -39t-79 -14q-36 0 -65 10t-51 26t-37.5 35.5t-25.5 38.5l57 80h5q8 -17 19.5 -34t25.5 -30.5t31 -22t36 -8.5q42 0 65.5 27.5t23.5 88.5v361h100v-382z" />
    <glyph glyph-name="K.sc" horiz-adv-x="545" 
d="M278 290l262 -290h-128l-236 266h-1v-266h-100v560h100v-258h1l229 258h121z" />
    <glyph glyph-name="L.sc" horiz-adv-x="408" 
d="M175 90h218v-90h-318v560h100v-470z" />
    <glyph glyph-name="M.sc" horiz-adv-x="767" 
d="M692 0h-95v474h-2l-167 -474h-89l-167 474h-2v-474h-95v560h164l143 -415h3l143 415h164v-560z" />
    <glyph glyph-name="N.sc" horiz-adv-x="647" 
d="M572 0h-165l-230 474h-2v-474h-100v560h164l231 -474h2v474h100v-560z" />
    <glyph glyph-name="O.sc" horiz-adv-x="610" 
d="M305 572q54 0 102 -22.5t84.5 -62.5t57.5 -93.5t21 -115.5t-17 -115t-50.5 -92t-83 -61t-114.5 -22t-114.5 22t-83 61t-50.5 92t-17 115t21 115.5t57.5 93.5t84.5 62.5t102 22.5zM305 482q-38 0 -68.5 -17t-52 -45.5t-33 -65t-11.5 -76.5q0 -89 42.5 -142.5t122.5 -53.5
t122.5 53.5t42.5 142.5q0 40 -11.5 76.5t-33 65t-52 45.5t-68.5 17z" />
    <glyph glyph-name="P.sc" horiz-adv-x="519" 
d="M300 560q89 0 141.5 -43t52.5 -132q0 -44 -14.5 -77.5t-41 -56t-63 -34t-81.5 -11.5h-119v-206h-100v560h225zM175 470v-174h107q59 0 85.5 23.5t26.5 65.5t-22 63.5t-76 21.5h-121z" />
    <glyph glyph-name="Q.sc" horiz-adv-x="616" 
d="M305 572q54 0 102 -22.5t84.5 -62.5t57.5 -93.5t21 -115.5q0 -51 -13 -96.5t-39 -83.5l78 -92v-6h-103l-32 38q-31 -24 -70 -37t-86 -13q-65 0 -114.5 22t-83 61t-50.5 92t-17 115t21 115.5t57.5 93.5t84.5 62.5t102 22.5zM305 482q-38 0 -68.5 -17t-52 -45.5t-33 -65
t-11.5 -76.5q0 -89 42.5 -142.5t122.5 -53.5q59 0 97 29l-129 160l63 52l116 -144q18 42 18 99q0 40 -11.5 76.5t-33 65t-52 45.5t-68.5 17z" />
    <glyph glyph-name="R.sc" horiz-adv-x="559" 
d="M301 560q102 0 155 -41.5t53 -122.5q0 -41 -13.5 -71.5t-37.5 -52t-57 -33t-72 -12.5l166 -227h-123l-158 227h-39v-227h-100v560h226zM175 470v-156h116q60 0 89 19.5t29 62.5q0 39 -24 56.5t-77 17.5h-133z" />
    <glyph glyph-name="S.sc" horiz-adv-x="504" 
d="M233 572q44 0 80 -11t63.5 -27t47.5 -34.5t31 -34.5l-50 -84h-5q-12 19 -29.5 37t-39 32t-47 23t-53.5 9q-45 0 -68.5 -22t-23.5 -48q0 -12 3 -22.5t17.5 -21t44.5 -22.5t83 -26q46 -12 80.5 -27t57 -35t33.5 -47t11 -63t-15 -65.5t-41.5 -50.5t-63.5 -32.5t-82 -11.5
q-44 0 -81.5 10t-68.5 26.5t-54.5 37t-37.5 40.5l51 89h5q14 -22 33 -42.5t42 -36t50 -24.5t57 -9q60 0 85.5 19t25.5 50q0 14 -4.5 25.5t-21 23t-49 23.5t-88.5 27q-87 23 -128.5 60.5t-41.5 102.5q0 31 12.5 60.5t37 52t60.5 36t82 13.5z" />
    <glyph glyph-name="T.sc" horiz-adv-x="461" 
d="M446 470h-166v-470h-100v470h-165v90h431v-90z" />
    <glyph glyph-name="U.sc" horiz-adv-x="585" 
d="M520 206q0 -45 -15 -84.5t-43.5 -69.5t-70.5 -47t-97 -17t-97.5 17t-72 47t-44.5 69.5t-15 84.5v354h100v-322q0 -73 31.5 -114t97.5 -41t96 41t30 114v322h100v-354z" />
    <glyph glyph-name="V.sc" horiz-adv-x="544" 
d="M339 0h-135l-194 560h102l158 -468h2l159 468h103z" />
    <glyph glyph-name="W.sc" horiz-adv-x="832" 
d="M672 0h-135l-120 465h-2l-120 -465h-135l-135 560h106l96 -459h2l118 459h138l118 -459h2l96 459h106z" />
    <glyph glyph-name="X.sc" horiz-adv-x="501" 
d="M318 285l169 -285h-117l-122 222l-121 -222h-117l169 283l-163 277h117l115 -216l126 216h117z" />
    <glyph glyph-name="Y.sc" horiz-adv-x="486" 
d="M293 210v-210h-100v210l-188 350h111l126 -251h2l126 251h111z" />
    <glyph glyph-name="Z.sc" horiz-adv-x="433" 
d="M408 454l-281 -363h281v-91h-383v106l281 364h-281v90h383v-106z" />
    <glyph glyph-name="AE.sc" horiz-adv-x="736" 
d="M681 471h-213v-148h213v-83h-213v-151h213v-89h-306v146h-205l-74 -146h-101l288 560h398v-89zM339 480l-129 -254h165v254h-36z" />
    <glyph glyph-name="Aacute.sc" horiz-adv-x="584" 
d="M574 0h-107l-51 141h-247l-52 -141h-107l212 560h140zM290 477l-92 -251h188l-92 251h-4zM343 625h-103l65 117h144z" />
    <glyph glyph-name="Acircumflex.sc" horiz-adv-x="584" 
d="M574 0h-107l-51 141h-247l-52 -141h-107l212 560h140zM290 477l-92 -251h188l-92 251h-4zM450 625h-106l-51 79h-3l-51 -79h-106l86 117h145z" />
    <glyph glyph-name="Atilde.sc" horiz-adv-x="584" 
d="M574 0h-107l-51 141h-247l-52 -141h-107l212 560h140zM290 477l-92 -251h188l-92 251h-4zM236 749q21 0 37 -6t29.5 -13t25.5 -13t25 -6q16 0 24 8.5t12 24.5h52q-4 -24 -10.5 -46.5t-17.5 -39.5t-27 -27.5t-38 -10.5q-21 0 -37 6t-30 13l-26 13t-25 6q-28 0 -36 -33h-51
q3 24 9.5 46.5t17.5 39.5t27 27.5t39 10.5z" />
    <glyph glyph-name="Aringacute.sc" horiz-adv-x="584" 
d="M574 0h-107l-51 141h-247l-52 -141h-107l212 560h140zM290 477l-92 -251h188l-92 251h-4zM292 822q24 0 44.5 -9t35.5 -24t23.5 -35.5t8.5 -43.5t-9 -43.5t-24 -35.5t-35.5 -24t-43.5 -9t-43.5 8.5t-35.5 23.5t-24 35.5t-9 44.5q0 48 32 80t80 32zM292 753
q-18 0 -30.5 -12.5t-12.5 -30.5t12.5 -30.5t30.5 -12.5t30.5 12.5t12.5 30.5t-12.5 30.5t-30.5 12.5zM343 842h-103l65 117h144z" />
    <glyph glyph-name="Agrave.sc" horiz-adv-x="584" 
d="M574 0h-107l-51 141h-247l-52 -141h-107l212 560h140zM290 477l-92 -251h188l-92 251h-4zM336 625h-103l-106 117h144z" />
    <glyph glyph-name="Adieresis.sc" horiz-adv-x="584" 
d="M574 0h-107l-51 141h-247l-52 -141h-107l212 560h140zM290 477l-92 -251h188l-92 251h-4zM393 741q29 0 45 -16.5t16 -44.5t-16 -44.5t-45 -16.5q-30 0 -46 16.5t-16 44.5t16 44.5t46 16.5zM191 741q29 0 45 -16.5t16 -44.5t-16 -44.5t-45 -16.5q-30 0 -46 16.5t-16 44.5
t16 44.5t46 16.5z" />
    <glyph glyph-name="Aring.sc" horiz-adv-x="584" 
d="M574 0h-107l-51 141h-247l-52 -141h-107l212 560h140zM290 477l-92 -251h188l-92 251h-4zM292 822q24 0 44.5 -9t35.5 -24t23.5 -35.5t8.5 -43.5t-9 -43.5t-24 -35.5t-35.5 -24t-43.5 -9t-43.5 8.5t-35.5 23.5t-24 35.5t-9 44.5q0 48 32 80t80 32zM292 753
q-18 0 -30.5 -12.5t-12.5 -30.5t12.5 -30.5t30.5 -12.5t30.5 12.5t12.5 30.5t-12.5 30.5t-30.5 12.5z" />
    <glyph glyph-name="Abreve.sc" horiz-adv-x="584" 
d="M574 0h-107l-51 141h-247l-52 -141h-107l212 560h140zM290 477l-92 -251h188l-92 251h-4zM427 769q0 -68 -34.5 -109t-100.5 -41t-100.5 41t-34.5 109h54q2 -25 22.5 -41t58.5 -16t58.5 16t22.5 41h54z" />
    <glyph glyph-name="Amacron.sc" horiz-adv-x="584" 
d="M574 0h-107l-51 141h-247l-52 -141h-107l212 560h140zM290 477l-92 -251h188l-92 251h-4zM442 625h-300v85h300v-85z" />
    <glyph glyph-name="Aogonek.sc" horiz-adv-x="584" 
d="M574 0h-107l-51 141h-247l-52 -141h-107l212 560h140zM290 477l-92 -251h188l-92 251h-4zM549 0q-13 -6 -24.5 -17t-20 -24.5t-13.5 -28.5t-5 -30q0 -17 9 -28.5t30 -11.5q18 0 33 11.5t25 28.5h5l33 -46q-20 -35 -52.5 -56.5t-73.5 -21.5q-48 0 -74.5 24.5t-26.5 67.5
q0 36 18.5 72.5t54.5 59.5h82z" />
    <glyph glyph-name="Ccedilla.sc" horiz-adv-x="553" 
d="M305 572q44 0 79.5 -12t62.5 -32t46 -46t30 -53l-70 -69h-5q-17 54 -51.5 88t-91.5 34q-38 0 -68.5 -17t-52 -45.5t-33 -65t-11.5 -76.5q0 -89 42 -142.5t123 -53.5q31 0 56 11.5t44 31t31.5 45.5t19.5 55h5l82 -63q-14 -38 -35.5 -70t-51 -55t-67.5 -36t-84 -13
q-65 0 -114.5 21.5t-83 59.5t-50.5 91.5t-17 117.5t21 118t57.5 93t84.5 61t102 22zM273 -74l1 -1q29 16 70 16q36 0 60 -21t24 -66t-30.5 -70.5t-84.5 -25.5q-44 0 -69.5 10t-39.5 21l16 58h5q11 -11 31.5 -19.5t41.5 -8.5t35 9t14 27q0 19 -14.5 28.5t-34.5 9.5
q-17 0 -29.5 -4t-22.5 -11l-34 24l55 98h52z" />
    <glyph glyph-name="Cacute.sc" horiz-adv-x="553" 
d="M305 572q44 0 79.5 -12t62.5 -32t46 -46t30 -53l-70 -69h-5q-17 54 -51.5 88t-91.5 34q-38 0 -68.5 -17t-52 -45.5t-33 -65t-11.5 -76.5q0 -89 42 -142.5t123 -53.5q31 0 56 11.5t44 31t31.5 45.5t19.5 55h5l82 -63q-14 -38 -35.5 -70t-51 -55t-67.5 -36t-84 -13
q-65 0 -114.5 21.5t-83 59.5t-50.5 91.5t-17 117.5t21 118t57.5 93t84.5 61t102 22zM356 625h-103l65 117h144z" />
    <glyph glyph-name="Ccaron.sc" horiz-adv-x="553" 
d="M305 572q44 0 79.5 -12t62.5 -32t46 -46t30 -53l-70 -69h-5q-17 54 -51.5 88t-91.5 34q-38 0 -68.5 -17t-52 -45.5t-33 -65t-11.5 -76.5q0 -89 42 -142.5t123 -53.5q31 0 56 11.5t44 31t31.5 45.5t19.5 55h5l82 -63q-14 -38 -35.5 -70t-51 -55t-67.5 -36t-84 -13
q-65 0 -114.5 21.5t-83 59.5t-50.5 91.5t-17 117.5t21 118t57.5 93t84.5 61t102 22zM377 625h-145l-86 117h106l51 -79h3l51 79h106z" />
    <glyph glyph-name="Ccircumflex.sc" horiz-adv-x="553" 
d="M305 572q44 0 79.5 -12t62.5 -32t46 -46t30 -53l-70 -69h-5q-17 54 -51.5 88t-91.5 34q-38 0 -68.5 -17t-52 -45.5t-33 -65t-11.5 -76.5q0 -89 42 -142.5t123 -53.5q31 0 56 11.5t44 31t31.5 45.5t19.5 55h5l82 -63q-14 -38 -35.5 -70t-51 -55t-67.5 -36t-84 -13
q-65 0 -114.5 21.5t-83 59.5t-50.5 91.5t-17 117.5t21 118t57.5 93t84.5 61t102 22zM463 625h-106l-51 79h-3l-51 -79h-106l86 117h145z" />
    <glyph glyph-name="Cdotaccent.sc" horiz-adv-x="553" 
d="M305 572q44 0 79.5 -12t62.5 -32t46 -46t30 -53l-70 -69h-5q-17 54 -51.5 88t-91.5 34q-38 0 -68.5 -17t-52 -45.5t-33 -65t-11.5 -76.5q0 -89 42 -142.5t123 -53.5q31 0 56 11.5t44 31t31.5 45.5t19.5 55h5l82 -63q-14 -38 -35.5 -70t-51 -55t-67.5 -36t-84 -13
q-65 0 -114.5 21.5t-83 59.5t-50.5 91.5t-17 117.5t21 118t57.5 93t84.5 61t102 22zM305 741q29 0 45 -16.5t16 -44.5t-16 -44.5t-45 -16.5q-30 0 -46 16.5t-16 44.5t16 44.5t46 16.5z" />
    <glyph glyph-name="Eth.sc" horiz-adv-x="598" 
d="M286 560q60 0 109 -16.5t84.5 -50t54.5 -86t19 -124.5t-20 -125.5t-56.5 -88.5t-87 -52t-110.5 -17h-214v254h-55v80h55v226h221zM165 470v-136h157v-80h-157v-164h115q81 0 123.5 51t42.5 142q0 90 -37.5 138.5t-127.5 48.5h-116z" />
    <glyph glyph-name="Dcroat.sc" horiz-adv-x="598" 
d="M286 560q60 0 109 -16.5t84.5 -50t54.5 -86t19 -124.5t-20 -125.5t-56.5 -88.5t-87 -52t-110.5 -17h-214v254h-55v80h55v226h221zM165 470v-136h157v-80h-157v-164h115q81 0 123.5 51t42.5 142q0 90 -37.5 138.5t-127.5 48.5h-116z" />
    <glyph glyph-name="Dcaron.sc" horiz-adv-x="613" 
d="M306 560q60 0 109 -16.5t84.5 -50t54.5 -86t19 -124.5t-20 -125.5t-56.5 -88.5t-87 -52t-110.5 -17h-214v560h221zM185 470v-380h115q81 0 124.5 51t43.5 142q0 90 -38.5 138.5t-128.5 48.5h-116zM348 625h-145l-86 117h106l51 -79h3l51 79h106z" />
    <glyph glyph-name="Eacute.sc" horiz-adv-x="498" 
d="M443 470h-268v-147h268v-85h-268v-148h268v-90h-368v560h368v-90zM308 625h-103l65 117h144z" />
    <glyph glyph-name="Edotaccent.sc" horiz-adv-x="498" 
d="M443 470h-268v-147h268v-85h-268v-148h268v-90h-368v560h368v-90zM257 741q29 0 45 -16.5t16 -44.5t-16 -44.5t-45 -16.5q-30 0 -46 16.5t-16 44.5t16 44.5t46 16.5z" />
    <glyph glyph-name="Egrave.sc" horiz-adv-x="498" 
d="M443 470h-268v-147h268v-85h-268v-148h268v-90h-368v560h368v-90zM301 625h-103l-106 117h144z" />
    <glyph glyph-name="Ecircumflex.sc" horiz-adv-x="498" 
d="M443 470h-268v-147h268v-85h-268v-148h268v-90h-368v560h368v-90zM415 625h-106l-51 79h-3l-51 -79h-106l86 117h145z" />
    <glyph glyph-name="Ecaron.sc" horiz-adv-x="498" 
d="M443 470h-268v-147h268v-85h-268v-148h268v-90h-368v560h368v-90zM329 625h-145l-86 117h106l51 -79h3l51 79h106z" />
    <glyph glyph-name="Emacron.sc" horiz-adv-x="498" 
d="M443 470h-268v-147h268v-85h-268v-148h268v-90h-368v560h368v-90zM407 625h-300v85h300v-85z" />
    <glyph glyph-name="Edieresis.sc" horiz-adv-x="498" 
d="M443 470h-268v-147h268v-85h-268v-148h268v-90h-368v560h368v-90zM358 741q29 0 45 -16.5t16 -44.5t-16 -44.5t-45 -16.5q-30 0 -46 16.5t-16 44.5t16 44.5t46 16.5zM156 741q29 0 45 -16.5t16 -44.5t-16 -44.5t-45 -16.5q-30 0 -46 16.5t-16 44.5t16 44.5t46 16.5z" />
    <glyph glyph-name="Eogonek.sc" horiz-adv-x="498" 
d="M443 470h-268v-147h268v-85h-268v-148h268v-90h-368v560h368v-90zM393 0q-13 -6 -24.5 -17t-20 -24.5t-13.5 -28.5t-5 -30q0 -17 9 -28.5t30 -11.5q18 0 33 11.5t25 28.5h5l33 -46q-20 -35 -52.5 -56.5t-73.5 -21.5q-48 0 -74.5 24.5t-26.5 67.5q0 36 18.5 72.5
t54.5 59.5h82z" />
    <glyph glyph-name="Ebreve.sc" horiz-adv-x="498" 
d="M443 470h-268v-147h268v-85h-268v-148h268v-90h-368v560h368v-90zM392 769q0 -68 -34.5 -109t-100.5 -41t-100.5 41t-34.5 109h54q2 -25 22.5 -41t58.5 -16t58.5 16t22.5 41h54z" />
    <glyph glyph-name="Gcircumflex.sc" horiz-adv-x="582" 
d="M305 572q42 0 78 -13t64 -32.5t47.5 -43t29.5 -44.5l-64 -75h-5q-17 51 -55 84.5t-95 33.5q-38 0 -68.5 -17t-52 -45.5t-33 -65t-11.5 -76.5q0 -89 42 -142.5t123 -53.5q49 0 84.5 23t52.5 52v39h-113v85h208v-281h-70l-16 62h-2q-7 -14 -21 -27t-33 -23.5t-42.5 -17
t-50.5 -6.5q-64 0 -113 22t-82 61t-50 92t-17 115t21 115.5t57.5 93.5t84.5 62.5t102 22.5zM463 625h-106l-51 79h-3l-51 -79h-106l86 117h145z" />
    <glyph glyph-name="Gcommaaccent.sc" horiz-adv-x="582" 
d="M305 572q42 0 78 -13t64 -32.5t47.5 -43t29.5 -44.5l-64 -75h-5q-17 51 -55 84.5t-95 33.5q-38 0 -68.5 -17t-52 -45.5t-33 -65t-11.5 -76.5q0 -89 42 -142.5t123 -53.5q49 0 84.5 23t52.5 52v39h-113v85h208v-281h-70l-16 62h-2q-7 -14 -21 -27t-33 -23.5t-42.5 -17
t-50.5 -6.5q-64 0 -113 22t-82 61t-50 92t-17 115t21 115.5t57.5 93.5t84.5 62.5t102 22.5zM301 -55q31 0 50 -21.5t19 -56.5q0 -38 -19.5 -72t-40.5 -58h-41v5q12 18 21 37t9 43q-34 0 -48.5 16.5t-14.5 42.5q0 29 16.5 46.5t48.5 17.5z" />
    <glyph glyph-name="Gdotaccent.sc" horiz-adv-x="582" 
d="M305 572q42 0 78 -13t64 -32.5t47.5 -43t29.5 -44.5l-64 -75h-5q-17 51 -55 84.5t-95 33.5q-38 0 -68.5 -17t-52 -45.5t-33 -65t-11.5 -76.5q0 -89 42 -142.5t123 -53.5q49 0 84.5 23t52.5 52v39h-113v85h208v-281h-70l-16 62h-2q-7 -14 -21 -27t-33 -23.5t-42.5 -17
t-50.5 -6.5q-64 0 -113 22t-82 61t-50 92t-17 115t21 115.5t57.5 93.5t84.5 62.5t102 22.5zM305 741q29 0 45 -16.5t16 -44.5t-16 -44.5t-45 -16.5q-30 0 -46 16.5t-16 44.5t16 44.5t46 16.5z" />
    <glyph glyph-name="Gbreve.sc" horiz-adv-x="582" 
d="M305 572q42 0 78 -13t64 -32.5t47.5 -43t29.5 -44.5l-64 -75h-5q-17 51 -55 84.5t-95 33.5q-38 0 -68.5 -17t-52 -45.5t-33 -65t-11.5 -76.5q0 -89 42 -142.5t123 -53.5q49 0 84.5 23t52.5 52v39h-113v85h208v-281h-70l-16 62h-2q-7 -14 -21 -27t-33 -23.5t-42.5 -17
t-50.5 -6.5q-64 0 -113 22t-82 61t-50 92t-17 115t21 115.5t57.5 93.5t84.5 62.5t102 22.5zM440 769q0 -68 -34.5 -109t-100.5 -41t-100.5 41t-34.5 109h54q2 -25 22.5 -41t58.5 -16t58.5 16t22.5 41h54z" />
    <glyph glyph-name="Hbar.sc" horiz-adv-x="626" 
d="M537 469h79v-72h-79v-397h-100v232h-247v-232h-100v397h-80v72h80v91h100v-91h247v91h100v-91zM190 397v-80h247v80h-247z" />
    <glyph glyph-name="Hcircumflex.sc" horiz-adv-x="597" 
d="M522 0h-100v241h-247v-241h-100v560h100v-234h247v234h100v-560zM457 625h-106l-51 79h-3l-51 -79h-106l86 117h145z" />
    <glyph glyph-name="Ibreve.sc" horiz-adv-x="250" 
d="M175 0h-100v560h100v-560zM261 769q0 -68 -34.5 -109t-100.5 -41t-100.5 41t-34.5 109h54q2 -25 22.5 -41t58.5 -16t58.5 16t22.5 41h54z" />
    <glyph glyph-name="Iogonek.sc" horiz-adv-x="250" 
d="M175 0h-100v560h100v-560zM158 0q-13 -6 -24.5 -17t-20 -24.5t-13.5 -28.5t-5 -30q0 -17 9 -28.5t30 -11.5q18 0 33 11.5t25 28.5h5l33 -46q-20 -35 -52.5 -56.5t-73.5 -21.5q-48 0 -74.5 24.5t-26.5 67.5q0 36 18.5 72.5t54.5 59.5h82z" />
    <glyph glyph-name="Itilde.sc" horiz-adv-x="250" 
d="M175 0h-100v560h100v-560zM70 749q21 0 37 -6t29.5 -13t25.5 -13t25 -6q16 0 24 8.5t12 24.5h52q-4 -24 -10.5 -46.5t-17.5 -39.5t-27 -27.5t-38 -10.5q-21 0 -37 6t-30 13l-26 13t-25 6q-28 0 -36 -33h-51q3 24 9.5 46.5t17.5 39.5t27 27.5t39 10.5z" />
    <glyph glyph-name="Idotaccent.sc" horiz-adv-x="250" 
d="M175 0h-100v560h100v-560zM125 741q29 0 45 -16.5t16 -44.5t-16 -44.5t-45 -16.5q-30 0 -46 16.5t-16 44.5t16 44.5t46 16.5z" />
    <glyph glyph-name="Iacute.sc" horiz-adv-x="250" 
d="M175 0h-100v560h100v-560zM176 625h-103l65 117h144z" />
    <glyph glyph-name="Icircumflex.sc" horiz-adv-x="250" 
d="M175 0h-100v560h100v-560zM284 625h-106l-51 79h-3l-51 -79h-106l86 117h145z" />
    <glyph glyph-name="Idieresis.sc" horiz-adv-x="250" 
d="M175 0h-100v560h100v-560zM227 741q29 0 45 -16.5t16 -44.5t-16 -44.5t-45 -16.5q-30 0 -46 16.5t-16 44.5t16 44.5t46 16.5zM25 741q29 0 45 -16.5t16 -44.5t-16 -44.5t-45 -16.5q-30 0 -46 16.5t-16 44.5t16 44.5t46 16.5z" />
    <glyph glyph-name="Igrave.sc" horiz-adv-x="250" 
d="M175 0h-100v560h100v-560zM170 625h-103l-106 117h144z" />
    <glyph glyph-name="Imacron.sc" horiz-adv-x="250" 
d="M175 0h-100v560h100v-560zM276 625h-300v85h300v-85z" />
    <glyph glyph-name="Jcircumflex.sc" horiz-adv-x="433" 
d="M368 178q0 -42 -12 -77t-35.5 -60t-57.5 -39t-79 -14q-36 0 -65 10t-51 26t-37.5 35.5t-25.5 38.5l57 80h5q8 -17 19.5 -34t25.5 -30.5t31 -22t36 -8.5q42 0 65.5 27.5t23.5 88.5v361h100v-382zM476 625h-106l-51 79h-3l-51 -79h-106l86 117h145z" />
    <glyph glyph-name="Kcommaaccent.sc" horiz-adv-x="545" 
d="M278 290l262 -290h-128l-236 266h-1v-266h-100v560h100v-258h1l229 258h121zM293 -55q31 0 50 -21.5t19 -56.5q0 -38 -19.5 -72t-40.5 -58h-41v5q12 18 21 37t9 43q-34 0 -48.5 16.5t-14.5 42.5q0 29 16.5 46.5t48.5 17.5z" />
    <glyph glyph-name="Lcommaaccent.sc" horiz-adv-x="408" 
d="M175 90h218v-90h-318v560h100v-470zM204 -55q31 0 50 -21.5t19 -56.5q0 -38 -19.5 -72t-40.5 -58h-41v5q12 18 21 37t9 43q-34 0 -48.5 16.5t-14.5 42.5q0 29 16.5 46.5t48.5 17.5z" />
    <glyph glyph-name="Lslash.sc" horiz-adv-x="434" 
d="M201 362l125 71l38 -65l-163 -92v-186h218v-90h-318v224l-59 -35l-37 66l96 55v250h100v-198z" />
    <glyph glyph-name="Ldot.sc" horiz-adv-x="408" 
d="M175 90h218v-90h-318v560h100v-470zM325 389q32 0 49 -18.5t17 -47.5t-17 -47.5t-49 -18.5t-49.5 18.5t-17.5 47.5t17.5 47.5t49.5 18.5z" />
    <glyph glyph-name="Lcaron.sc" horiz-adv-x="408" 
d="M175 90h218v-90h-318v560h100v-470zM336 566q32 0 49.5 -21t17.5 -56q0 -19 -5.5 -39t-14.5 -39t-20 -35t-21 -28h-43v3q12 19 24 43.5t12 47.5h-9q-25 0 -40 17.5t-15 43.5q0 29 17 46t48 17z" />
    <glyph glyph-name="Lacute.sc" horiz-adv-x="408" 
d="M175 90h218v-90h-318v560h100v-470zM176 625h-103l65 117h144z" />
    <glyph glyph-name="Eng.sc" horiz-adv-x="637" 
d="M567 -58q0 -37 -10.5 -63t-28 -42.5t-40 -24t-46.5 -7.5q-26 0 -51 5.5t-41 13.5l14 94h2q10 -5 26 -9t30 -4q21 0 33 11.5t12 44.5v39h-46l-245 474h-1v-474h-100v560h160l230 -448h2v448h100v-618z" />
    <glyph glyph-name="Ncaron.sc" horiz-adv-x="647" 
d="M572 0h-165l-230 474h-2v-474h-100v560h164l231 -474h2v474h100v-560zM398 625h-145l-86 117h106l51 -79h3l51 79h106z" />
    <glyph glyph-name="Nacute.sc" horiz-adv-x="647" 
d="M572 0h-165l-230 474h-2v-474h-100v560h164l231 -474h2v474h100v-560zM377 625h-103l65 117h144z" />
    <glyph glyph-name="Ntilde.sc" horiz-adv-x="647" 
d="M572 0h-165l-230 474h-2v-474h-100v560h164l231 -474h2v474h100v-560zM270 749q21 0 37 -6t29.5 -13t25.5 -13t25 -6q16 0 24 8.5t12 24.5h52q-4 -24 -10.5 -46.5t-17.5 -39.5t-27 -27.5t-38 -10.5q-21 0 -37 6t-30 13l-26 13t-25 6q-28 0 -36 -33h-51q3 24 9.5 46.5
t17.5 39.5t27 27.5t39 10.5z" />
    <glyph glyph-name="Ncommaaccent.sc" horiz-adv-x="647" 
d="M572 0h-165l-230 474h-2v-474h-100v560h164l231 -474h2v474h100v-560zM326 -55q31 0 50 -21.5t19 -56.5q0 -38 -19.5 -72t-40.5 -58h-41v5q12 18 21 37t9 43q-34 0 -48.5 16.5t-14.5 42.5q0 29 16.5 46.5t48.5 17.5z" />
    <glyph glyph-name="Oacute.sc" horiz-adv-x="610" 
d="M305 572q54 0 102 -22.5t84.5 -62.5t57.5 -93.5t21 -115.5t-17 -115t-50.5 -92t-83 -61t-114.5 -22t-114.5 22t-83 61t-50.5 92t-17 115t21 115.5t57.5 93.5t84.5 62.5t102 22.5zM305 482q-38 0 -68.5 -17t-52 -45.5t-33 -65t-11.5 -76.5q0 -89 42.5 -142.5t122.5 -53.5
t122.5 53.5t42.5 142.5q0 40 -11.5 76.5t-33 65t-52 45.5t-68.5 17zM356 625h-103l65 117h144z" />
    <glyph glyph-name="OE.sc" horiz-adv-x="728" 
d="M304 572q41 0 80 -12h289v-90h-217v-147h217v-85h-217v-148h217v-90h-289q-38 -12 -81 -12q-63 0 -112 21.5t-82.5 60.5t-51 93t-17.5 118q0 63 18.5 116.5t53 92.5t83.5 60.5t109 21.5zM304 482q-40 0 -71 -15.5t-52.5 -42.5t-32.5 -64t-11 -80t11 -79t32.5 -62.5
t52.5 -41t71 -14.5q17 0 33.5 2.5t28.5 9.5v374q-12 8 -28.5 10.5t-33.5 2.5z" />
    <glyph glyph-name="Ocircumflex.sc" horiz-adv-x="610" 
d="M305 572q54 0 102 -22.5t84.5 -62.5t57.5 -93.5t21 -115.5t-17 -115t-50.5 -92t-83 -61t-114.5 -22t-114.5 22t-83 61t-50.5 92t-17 115t21 115.5t57.5 93.5t84.5 62.5t102 22.5zM305 482q-38 0 -68.5 -17t-52 -45.5t-33 -65t-11.5 -76.5q0 -89 42.5 -142.5t122.5 -53.5
t122.5 53.5t42.5 142.5q0 40 -11.5 76.5t-33 65t-52 45.5t-68.5 17zM463 625h-106l-51 79h-3l-51 -79h-106l86 117h145z" />
    <glyph glyph-name="Obreve.sc" horiz-adv-x="610" 
d="M305 572q54 0 102 -22.5t84.5 -62.5t57.5 -93.5t21 -115.5t-17 -115t-50.5 -92t-83 -61t-114.5 -22t-114.5 22t-83 61t-50.5 92t-17 115t21 115.5t57.5 93.5t84.5 62.5t102 22.5zM305 482q-38 0 -68.5 -17t-52 -45.5t-33 -65t-11.5 -76.5q0 -89 42.5 -142.5t122.5 -53.5
t122.5 53.5t42.5 142.5q0 40 -11.5 76.5t-33 65t-52 45.5t-68.5 17zM440 769q0 -68 -34.5 -109t-100.5 -41t-100.5 41t-34.5 109h54q2 -25 22.5 -41t58.5 -16t58.5 16t22.5 41h54z" />
    <glyph glyph-name="Ohungarumlaut.sc" horiz-adv-x="610" 
d="M305 572q54 0 102 -22.5t84.5 -62.5t57.5 -93.5t21 -115.5t-17 -115t-50.5 -92t-83 -61t-114.5 -22t-114.5 22t-83 61t-50.5 92t-17 115t21 115.5t57.5 93.5t84.5 62.5t102 22.5zM305 482q-38 0 -68.5 -17t-52 -45.5t-33 -65t-11.5 -76.5q0 -89 42.5 -142.5t122.5 -53.5
t122.5 53.5t42.5 142.5q0 40 -11.5 76.5t-33 65t-52 45.5t-68.5 17zM447 625h-104l75 117h133zM263 625h-104l75 117h133z" />
    <glyph glyph-name="Omacron.sc" horiz-adv-x="610" 
d="M305 572q54 0 102 -22.5t84.5 -62.5t57.5 -93.5t21 -115.5t-17 -115t-50.5 -92t-83 -61t-114.5 -22t-114.5 22t-83 61t-50.5 92t-17 115t21 115.5t57.5 93.5t84.5 62.5t102 22.5zM305 482q-38 0 -68.5 -17t-52 -45.5t-33 -65t-11.5 -76.5q0 -89 42.5 -142.5t122.5 -53.5
t122.5 53.5t42.5 142.5q0 40 -11.5 76.5t-33 65t-52 45.5t-68.5 17zM455 625h-300v85h300v-85z" />
    <glyph glyph-name="Ograve.sc" horiz-adv-x="610" 
d="M305 572q54 0 102 -22.5t84.5 -62.5t57.5 -93.5t21 -115.5t-17 -115t-50.5 -92t-83 -61t-114.5 -22t-114.5 22t-83 61t-50.5 92t-17 115t21 115.5t57.5 93.5t84.5 62.5t102 22.5zM305 482q-38 0 -68.5 -17t-52 -45.5t-33 -65t-11.5 -76.5q0 -89 42.5 -142.5t122.5 -53.5
t122.5 53.5t42.5 142.5q0 40 -11.5 76.5t-33 65t-52 45.5t-68.5 17zM349 625h-103l-106 117h144z" />
    <glyph glyph-name="Otilde.sc" horiz-adv-x="610" 
d="M305 572q54 0 102 -22.5t84.5 -62.5t57.5 -93.5t21 -115.5t-17 -115t-50.5 -92t-83 -61t-114.5 -22t-114.5 22t-83 61t-50.5 92t-17 115t21 115.5t57.5 93.5t84.5 62.5t102 22.5zM305 482q-38 0 -68.5 -17t-52 -45.5t-33 -65t-11.5 -76.5q0 -89 42.5 -142.5t122.5 -53.5
t122.5 53.5t42.5 142.5q0 40 -11.5 76.5t-33 65t-52 45.5t-68.5 17zM249 749q21 0 37 -6t29.5 -13t25.5 -13t25 -6q16 0 24 8.5t12 24.5h52q-4 -24 -10.5 -46.5t-17.5 -39.5t-27 -27.5t-38 -10.5q-21 0 -37 6t-30 13l-26 13t-25 6q-28 0 -36 -33h-51q3 24 9.5 46.5
t17.5 39.5t27 27.5t39 10.5z" />
    <glyph glyph-name="Odieresis.sc" horiz-adv-x="610" 
d="M305 572q54 0 102 -22.5t84.5 -62.5t57.5 -93.5t21 -115.5t-17 -115t-50.5 -92t-83 -61t-114.5 -22t-114.5 22t-83 61t-50.5 92t-17 115t21 115.5t57.5 93.5t84.5 62.5t102 22.5zM305 482q-38 0 -68.5 -17t-52 -45.5t-33 -65t-11.5 -76.5q0 -89 42.5 -142.5t122.5 -53.5
t122.5 53.5t42.5 142.5q0 40 -11.5 76.5t-33 65t-52 45.5t-68.5 17zM406 741q29 0 45 -16.5t16 -44.5t-16 -44.5t-45 -16.5q-30 0 -46 16.5t-16 44.5t16 44.5t46 16.5zM204 741q29 0 45 -16.5t16 -44.5t-16 -44.5t-45 -16.5q-30 0 -46 16.5t-16 44.5t16 44.5t46 16.5z" />
    <glyph glyph-name="Oslash.sc" horiz-adv-x="610" 
d="M305 -12q-82 0 -141 35l-28 -39l-65 49l32 44q-32 38 -47.5 89.5t-15.5 111.5q0 62 21 115.5t57.5 93.5t84.5 62.5t102 22.5q35 0 67.5 -10t61.5 -28l33 45l68 -48l-38 -51q34 -40 53.5 -91t19.5 -111q0 -62 -17 -115t-50.5 -92t-83 -61t-114.5 -22zM305 482
q-38 0 -68.5 -17t-52 -45.5t-33 -65t-11.5 -76.5q0 -69 25 -116l216 298q-35 22 -76 22zM222 102q35 -20 83 -20q80 0 122.5 53.5t42.5 142.5q0 67 -31 121z" />
    <glyph glyph-name="Thorn.sc" horiz-adv-x="519" 
d="M175 500h125q89 0 141.5 -43t52.5 -132q0 -44 -14.5 -77.5t-41 -56t-63 -34t-81.5 -11.5h-119v-146h-100v559h100v-59zM175 410v-174h107q59 0 85.5 23.5t26.5 65.5t-22 63.5t-76 21.5h-121z" />
    <glyph glyph-name="Rcommaaccent.sc" horiz-adv-x="559" 
d="M301 560q102 0 155 -41.5t53 -122.5q0 -41 -13.5 -71.5t-37.5 -52t-57 -33t-72 -12.5l166 -227h-123l-158 227h-39v-227h-100v560h226zM175 470v-156h116q60 0 89 19.5t29 62.5q0 39 -24 56.5t-77 17.5h-133zM270 -55q31 0 50 -21.5t19 -56.5q0 -38 -19.5 -72t-40.5 -58
h-41v5q12 18 21 37t9 43q-34 0 -48.5 16.5t-14.5 42.5q0 29 16.5 46.5t48.5 17.5z" />
    <glyph glyph-name="Rcaron.sc" horiz-adv-x="559" 
d="M301 560q102 0 155 -41.5t53 -122.5q0 -41 -13.5 -71.5t-37.5 -52t-57 -33t-72 -12.5l166 -227h-123l-158 227h-39v-227h-100v560h226zM175 470v-156h116q60 0 89 19.5t29 62.5q0 39 -24 56.5t-77 17.5h-133zM342 625h-145l-86 117h106l51 -79h3l51 79h106z" />
    <glyph glyph-name="Racute.sc" horiz-adv-x="559" 
d="M301 560q102 0 155 -41.5t53 -122.5q0 -41 -13.5 -71.5t-37.5 -52t-57 -33t-72 -12.5l166 -227h-123l-158 227h-39v-227h-100v560h226zM175 470v-156h116q60 0 89 19.5t29 62.5q0 39 -24 56.5t-77 17.5h-133zM321 625h-103l65 117h144z" />
    <glyph glyph-name="Sacute.sc" horiz-adv-x="504" 
d="M233 572q44 0 80 -11t63.5 -27t47.5 -34.5t31 -34.5l-50 -84h-5q-12 19 -29.5 37t-39 32t-47 23t-53.5 9q-45 0 -68.5 -22t-23.5 -48q0 -12 3 -22.5t17.5 -21t44.5 -22.5t83 -26q46 -12 80.5 -27t57 -35t33.5 -47t11 -63t-15 -65.5t-41.5 -50.5t-63.5 -32.5t-82 -11.5
q-44 0 -81.5 10t-68.5 26.5t-54.5 37t-37.5 40.5l51 89h5q14 -22 33 -42.5t42 -36t50 -24.5t57 -9q60 0 85.5 19t25.5 50q0 14 -4.5 25.5t-21 23t-49 23.5t-88.5 27q-87 23 -128.5 60.5t-41.5 102.5q0 31 12.5 60.5t37 52t60.5 36t82 13.5zM269 625h-103l65 117h144z" />
    <glyph glyph-name="Scaron.sc" horiz-adv-x="504" 
d="M233 572q44 0 80 -11t63.5 -27t47.5 -34.5t31 -34.5l-50 -84h-5q-12 19 -29.5 37t-39 32t-47 23t-53.5 9q-45 0 -68.5 -22t-23.5 -48q0 -12 3 -22.5t17.5 -21t44.5 -22.5t83 -26q46 -12 80.5 -27t57 -35t33.5 -47t11 -63t-15 -65.5t-41.5 -50.5t-63.5 -32.5t-82 -11.5
q-44 0 -81.5 10t-68.5 26.5t-54.5 37t-37.5 40.5l51 89h5q14 -22 33 -42.5t42 -36t50 -24.5t57 -9q60 0 85.5 19t25.5 50q0 14 -4.5 25.5t-21 23t-49 23.5t-88.5 27q-87 23 -128.5 60.5t-41.5 102.5q0 31 12.5 60.5t37 52t60.5 36t82 13.5zM290 625h-145l-86 117h106l51 -79
h3l51 79h106z" />
    <glyph glyph-name="Scircumflex.sc" horiz-adv-x="504" 
d="M233 572q44 0 80 -11t63.5 -27t47.5 -34.5t31 -34.5l-50 -84h-5q-12 19 -29.5 37t-39 32t-47 23t-53.5 9q-45 0 -68.5 -22t-23.5 -48q0 -12 3 -22.5t17.5 -21t44.5 -22.5t83 -26q46 -12 80.5 -27t57 -35t33.5 -47t11 -63t-15 -65.5t-41.5 -50.5t-63.5 -32.5t-82 -11.5
q-44 0 -81.5 10t-68.5 26.5t-54.5 37t-37.5 40.5l51 89h5q14 -22 33 -42.5t42 -36t50 -24.5t57 -9q60 0 85.5 19t25.5 50q0 14 -4.5 25.5t-21 23t-49 23.5t-88.5 27q-87 23 -128.5 60.5t-41.5 102.5q0 31 12.5 60.5t37 52t60.5 36t82 13.5zM376 625h-106l-51 79h-3l-51 -79
h-106l86 117h145z" />
    <glyph glyph-name="Scommaaccent.sc" horiz-adv-x="504" 
d="M233 572q44 0 80 -11t63.5 -27t47.5 -34.5t31 -34.5l-50 -84h-5q-12 19 -29.5 37t-39 32t-47 23t-53.5 9q-45 0 -68.5 -22t-23.5 -48q0 -12 3 -22.5t17.5 -21t44.5 -22.5t83 -26q46 -12 80.5 -27t57 -35t33.5 -47t11 -63t-15 -65.5t-41.5 -50.5t-63.5 -32.5t-82 -11.5
q-44 0 -81.5 10t-68.5 26.5t-54.5 37t-37.5 40.5l51 89h5q14 -22 33 -42.5t42 -36t50 -24.5t57 -9q60 0 85.5 19t25.5 50q0 14 -4.5 25.5t-21 23t-49 23.5t-88.5 27q-87 23 -128.5 60.5t-41.5 102.5q0 31 12.5 60.5t37 52t60.5 36t82 13.5zM252 -55q31 0 50 -21.5t19 -56.5
q0 -38 -19.5 -72t-40.5 -58h-41v5q12 18 21 37t9 43q-34 0 -48.5 16.5t-14.5 42.5q0 29 16.5 46.5t48.5 17.5z" />
    <glyph glyph-name="Scedilla.sc" horiz-adv-x="504" 
d="M233 572q44 0 80 -11t63.5 -27t47.5 -34.5t31 -34.5l-50 -84h-5q-12 19 -29.5 37t-39 32t-47 23t-53.5 9q-45 0 -68.5 -22t-23.5 -48q0 -12 3 -22.5t17.5 -21t44.5 -22.5t83 -26q46 -12 80.5 -27t57 -35t33.5 -47t11 -63t-15 -65.5t-41.5 -50.5t-63.5 -32.5t-82 -11.5
q-44 0 -81.5 10t-68.5 26.5t-54.5 37t-37.5 40.5l51 89h5q14 -22 33 -42.5t42 -36t50 -24.5t57 -9q60 0 85.5 19t25.5 50q0 14 -4.5 25.5t-21 23t-49 23.5t-88.5 27q-87 23 -128.5 60.5t-41.5 102.5q0 31 12.5 60.5t37 52t60.5 36t82 13.5zM220 -74l1 -1q29 16 70 16
q36 0 60 -21t24 -66t-30.5 -70.5t-84.5 -25.5q-44 0 -69.5 10t-39.5 21l16 58h5q11 -11 31.5 -19.5t41.5 -8.5t35 9t14 27q0 19 -14.5 28.5t-34.5 9.5q-17 0 -29.5 -4t-22.5 -11l-34 24l55 98h52z" />
    <glyph glyph-name="Tbar.sc" horiz-adv-x="461" 
d="M446 470h-166v-163h135v-77h-135v-230h-100v230h-135v77h135v163h-165v90h431v-90z" />
    <glyph glyph-name="Tcaron.sc" horiz-adv-x="461" 
d="M446 470h-166v-470h-100v470h-165v90h431v-90zM303 625h-145l-86 117h106l51 -79h3l51 79h106z" />
    <glyph glyph-name="Uacute.sc" horiz-adv-x="585" 
d="M520 206q0 -45 -15 -84.5t-43.5 -69.5t-70.5 -47t-97 -17t-97.5 17t-72 47t-44.5 69.5t-15 84.5v354h100v-322q0 -73 31.5 -114t97.5 -41t96 41t30 114v322h100v-354zM344 625h-103l65 117h144z" />
    <glyph glyph-name="Ucircumflex.sc" horiz-adv-x="585" 
d="M520 206q0 -45 -15 -84.5t-43.5 -69.5t-70.5 -47t-97 -17t-97.5 17t-72 47t-44.5 69.5t-15 84.5v354h100v-322q0 -73 31.5 -114t97.5 -41t96 41t30 114v322h100v-354zM451 625h-106l-51 79h-3l-51 -79h-106l86 117h145z" />
    </font>
</defs>
</svg>
